<svg xmlns="http://www.w3.org/2000/svg" viewBox="0 0 446.65 163.12"><defs><style>.cls-1{fill:#161616;}.cls-2{fill:#1898cd;}.cls-3{fill:#e70740;}.cls-4{fill:#ebb13b;}</style></defs><g id="Capa_2" data-name="Capa 2"><g id="Capa_1-2" data-name="Capa 1"><path class="cls-1" d="M204.35,140.17l-14.08,22a2.66,2.66,0,0,1-4.08,0l-14.1-22a4,4,0,0,1-.25-4c2.8-5.79,5.31-13.52,7-23.83a1.93,1.93,0,0,1,0-.27,259.22,259.22,0,0,0,4.44-39.5c.29-6.47.37-12.43.35-17.49,0-3.77,0-7.06-.14-9.68,0-.17,0-.34,0-.5,0-.9,0-1.71-.08-2.43,0-.19,0-.38,0-.55a2,2,0,0,0,0-.36,7,7,0,0,0-.05-.84c0-.36,0-.66,0-.93v-.63h9.74s0,0,0,.17-.05.7-.06,1.36-.08,1.54-.12,2.6c0,.22,0,.46,0,.72,0,.5,0,1-.07,1.58,0,1-.07,2.08-.07,3.25v.51c0,.34,0,.69,0,1.05s0,.83,0,1.26c0,1.11,0,2.27,0,3.47,0,5.38.08,11.8.41,18.78.61,13.33,2.07,28.65,5.25,42.51a81.26,81.26,0,0,0,6.28,19.75A3.93,3.93,0,0,1,204.35,140.17Z"/><path class="cls-1" d="M188.09,44.85c.11,2.64.16,5.95.14,9.75C188.21,50.78,188.16,47.48,188.09,44.85Z"/><path class="cls-1" d="M444.45,10.63a4.28,4.28,0,0,1,1.61,1.66,4.75,4.75,0,0,1,.59,2.38,4.68,4.68,0,0,1-.59,2.37,4.33,4.33,0,0,1-1.61,1.65,4.59,4.59,0,0,1-2.35.6,4.65,4.65,0,0,1-2.36-.6A4.38,4.38,0,0,1,438.11,17a4.79,4.79,0,0,1-.59-2.37,4.85,4.85,0,0,1,.59-2.38,4.33,4.33,0,0,1,1.63-1.66,4.65,4.65,0,0,1,2.36-.6A4.59,4.59,0,0,1,444.45,10.63Zm.34,6.82a3.87,3.87,0,0,0,1-2.78,3.85,3.85,0,0,0-1-2.77,3.5,3.5,0,0,0-2.69-1.09,3.57,3.57,0,0,0-2.72,1.09,3.88,3.88,0,0,0-1,2.77,3.91,3.91,0,0,0,1,2.78,3.6,3.6,0,0,0,2.72,1.08A3.53,3.53,0,0,0,444.79,17.45Zm-1-2.84a1.55,1.55,0,0,1-.9.5l1.38,2-1.18,0-1.27-2h-.53v2h-1v-5h2.15a1.74,1.74,0,0,1,1.21.41,1.39,1.39,0,0,1,.45,1.09A1.44,1.44,0,0,1,443.79,14.61Zm-2.5-.28h1.09a.84.84,0,0,0,.53-.17.56.56,0,0,0,.21-.48.55.55,0,0,0-.21-.48.9.9,0,0,0-.53-.15h-1.09Z"/><path class="cls-1" d="M0,20.19H8.17V94.05H39.63V102H0Z"/><path class="cls-1" d="M89.39,20.19,127.52,102h-8.83l-12.86-26.9H70.61L57.87,102H48.76L87.39,20.19Zm-1,17.37-14,29.59h28Z"/><path class="cls-1" d="M126,28.19v-8h44.8v8H152.6V102h-8.34V28.19Z"/><path class="cls-1" d="M210.47,102V20.19h1.78l54.42,62.67V20.19h8.05V102h-1.83L218.92,40V102Z"/><path class="cls-1" d="M364.73,30.52q-12.5-12.37-31.08-12.39A42.15,42.15,0,0,0,296.8,39.58a43.61,43.61,0,0,0-5.7,21.85,40.94,40.94,0,0,0,12.52,30.13Q316.12,104,334.31,104a41.35,41.35,0,0,0,30.45-12.5A41.49,41.49,0,0,0,377.25,61Q377.25,42.92,364.73,30.52ZM334,96.06a33.3,33.3,0,0,1-24.36-10,33.38,33.38,0,0,1-10.1-24.61,35.29,35.29,0,0,1,4.57-17.85,34,34,0,0,1,12.69-12.74A33.6,33.6,0,0,1,334,26.08a34.49,34.49,0,0,1,17.48,4.73A34,34,0,0,1,364.27,43.4,34.7,34.7,0,0,1,368.8,61a35.52,35.52,0,0,1-4.53,17.8,33.12,33.12,0,0,1-12.64,12.63A35.05,35.05,0,0,1,334,96.06Z"/><path class="cls-1" d="M384.47,86.72l6.95-4.17q7.33,13.5,16.95,13.51a16.25,16.25,0,0,0,7.73-1.92A13.55,13.55,0,0,0,421.6,89a13.32,13.32,0,0,0,1.89-6.84,13.89,13.89,0,0,0-2.78-8.06q-3.84-5.44-14-13.12T394,49.81a20.42,20.42,0,0,1-4.34-12.5,18.94,18.94,0,0,1,2.56-9.73,18.18,18.18,0,0,1,7.2-6.92,20.66,20.66,0,0,1,10.08-2.53A21.45,21.45,0,0,1,420.29,21q5,2.86,10.65,10.54l-6.67,5q-4.62-6.1-7.87-8.06a13.59,13.59,0,0,0-7.08-1.94,11.22,11.22,0,0,0-8.09,3A9.84,9.84,0,0,0,398.09,37a12.62,12.62,0,0,0,1.11,5.17,19,19,0,0,0,4.06,5.45q1.61,1.56,10.56,8.17,10.62,7.83,14.56,13.95A22.5,22.5,0,0,1,432.33,82a20.81,20.81,0,0,1-6.76,15.45A22.65,22.65,0,0,1,409.15,104a24.09,24.09,0,0,1-13.51-4Q389.58,96.06,384.47,86.72Z"/><path class="cls-2" d="M339.5,31.4A31.58,31.58,0,0,0,306,51.75a31.41,31.41,0,0,0-2,11.47,2.79,2.79,0,1,0,5.57,0q0-1.14.06-2.28c0-.38.07-.76.1-1.13,0-.07.07-.55,0-.11,0-.24.07-.47.11-.71a29.11,29.11,0,0,1,1.09-4.42c.12-.36.25-.72.38-1.08l.21-.53c0-.05.24-.59.13-.33l.14-.32.24-.51c.19-.39.38-.77.58-1.15A29.74,29.74,0,0,1,315,46.8c.34-.45.16-.21.09-.11l.36-.45c.24-.29.49-.58.74-.86.54-.6,1.11-1.18,1.7-1.73s1.07-1,1.63-1.41c-.29.23.09-.06.12-.09l.47-.34c.35-.25.71-.5,1.07-.73a28.06,28.06,0,0,1,4.18-2.25c-.36.16.6-.24.67-.27l.95-.34c.78-.27,1.56-.5,2.35-.7s1.69-.39,2.55-.53l.57-.08c-.49.06.4,0,.4,0l1.15-.1a29.39,29.39,0,0,1,5.47.19,2.78,2.78,0,0,0,2.78-2.78,2.86,2.86,0,0,0-2.78-2.78Z"/><path class="cls-2" d="M339.09,41.14a23.78,23.78,0,0,0-15.9,4,24.49,24.49,0,0,0-9.35,12.63,2.79,2.79,0,1,0,5.37,1.48c.17-.53.36-1.06.57-1.58-.18.44.17-.36.17-.36.12-.25.25-.5.38-.75a20.56,20.56,0,0,1,1.78-2.85c.32-.44-.14.13.25-.32.19-.21.36-.43.55-.63.34-.39.7-.76,1.07-1.11s.82-.77,1.25-1.12l.33-.27c-.16.12-.16.13,0,0s.45-.33.69-.48a17.4,17.4,0,0,1,6.06-2.7c.59-.15,1.19-.27,1.79-.37s-.13,0,.46,0l.91-.08a22,22,0,0,1,3.63.11,2.78,2.78,0,0,0,2.78-2.78,2.86,2.86,0,0,0-2.78-2.79Z"/><path class="cls-3" d="M328.22,90.94a31.58,31.58,0,0,0,33.47-20.35,31.26,31.26,0,0,0,2.06-11.48,2.79,2.79,0,0,0-5.57,0q0,1.14-.06,2.28c0,.38-.07.76-.1,1.14,0,.07-.07.54,0,.11,0,.23-.07.47-.11.7a29.53,29.53,0,0,1-1.09,4.43c-.12.36-.25.71-.38,1.07l-.21.53-.13.33L356,70l-.24.52c-.19.38-.38.77-.58,1.15a29.74,29.74,0,0,1-2.44,3.85c-.34.45-.17.2-.09.11l-.36.44c-.24.29-.49.58-.74.86-.54.6-1.11,1.18-1.7,1.73s-1.07,1-1.63,1.41l-.12.1-.47.34c-.35.25-.71.49-1.07.73a29.58,29.58,0,0,1-4.19,2.25c.37-.16-.59.24-.67.27l-.95.34c-.77.26-1.55.5-2.35.7s-1.68.39-2.54.52l-.57.09c.49-.07-.4,0-.41,0q-.57.06-1.14.09a27.77,27.77,0,0,1-5.47-.19,2.8,2.8,0,0,0-2.79,2.79,2.88,2.88,0,0,0,2.79,2.78Z"/><path class="cls-3" d="M327.81,80.62a23.73,23.73,0,0,0,15.9-4A24.49,24.49,0,0,0,353.06,64a2.8,2.8,0,0,0-1.95-3.42,2.84,2.84,0,0,0-3.42,1.94c-.17.53-.36,1.06-.57,1.58.18-.44-.17.36-.17.36l-.37.75A21,21,0,0,1,344.79,68c-.32.44.14-.13-.25.32-.19.21-.36.43-.55.64-.34.38-.7.75-1.07,1.11s-.82.76-1.25,1.12l-.33.26c.16-.12.16-.12,0,0s-.45.33-.69.49a17.91,17.91,0,0,1-6.06,2.7c-.59.14-1.19.26-1.79.36a1.51,1.51,0,0,1-.46.06l-.91.07a21,21,0,0,1-3.63-.11A2.8,2.8,0,0,0,325,77.84a2.87,2.87,0,0,0,2.79,2.78Z"/><path class="cls-4" d="M315,4.31a34.58,34.58,0,0,0-1,4.16c-.07.37-.13.72-.19,1.1,0,.08,0,.15,0,.2v0s0,0,0,0v0s0,.06,0,.09c-.07.68-.14,1.37-.18,2.06a36.78,36.78,0,0,0,0,4.2c-1.48.67-2.95,1.42-4.39,2.25-.71.42-1.42.85-2.1,1.3a40.87,40.87,0,0,1,1.34-17.24A3.49,3.49,0,0,1,312.63.1,3.46,3.46,0,0,1,315,4.31Z"/><path class="cls-4" d="M327.33,6.24A15.55,15.55,0,0,0,326.44,8h0a18.41,18.41,0,0,0-1,3.48.2.2,0,0,1,0,.11c0,.32-.05.64-.07,1a47.06,47.06,0,0,0-6.86,1.69,21.75,21.75,0,0,1,2.91-11.47,3.5,3.5,0,0,1,4.7-1.23A3.47,3.47,0,0,1,327.33,6.24Z"/><path class="cls-4" d="M302.42,23.15a46.3,46.3,0,0,0-5.2,5.09,52.87,52.87,0,0,1-4.68-17.36C292.36,9,294.26,7.53,296,7.46a3.48,3.48,0,0,1,3.41,3.42l.15,1.29v.17a.54.54,0,0,1,0,.19c.12.75.24,1.5.39,2.24.28,1.48.65,2.93,1.07,4.38S301.92,21.84,302.42,23.15Z"/><polygon class="cls-1" points="183.9 29.4 178.37 19.25 197.67 19.25 192.28 29.4 183.9 29.4"/></g></g></svg>