<svg xmlns="http://www.w3.org/2000/svg" viewBox="0 0 730.83 266.89"><defs><style>.cls-1{fill:#fff;}.cls-2{fill:#1898cd;}.cls-3{fill:#e70740;}.cls-4{fill:#ebb13b;}</style></defs><g id="Capa_2" data-name="Capa 2"><g id="Capa_1-2" data-name="Capa 1"><path class="cls-1" d="M334.37,229.35l-23.05,36c-1.35,2.07-5.31,2.07-6.66,0l-23.08-36a6.52,6.52,0,0,1-.41-6.51c4.58-9.47,8.68-22.12,11.5-39a1.93,1.93,0,0,1,.07-.44c4.34-21.46,6.41-44.54,7.26-64.64.47-10.59.6-20.34.57-28.62,0-6.17-.06-11.55-.23-15.83,0-.28,0-.56,0-.83,0-1.47-.05-2.79-.12-4,0-.31,0-.61,0-.89a3.7,3.7,0,0,0,0-.6c0-.5,0-1-.07-1.38,0-.57,0-1.07-.06-1.51v-1h15.94s0,.08,0,.28c0,.38-.07,1.14-.1,2.21s-.13,2.53-.19,4.26c0,.37,0,.77,0,1.18,0,.82-.07,1.67-.1,2.59-.05,1.63-.11,3.41-.11,5.32,0,.28,0,.56,0,.83,0,.56,0,1.13,0,1.72s0,1.36,0,2.06c0,1.82,0,3.71,0,5.67,0,8.81.12,19.31.66,30.73,1,21.82,3.39,46.88,8.59,69.57,2.7,13.59,6.29,24.15,10.28,32.31A6.46,6.46,0,0,1,334.37,229.35Z"/><path class="cls-1" d="M307.76,73.39c.17,4.31.26,9.73.23,16C308,83.09,307.88,77.69,307.76,73.39Z"/><path class="cls-1" d="M727.21,17.39a6.93,6.93,0,0,1,2.65,2.72,7.84,7.84,0,0,1,1,3.9,7.7,7.7,0,0,1-1,3.87,7,7,0,0,1-2.65,2.71,7.5,7.5,0,0,1-3.83,1,7.61,7.61,0,0,1-3.86-1,7,7,0,0,1-2.67-2.71,7.79,7.79,0,0,1-1-3.87,7.94,7.94,0,0,1,1-3.9,6.92,6.92,0,0,1,2.67-2.72,7.52,7.52,0,0,1,3.86-1A7.41,7.41,0,0,1,727.21,17.39Zm.57,11.16A6.36,6.36,0,0,0,729.47,24a6.34,6.34,0,0,0-1.69-4.54,6.39,6.39,0,0,0-8.85,0A6.34,6.34,0,0,0,717.25,24a6.35,6.35,0,0,0,1.68,4.54,6.42,6.42,0,0,0,8.85,0Zm-1.64-4.64a2.49,2.49,0,0,1-1.48.81L726.93,28,725,28l-2.08-3.22h-.87V28h-1.62V19.88h3.51a2.84,2.84,0,0,1,2,.67,2.29,2.29,0,0,1,.74,1.79A2.35,2.35,0,0,1,726.14,23.91Zm-4.09-.47h1.78a1.37,1.37,0,0,0,.87-.27.92.92,0,0,0,.34-.79.9.9,0,0,0-.34-.78,1.49,1.49,0,0,0-.87-.24h-1.78Z"/><path class="cls-1" d="M0,33H13.37V153.89H64.84v12.92H0Z"/><path class="cls-1" d="M146.26,33l62.39,133.78H194.21l-21.05-44H115.53l-20.84,44H79.78L143,33Zm-1.69,28.42-22.92,48.43h45.73Z"/><path class="cls-1" d="M206.21,46.13V33h73.3v13.1H249.68V166.81H236V46.13Z"/><path class="cls-1" d="M344.38,166.81V33h2.91l89,102.55V33h13.18V166.81h-3L358.2,65.51v101.3Z"/><path class="cls-1" d="M596.79,49.94q-20.47-20.26-50.87-20.28a68.92,68.92,0,0,0-60.28,35.11,71.29,71.29,0,0,0-9.33,35.74q0,28.92,20.47,49.29T547,170.17q29.4,0,49.82-20.46t20.44-49.83Q617.27,70.22,596.79,49.94ZM546.51,157.18a54.48,54.48,0,0,1-39.85-16.45q-16.52-16.41-16.53-40.26a57.92,57.92,0,0,1,7.47-29.22,55.76,55.76,0,0,1,20.77-20.84,55,55,0,0,1,28.14-7.74,56.47,56.47,0,0,1,28.61,7.74A55.46,55.46,0,0,1,596,71a56.67,56.67,0,0,1,7.42,28.81A58.09,58.09,0,0,1,596,129a54.15,54.15,0,0,1-20.68,20.66A57.29,57.29,0,0,1,546.51,157.18Z"/><path class="cls-1" d="M629.08,141.89l11.37-6.82q12,22.1,27.74,22.1A26.6,26.6,0,0,0,680.83,154a22.21,22.21,0,0,0,9-8.41,21.81,21.81,0,0,0,3.09-11.19,22.72,22.72,0,0,0-4.54-13.19q-6.28-8.91-22.92-21.46T644.63,81.5A33.38,33.38,0,0,1,637.54,61a31,31,0,0,1,4.18-15.91A29.89,29.89,0,0,1,653.5,33.8,33.91,33.91,0,0,1,670,29.67a35.23,35.23,0,0,1,17.69,4.68q8.22,4.68,17.41,17.23L694.2,59.86q-7.56-10-12.87-13.19a22.2,22.2,0,0,0-11.6-3.18q-8.09,0-13.23,4.91a16.1,16.1,0,0,0-5.14,12.1A20.63,20.63,0,0,0,653.18,69a31.31,31.31,0,0,0,6.64,8.92q2.64,2.53,17.28,13.36,17.37,12.83,23.83,22.83t6.45,20.1q0,14.55-11,25.28a37.09,37.09,0,0,1-26.87,10.73,39.48,39.48,0,0,1-22.1-6.5Q637.44,157.18,629.08,141.89Z"/><path class="cls-2" d="M555.5,51.37a51.68,51.68,0,0,0-54.78,33.3,51.43,51.43,0,0,0-3.36,18.77,4.56,4.56,0,1,0,9.11,0c0-1.24,0-2.48.11-3.73,0-.62.11-1.23.16-1.85,0-.12.11-.9,0-.18.05-.39.11-.77.17-1.15a48.46,48.46,0,0,1,1.79-7.24c.2-.59.4-1.18.62-1.76.11-.29.22-.58.34-.87,0-.09.4-1,.21-.54s.2-.44.24-.52l.39-.85c.31-.63.62-1.26,1-1.88a47.36,47.36,0,0,1,4-6.29c.55-.74.27-.35.14-.19l.59-.72c.4-.48.81-1,1.22-1.41.88-1,1.81-1.93,2.78-2.83s1.75-1.58,2.67-2.31l.19-.15.77-.56c.57-.41,1.16-.81,1.75-1.2a48,48,0,0,1,6.85-3.68c-.6.26,1-.39,1.09-.44l1.56-.56c1.26-.43,2.55-.81,3.84-1.14s2.77-.64,4.16-.86l.94-.14c-.81.1.65-.07.66-.07.63-.06,1.25-.11,1.88-.15a47,47,0,0,1,9,.31c2.37.31,4.65-2.31,4.55-4.55-.12-2.73-2-4.23-4.55-4.56Z"/><path class="cls-2" d="M554.83,67.32a38.87,38.87,0,0,0-26,6.55,40.13,40.13,0,0,0-15.3,20.67,4.6,4.6,0,0,0,3.18,5.61A4.66,4.66,0,0,0,522.3,97c.28-.88.58-1.74.94-2.59-.3.71.27-.59.27-.59.2-.41.4-.83.62-1.23A35.6,35.6,0,0,1,527,87.9c.53-.72-.22.22.42-.52.3-.35.59-.7.89-1,.56-.63,1.15-1.24,1.75-1.82s1.34-1.25,2-1.83l.53-.44c-.25.2-.26.21,0,0l1.12-.79a28.8,28.8,0,0,1,9.93-4.42c1-.24,1.94-.43,2.92-.59a2.41,2.41,0,0,1,.76-.1c.49,0,1-.09,1.48-.11a34.79,34.79,0,0,1,6,.17c2.38.26,4.66-2.28,4.55-4.56-.12-2.69-2-4.27-4.55-4.55Z"/><path class="cls-3" d="M537,148.8a51.67,51.67,0,0,0,54.77-33.3,51.06,51.06,0,0,0,3.36-18.78,4.56,4.56,0,0,0-9.11,0c0,1.25,0,2.49-.1,3.73,0,.62-.11,1.24-.17,1.86,0,.11-.1.89,0,.18,0,.38-.11.77-.17,1.15a48.76,48.76,0,0,1-1.79,7.24c-.2.59-.41,1.18-.62,1.76l-.34.87c0,.08-.4,1-.22.54s-.2.44-.23.52c-.13.28-.26.57-.4.85-.3.63-.61,1.25-.94,1.87a49.6,49.6,0,0,1-4,6.3c-.55.74-.27.34-.15.19l-.58.72c-.4.48-.81,1-1.22,1.41-.89,1-1.81,1.93-2.78,2.83s-1.75,1.57-2.67,2.31c.47-.38-.14.11-.2.15-.25.19-.5.38-.76.56-.57.41-1.16.81-1.75,1.19a47.08,47.08,0,0,1-6.85,3.69c.6-.26-1,.39-1.1.44l-1.55.56c-1.27.43-2.55.81-3.85,1.14s-2.76.64-4.16.86l-.93.14c.8-.1-.66.07-.67.07-.62.06-1.25.11-1.88.15a47.71,47.71,0,0,1-8.94-.31c-2.38-.31-4.66,2.31-4.56,4.55.12,2.73,2,4.23,4.56,4.56Z"/><path class="cls-3" d="M536.37,131.91a38.82,38.82,0,0,0,26-6.55,40.13,40.13,0,0,0,15.3-20.67,4.6,4.6,0,0,0-3.18-5.61,4.65,4.65,0,0,0-5.6,3.18c-.28.88-.58,1.74-.94,2.59.3-.71-.27.59-.27.59-.2.41-.4.83-.62,1.23a35.6,35.6,0,0,1-2.91,4.66c-.53.72.22-.22-.42.52-.3.35-.59.7-.89,1-.56.63-1.15,1.24-1.75,1.82s-1.34,1.25-2.05,1.83l-.53.44c.25-.2.26-.21,0,0s-.75.54-1.13.79a28.65,28.65,0,0,1-9.92,4.42c-1,.24-1.94.43-2.92.59a2.41,2.41,0,0,1-.76.1l-1.48.12a35.84,35.84,0,0,1-6-.18c-2.38-.26-4.66,2.29-4.56,4.56.12,2.69,2,4.27,4.56,4.55Z"/><path class="cls-4" d="M515.44,7.05a58.28,58.28,0,0,0-1.66,6.81c-.12.6-.21,1.18-.32,1.79,0,.14,0,.26-.05.34v0s0,0,0,0v0s0,.09,0,.15c-.12,1.11-.22,2.23-.29,3.36a58.33,58.33,0,0,0,0,6.87c-2.42,1.1-4.82,2.33-7.18,3.69-1.17.68-2.32,1.38-3.45,2.12a67,67,0,0,1,2.21-28.21A5.71,5.71,0,0,1,511.54.16,5.66,5.66,0,0,1,515.44,7.05Z"/><path class="cls-4" d="M535.59,10.21a28.31,28.31,0,0,0-1.47,2.91h0a30.44,30.44,0,0,0-1.6,5.71c0,.06,0,.13,0,.18-.06.51-.09,1-.12,1.55a75,75,0,0,0-11.22,2.77,35.39,35.39,0,0,1,4.77-18.77,5.7,5.7,0,0,1,7.67-2A5.69,5.69,0,0,1,535.59,10.21Z"/><path class="cls-4" d="M494.83,37.88a74.4,74.4,0,0,0-8.51,8.33,86.68,86.68,0,0,1-7.65-28.4c-.3-3.13,2.81-5.49,5.61-5.6,3.21-.14,5.31,2.68,5.58,5.6.07.69.15,1.41.23,2.1,0,.09,0,.2,0,.25v0a1.19,1.19,0,0,1,.06.31c.2,1.23.39,2.45.65,3.66a72.7,72.7,0,0,0,1.74,7.17C493.21,33.55,494,35.73,494.83,37.88Z"/><polygon class="cls-1" points="300.9 48.11 291.85 31.49 323.44 31.49 314.62 48.11 300.9 48.11"/><rect class="cls-1" y="218.16" width="252.25" height="6.35"/><path class="cls-1" d="M374.07,200.48c6.95,0,10.37,3.85,10.37,10.94v22.39c0,7.08-3.42,10.94-10.37,10.94h-11V200.48ZM370,238.42h3.92c2.21,0,3.54-1.13,3.54-4.3v-23c0-3.16-1.33-4.3-3.54-4.3H370Z"/><path class="cls-1" d="M418.15,200.48v44.27h-7V200.48Z"/><path class="cls-1" d="M454.9,200c6.77,0,10.24,4.05,10.24,11.13v1.39h-6.57v-1.83c0-3.16-1.27-4.37-3.48-4.37s-3.48,1.21-3.48,4.37c0,9.11,13.6,10.81,13.6,23.46,0,7.09-3.54,11.13-10.38,11.13s-10.37-4-10.37-11.13V231.4H451v3.17c0,3.16,1.39,4.3,3.61,4.3s3.6-1.14,3.6-4.3c0-9.11-13.6-10.82-13.6-23.47C444.65,204,448.13,200,454.9,200Z"/><path class="cls-1" d="M511.69,234.12c0,7.09-3.54,11.13-10.37,11.13s-10.37-4-10.37-11.13v-23C491,204,494.49,200,501.32,200s10.37,4.05,10.37,11.13v4.3h-6.57v-4.74c0-3.16-1.39-4.37-3.61-4.37s-3.6,1.21-3.6,4.37v23.91c0,3.16,1.39,4.3,3.6,4.3s3.61-1.14,3.61-4.3v-6.33h6.57Z"/><path class="cls-1" d="M548.25,200c6.83,0,10.57,4.05,10.57,11.13v23c0,7.09-3.74,11.13-10.57,11.13s-10.56-4-10.56-11.13v-23C537.69,204,541.42,200,548.25,200Zm0,39c2.22,0,3.61-1.2,3.61-4.36V210.66c0-3.16-1.39-4.37-3.61-4.37s-3.6,1.21-3.6,4.37v23.91C544.65,237.73,546,238.93,548.25,238.93Z"/><path class="cls-1" d="M606.44,210.66v1.58c0,4.55-1.39,7.46-4.49,8.92,3.73,1.45,5.19,4.8,5.19,9.48v3.61c0,6.83-3.61,10.5-10.56,10.5h-11V200.48h10.5C603.34,200.48,606.44,203.83,606.44,210.66Zm-13.85,7.84h2.72c2.59,0,4.17-1.14,4.17-4.68v-2.47c0-3.16-1.07-4.55-3.54-4.55h-3.35Zm0,19.92h4c2.34,0,3.6-1.07,3.6-4.36V230.2c0-4.11-1.33-5.37-4.49-5.37h-3.1Z"/><path class="cls-1" d="M649.14,244.75l-1.21-8H639.4l-1.21,8h-6.38l7.08-44.27h10.18l7.09,44.27Zm-2.16-14-3.35-22.39-3.35,22.39Z"/><path class="cls-1" d="M695.62,239.31v-7c0-4.11-1.39-5.63-4.55-5.63h-2.4v18h-7V200.48h10.5c7.21,0,10.31,3.35,10.31,10.18v3.48c0,4.55-1.46,7.52-4.56,9,3.48,1.45,4.62,4.8,4.62,9.42v6.83a13,13,0,0,0,.76,5.38h-7.08C695.88,243.61,695.62,242.91,695.62,239.31Zm-7-18.91h2.72c2.59,0,4.17-1.14,4.17-4.68v-4.37c0-3.16-1.08-4.55-3.54-4.55h-3.35Z"/></g></g></svg>