<?xml version="1.0" encoding="utf-8"?>
<!-- Generator: Adobe Illustrator 25.4.1, SVG Export Plug-In . SVG Version: 6.00 Build 0)  -->
<svg version="1.1" id="Capa_1" xmlns="http://www.w3.org/2000/svg" xmlns:xlink="http://www.w3.org/1999/xlink" x="0px" y="0px"
	 viewBox="0 0 4623.5 852.7" style="enable-background:new 0 0 4623.5 852.7;" xml:space="preserve">
<style type="text/css">
	.st0{fill:#C93080;}
	.st1{fill:#FFFFFF;}
</style>
<g id="Capa_2_00000142142373372327713420000005875914481198328463_">
	<g id="Capa_1-2">
		<path class="st0" d="M722.8,176.3h1475.4c72.8,0,131.8,59,131.8,131.8l0,0c0,72.8-59,131.8-131.8,131.8H722.8
			c-72.8,0-131.8-59-131.8-131.8l0,0C591,235.3,650,176.3,722.8,176.3z"/>
		<path class="st1" d="M778.6,297.3v-32.4h21.6v32.4h32.3v21.6h-32.3v32.3h-21.6v-32.3h-32.3v-21.6H778.6z"/>
		<path class="st1" d="M872.1,244.6h59.5v22.4h-41.5L885,290c1.4-0.4,2.8-0.7,4.2-0.9c1.3-0.2,2.7-0.3,4-0.3
			c11.5,0,21.1,3.9,28.7,11.8c7.6,7.9,11.4,17.9,11.5,30.2c0,12.4-4.2,22.8-12.7,31.3c-8.1,8.3-19.2,12.9-30.8,12.7
			c-10.8,0-20.1-3.1-27.9-9.2c-7.8-6.2-12.9-14.6-15.3-25.3h25.4c1.7,3.7,4.4,6.8,7.7,9c3.2,2,6.8,3.1,10.6,3.1
			c5.2,0.1,10.1-2,13.7-5.8c3.8-3.9,5.6-8.8,5.6-14.9c0-5.9-1.7-10.7-5.2-14.5c-3.2-3.6-7.8-5.7-12.6-5.7c-2.7,0-5.4,0.7-7.8,2
			c-2.8,1.5-5.4,3.6-7.6,6l-19.7-4.4L872.1,244.6z"/>
		<path class="st1" d="M952.3,244.6h83.4v12.7l-57.4,117.6l-20.4-9.9l47.7-97.7h-53.3V244.6z"/>
		<path class="st1" d="M1123.9,275.9h-23.2c1.2-9.4,4.6-16.9,10.1-22.6c7.7-7.9,17.4-11.9,29.1-11.9c10.4,0,19.2,3.3,26.2,9.9
			c7.1,6.6,10.6,14.5,10.6,23.6c0,5.5-1.6,10.9-4.6,15.5c-3.4,4.9-8,8.8-13.4,11.3c7.7,2.3,13.8,6.3,18.1,12.1
			c4.4,5.8,6.7,13,6.5,20.3c0.2,11-4.4,21.6-12.6,29c-8.4,7.9-19.1,11.9-32.1,11.9c-12.3,0-22.4-3.7-30.2-11.2
			c-7.8-7.5-12-17.6-12.8-30.4h23.9c1,6.6,3.3,11.4,6.9,14.6c8,6.6,19.8,6.4,27.5-0.6c3.6-3.5,5.7-8.3,5.6-13.3
			c0-5.8-2.5-10.6-7.5-14.6c-5-4-12.2-6-21.7-6.1v-20.7c5.8-0.5,10.1-1.4,13-2.7c2.7-1.2,5-3.1,6.7-5.6c1.5-2.2,2.4-4.8,2.4-7.5
			c0.1-3.3-1.2-6.4-3.6-8.6c-2.6-2.3-6-3.6-9.5-3.4c-3.4,0-6.7,1.1-9.4,3.1C1126.9,269.8,1124.8,272.6,1123.9,275.9z"/>
		<path class="st1" d="M1218.9,244.6h59.5v22.4h-41.5l-5.2,23.1c1.4-0.4,2.8-0.7,4.2-0.9c1.3-0.2,2.7-0.3,4-0.3
			c11.5,0,21.1,3.9,28.7,11.8s11.4,17.9,11.4,30.2c0,12.4-4.2,22.8-12.7,31.3c-8.1,8.3-19.2,12.9-30.8,12.7
			c-10.8,0-20.1-3.1-27.9-9.2s-12.9-14.6-15.3-25.3h25.4c1.7,3.7,4.4,6.8,7.7,9c3.2,2,6.8,3.1,10.6,3.1c5.2,0.1,10.1-2,13.7-5.8
			c3.7-3.9,5.6-8.8,5.6-14.9c0-5.9-1.7-10.7-5.2-14.5c-5.1-5.8-13.6-7.3-20.5-3.7c-2.8,1.6-5.4,3.6-7.6,6l-19.7-4.4L1218.9,244.6z"
			/>
		<path class="st1" d="M1337.6,241.4c9.3,0,17.3,2.3,24,6.8c6.7,4.6,11.9,11.5,15.6,20.9c3.7,9.3,5.5,22.4,5.5,39.1
			c0,16.9-1.9,30-5.6,39.4c-3.7,9.4-8.7,16.3-15.1,20.7c-6.3,4.4-14.2,6.6-23.8,6.6c-9.6,0-17.6-2.2-24.1-6.6
			c-6.5-4.4-11.6-11.2-15.3-20.2c-3.7-9-5.5-21.9-5.5-38.6c0-23.3,3.6-40.2,10.8-50.7C1312.2,247.1,1323.3,241.4,1337.6,241.4z
			 M1338.2,264.4c-4,0-7.8,1.3-10.9,3.9c-3.2,2.6-5.6,7.1-7.2,13.5c-1.7,6.4-2.5,15.8-2.5,28.1c0,16.1,1.9,27.2,5.7,33.3
			c3.8,6.1,8.8,9.2,14.9,9.2c5.9,0,10.5-2.9,14-8.7c4.2-7,6.3-18.8,6.3-35.2c0-16.7-1.9-28.2-5.7-34.6S1344.1,264.3,1338.2,264.4
			L1338.2,264.4z"/>
		<path class="st1" d="M1466.6,244.6h59.5v22.4h-41.5l-5.2,23.1c1.4-0.4,2.8-0.7,4.2-0.9c1.3-0.2,2.7-0.3,4-0.3
			c11.5,0,21.1,3.9,28.7,11.8c7.6,7.9,11.5,17.9,11.5,30.2c0,12.4-4.2,22.8-12.7,31.3c-8.1,8.3-19.2,12.9-30.8,12.7
			c-10.8,0-20.1-3.1-27.9-9.2c-7.8-6.2-12.9-14.6-15.3-25.3h25.4c1.7,3.7,4.4,6.8,7.7,9c3.2,2,6.8,3.1,10.6,3.1
			c5.2,0.1,10.1-2,13.7-5.8c3.7-3.9,5.6-8.8,5.6-14.9c0-5.9-1.7-10.7-5.2-14.5c-3.2-3.6-7.8-5.7-12.7-5.7c-2.7,0-5.4,0.7-7.8,2
			c-2.8,1.6-5.4,3.6-7.6,6l-19.7-4.4L1466.6,244.6z"/>
		<path class="st1" d="M1611.7,302.7c5.6,3.5,10.2,8.4,13.3,14.2c3.1,5.8,4.7,12.2,4.7,18.8c0,7.1-1.8,14.2-5.5,20.3
			c-3.4,6-8.6,10.9-14.7,14.1c-6.2,3.1-14,4.7-23.6,4.7c-10.2,0-18.4-1.5-24.4-4.5c-6.1-3.1-11.1-7.8-14.5-13.8
			c-3.7-6.3-5.6-13.5-5.4-20.8c-0.1-6.4,1.4-12.6,4.4-18.3c3.2-5.8,7.7-10.9,13.1-14.7c-3.6-3.5-6.5-7.7-8.6-12.3
			c-1.9-4.3-2.9-9-2.9-13.8c-0.1-6.4,1.6-12.6,4.8-18.1c3.2-5.4,7.8-9.8,13.4-12.7c6.2-3.1,13.1-4.7,20-4.5
			c6.8-0.1,13.6,1.4,19.6,4.6c5.6,3,10.2,7.5,13.3,13c3.2,5.5,4.9,11.7,4.9,18.1c0,4.3-0.8,8.7-2.6,12.6
			C1619.3,293.5,1616.2,297.9,1611.7,302.7z M1585.9,315.7c-5.4-0.2-10.6,1.7-14.7,5.3c-3.8,3.1-6,7.8-6,12.7c-0.1,4.9,2,9.7,5.6,13
			c3.8,3.5,8.7,5.3,14.8,5.3c6.1,0,11-1.7,14.7-5c3.6-3.3,5.6-8,5.5-12.8c0.1-5-2-9.8-5.7-13.2
			C1596.2,317.4,1591.1,315.5,1585.9,315.7L1585.9,315.7z M1584.9,264.7c-3.7-0.1-7.2,1.3-9.8,3.9c-2.6,2.7-4,6.3-3.8,10
			c-0.1,3.8,1.4,7.5,4.1,10.2c5.6,5.5,14.5,5.5,20.1,0.1c2.7-2.8,4.1-6.6,3.9-10.5c0.1-3.8-1.3-7.4-4-10
			C1592.5,265.8,1588.8,264.5,1584.9,264.7L1584.9,264.7z"/>
		<path class="st1" d="M1683,374.8l-20.6-10.2l22.3-43.3c-10.4,0.2-20.4-4-27.5-11.6c-7.6-7.7-11.3-17.3-11.3-28.7
			c-0.1-21.8,17.5-39.6,39.3-39.7c0.1,0,0.2,0,0.4,0c11.5,0,21,4,28.6,12c7.6,8,11.4,17.2,11.4,27.5c0,4-0.6,8-1.8,11.8
			c-1.2,3.9-3.9,10-8.2,18.2L1683,374.8z M1686,298.5c4.3,0.1,8.4-1.7,11.3-4.9c6.2-7,6.1-17.6-0.2-24.6c-2.9-3.2-6.9-5-11.2-5
			c-4.4,0-8.6,1.8-11.6,5c-6.4,6.9-6.4,17.6-0.1,24.6C1677.3,296.8,1681.6,298.6,1686,298.5z"/>
		<path class="st1" d="M1813.4,244.6h59.5v22.4h-41.5l-5.2,23.1c1.4-0.4,2.8-0.7,4.2-0.9c1.3-0.2,2.7-0.3,4-0.3
			c11.5,0,21.1,3.9,28.7,11.8s11.4,17.9,11.4,30.2c0,12.4-4.2,22.8-12.7,31.3c-8.1,8.3-19.2,12.9-30.8,12.7
			c-10.8,0-20.1-3.1-27.9-9.2c-7.8-6.2-12.9-14.6-15.3-25.3h25.4c1.7,3.7,4.4,6.8,7.7,9c3.2,2,6.8,3.1,10.6,3.1
			c5.2,0.1,10.1-2,13.7-5.8c3.7-3.9,5.6-8.8,5.6-14.9c0-5.9-1.7-10.7-5.2-14.5c-5.1-5.8-13.6-7.3-20.5-3.7c-2.8,1.6-5.4,3.6-7.6,6
			l-19.7-4.4L1813.4,244.6z"/>
		<path class="st1" d="M1912.5,244.6h59.6v22.4h-41.5l-5.2,23.1c1.4-0.4,2.8-0.7,4.2-0.9c1.3-0.2,2.7-0.3,4-0.3
			c11.5,0,21.1,3.9,28.7,11.8c7.6,7.9,11.5,17.9,11.4,30.2c0,12.4-4.2,22.8-12.7,31.3c-8.1,8.3-19.2,12.9-30.8,12.7
			c-10.8,0-20.1-3.1-27.9-9.2c-7.8-6.2-12.9-14.6-15.3-25.3h25.4c1.7,3.7,4.4,6.8,7.7,9c3.2,2,6.8,3.1,10.6,3.1
			c5.2,0.1,10.1-2,13.7-5.8c3.7-3.9,5.6-8.8,5.6-14.9c0-5.9-1.7-10.7-5.2-14.5c-3.2-3.6-7.8-5.7-12.7-5.7c-2.7,0-5.4,0.7-7.8,2
			c-2.8,1.6-5.4,3.6-7.6,6l-19.7-4.4L1912.5,244.6z"/>
		<path class="st1" d="M1992.6,244.6h83.4v12.7l-57.4,117.6l-20.4-9.9l47.7-97.7h-53.3L1992.6,244.6z"/>
		<path class="st1" d="M2156.7,302.7c11.3,7.1,18.2,19.6,18.1,33c0,7.1-1.8,14.2-5.5,20.3c-3.4,6-8.6,10.9-14.7,14.1
			c-6.2,3.1-14,4.7-23.6,4.7c-10.3,0-18.4-1.5-24.4-4.5c-6.1-3.1-11.1-7.8-14.5-13.7c-3.7-6.3-5.6-13.5-5.4-20.8
			c-0.1-6.4,1.4-12.6,4.4-18.3c3.2-5.8,7.7-10.9,13.1-14.7c-3.6-3.5-6.5-7.7-8.6-12.3c-1.9-4.3-2.9-9-2.9-13.8
			c-0.1-6.4,1.6-12.6,4.8-18.1c3.2-5.4,7.8-9.8,13.4-12.7c6.2-3.1,13.1-4.7,20-4.5c6.8-0.1,13.6,1.4,19.6,4.6
			c5.6,3,10.2,7.5,13.4,13c3.2,5.5,4.9,11.7,4.9,18.1c0,4.3-0.8,8.7-2.6,12.6C2164.3,293.5,2161.2,297.9,2156.7,302.7z
			 M2130.9,315.7c-5.4-0.2-10.6,1.7-14.7,5.3c-3.8,3.1-6,7.8-6,12.7c-0.1,4.9,2,9.7,5.6,13c3.7,3.5,8.7,5.3,14.8,5.3
			c6.1,0,11-1.7,14.7-5c3.6-3.3,5.6-8,5.5-12.8c0.1-5-2-9.8-5.7-13.2C2141.2,317.4,2136.1,315.5,2130.9,315.7z M2129.9,264.7
			c-3.7-0.1-7.2,1.3-9.8,3.9c-2.6,2.7-4,6.3-3.8,10c-0.1,3.8,1.4,7.5,4.1,10.2c5.6,5.5,14.5,5.5,20.1,0.1c2.7-2.8,4.1-6.6,3.9-10.5
			c0.1-3.8-1.3-7.4-4-10C2137.5,265.8,2133.7,264.5,2129.9,264.7L2129.9,264.7z"/>
		<path class="st1" d="M984.2,595.9c0-41.9-34-75.8-75.8-75.8s-75.8,34-75.8,75.8c0,37.3,27.2,69.1,64,74.9v-53h-19.4v-21.9h19.4
			v-16.7c0-19,11.3-29.5,28.6-29.5c5.7,0.1,11.3,0.6,16.9,1.6v18.5h-9.5c-9.4,0-12.4,5.9-12.4,11.9V596h21.1l-3.4,21.9h-17.7v53
			C957,665.1,984.2,633.3,984.2,595.9z"/>
		<path class="st1" d="M723.4,537.3c19.6,0,21.9,0.1,29.7,0.4c7.2,0.3,11,1.5,13.6,2.5c6.4,2.5,11.5,7.5,13.9,13.9
			c1,2.6,2.2,6.5,2.5,13.6c0.3,7.7,0.4,10.1,0.4,29.7c0,19.6-0.1,21.9-0.4,29.7c-0.3,7.2-1.5,11-2.5,13.6
			c-2.5,6.4-7.5,11.5-13.9,13.9c-2.6,1-6.5,2.2-13.6,2.5c-7.7,0.4-10.1,0.4-29.7,0.4s-21.9-0.1-29.7-0.4c-7.2-0.3-11-1.5-13.6-2.5
			c-3.2-1.2-6.1-3-8.4-5.5c-2.4-2.4-4.3-5.3-5.5-8.4c-1-2.6-2.2-6.5-2.5-13.6c-0.4-7.7-0.4-10.1-0.4-29.7c0-19.6,0.1-21.9,0.4-29.7
			c0.3-7.2,1.5-11,2.5-13.6c1.2-3.2,3.1-6.1,5.5-8.4c2.4-2.4,5.2-4.3,8.4-5.5c2.6-1,6.5-2.2,13.6-2.5
			C701.5,537.3,703.8,537.3,723.4,537.3 M723.4,524c-19.9,0-22.4,0.1-30.3,0.4c-6.1,0.1-12.1,1.3-17.8,3.4
			c-9.9,3.8-17.7,11.6-21.5,21.5c-2.1,5.7-3.3,11.7-3.4,17.8c-0.4,7.8-0.4,10.3-0.4,30.3s0.1,22.4,0.4,30.3
			c0.1,6.1,1.3,12.1,3.4,17.8c3.8,9.9,11.6,17.7,21.5,21.5c5.7,2.1,11.7,3.3,17.8,3.4c7.8,0.4,10.3,0.4,30.3,0.4s22.4-0.1,30.3-0.4
			c6.1-0.1,12.1-1.3,17.8-3.4c9.9-3.8,17.7-11.6,21.5-21.5c2.1-5.7,3.3-11.7,3.4-17.8c0.3-7.8,0.4-10.3,0.4-30.3s-0.1-22.4-0.4-30.3
			c-0.1-6.1-1.3-12.1-3.4-17.8c-3.8-9.9-11.6-17.7-21.5-21.5c-5.7-2.1-11.7-3.3-17.8-3.4C745.9,524.1,743.4,524,723.4,524L723.4,524
			z"/>
		<path class="st1" d="M723.4,559.7c-20.8,0-37.7,16.9-37.7,37.7c0,20.8,16.9,37.7,37.7,37.7c20.8,0,37.7-16.9,37.7-37.7
			c0,0,0,0,0,0C761.1,576.6,744.2,559.7,723.4,559.7C723.4,559.7,723.4,559.7,723.4,559.7z M723.4,621.9c-13.5,0-24.5-11-24.5-24.5
			c0-13.5,11-24.5,24.5-24.5c13.5,0,24.5,11,24.5,24.5c0,0,0,0,0,0C747.9,610.9,736.9,621.9,723.4,621.9
			C723.4,621.9,723.4,621.9,723.4,621.9z"/>
		<circle class="st1" cx="762.6" cy="558.2" r="8.8"/>
		<path class="st1" d="M1180.4,638.5h12.9c-4.9,6.1-9.2,10.5-13,13.2c-4,2.9-8.5,5.1-13.2,6.5c-5.1,1.6-10.4,2.4-15.7,2.4
			c-9.4,0.1-18.6-2.4-26.8-7c-8.1-4.5-14.7-11.2-19.3-19.2c-4.6-8-7.1-17.2-7-26.4c-0.1-9.4,2.3-18.7,7-26.8
			c4.5-8.1,11.2-14.7,19.2-19.3c8.1-4.6,17.4-7,26.7-6.9c13.5,0,24.9,4.3,34.1,13c9.3,8.7,13.9,18.8,13.9,30.4
			c0,8.5-1.9,15.7-5.8,21.8c-3.9,6.1-9.4,11.1-15.9,14.3c-5.1,2.6-9.4,3.9-12.9,3.9c-2.3,0.1-4.5-0.6-6.3-2.1c-1.2-1-1.9-2.7-2-5.1
			c-3.6,4.2-8.8,6.6-14.4,6.5c-6,0.1-11.9-2.3-15.9-6.8c-4.2-4.6-6.4-10.6-6.4-18.2c-0.1-8.1,2.7-16,7.8-22.3
			c5.2-6.6,12.1-9.8,20.8-9.8c3.3-0.1,6.6,0.7,9.5,2.2c2.9,1.6,5.4,3.8,7.1,6.6l1.4-7.1h13.2l-6.7,39.4c-0.5,2.8-0.7,4.4-0.7,4.7
			c0,0.5,0.3,1.1,0.7,1.4c0.4,0.4,1,0.6,1.7,0.6c1.6,0,3.7-1.1,6.4-3.3c2.9-2.6,5.2-5.8,6.5-9.5c1.7-4.3,2.6-8.9,2.6-13.5
			c0.1-6.7-1.5-13.4-4.8-19.3c-3.2-5.6-8-10.2-13.7-13.2c-6.3-3.3-13.4-4.9-20.5-4.8c-7.7-0.1-15.2,1.8-21.9,5.5
			c-6.4,3.6-11.7,8.9-15.3,15.4c-7.5,13.7-7.4,30.3,0.1,44c3.7,6.6,9.2,11.9,15.8,15.5c7,3.7,14.8,5.6,22.8,5.5
			c4.8,0,9.6-0.9,14-2.8C1171.5,645.5,1176.3,642.3,1180.4,638.5z M1147.4,623.4c3.8,0,7.4-1.8,9.7-4.8c2.5-3.1,3.9-7,3.9-10.9
			c0.1-3.2-1-6.3-3.1-8.6c-2-2.2-4.9-3.4-7.8-3.3c-3.7,0-7.3,1.7-9.6,4.6c-2.8,3-4.2,7-4.1,11.1c-0.2,3.2,1,6.4,3.1,8.8
			C1141.4,622.3,1144.4,623.5,1147.4,623.4z"/>
		<path class="st1" d="M1207,557.1h18.4v101.6H1207V557.1z"/>
		<path class="st1" d="M1296.2,585.4h18.4v73.3h-18.4v-7.8c-3.1,3.1-6.8,5.6-10.8,7.4c-3.7,1.5-7.7,2.3-11.8,2.3
			c-9.5,0-17.6-3.7-24.6-11c-6.9-7.3-10.4-16.5-10.4-27.4c0-11.3,3.3-20.6,10-27.8c6.7-7.2,14.8-10.8,24.4-10.9
			c4.3,0,8.5,0.8,12.4,2.5c4,1.8,7.7,4.3,10.7,7.5L1296.2,585.4z M1276.9,600.5c-5.4-0.1-10.5,2-14.2,6c-3.8,4-5.6,9.2-5.6,15.5
			s1.9,11.5,5.7,15.6c3.6,4,8.8,6.3,14.2,6.2c5.4,0.2,10.7-2,14.4-6c3.8-4,5.7-9.3,5.7-15.8c0-6.4-1.9-11.5-5.7-15.5
			C1287.6,602.5,1282.3,600.3,1276.9,600.5L1276.9,600.5z"/>
		<path class="st1" d="M1335.4,558.3h18.4v27h10.9v15.8h-10.9v57.5h-18.4v-57.5h-9.4v-15.8h9.4V558.3z"/>
		<path class="st1" d="M1381.8,555.2c3.1,0,6.1,1.2,8.3,3.5c2.3,2.2,3.5,5.3,3.5,8.5c0.1,3.1-1.2,6.2-3.4,8.4
			c-2.1,2.3-5.1,3.5-8.2,3.5c-3.2,0-6.2-1.2-8.4-3.5c-2.3-2.3-3.5-5.4-3.5-8.6C1370.1,560.4,1375.3,555.2,1381.8,555.2z
			 M1372.6,585.4h18.4v73.3h-18.4V585.4z"/>
		<path class="st1" d="M1407.7,585.4h18.4v7.5c3.4-3,7.2-5.5,11.3-7.3c3.3-1.4,6.8-2.1,10.4-2.1c7-0.1,13.7,2.6,18.5,7.6
			c4.3,4.3,6.4,10.7,6.4,19.1v48.5h-18.2v-32.1c0-8.7-0.4-14.6-1.2-17.4c-0.6-2.6-2-4.9-4.1-6.6c-2.1-1.5-4.6-2.3-7.2-2.2
			c-3.6-0.1-7,1.3-9.6,3.7c-2.8,2.8-4.8,6.4-5.6,10.3c-0.5,2.3-0.8,7.3-0.8,14.9v29.4h-18.4L1407.7,585.4z"/>
		<path class="st1" d="M1524.9,583.5c6.8,0,13.6,1.8,19.5,5.2c12,6.8,19.4,19.5,19.4,33.3c0,6.8-1.8,13.5-5.2,19.4
			c-3.3,5.9-8.1,10.8-14,14.1c-6,3.4-12.8,5.2-19.6,5.1c-10.1,0.2-19.9-3.9-26.9-11.2c-15.1-15.3-14.9-39.9,0.4-54.9
			c0.3-0.3,0.7-0.6,1-1C1506.4,587,1515.5,583.4,1524.9,583.5z M1525.2,600.8c-5.4-0.1-10.6,2.1-14.3,6c-3.8,4-5.7,9.1-5.7,15.3
			c0,6.4,1.9,11.5,5.6,15.5c3.7,3.9,8.9,6.1,14.3,5.9c5.4,0.1,10.7-2,14.4-6c3.8-4,5.7-9.1,5.7-15.4c0-6.3-1.9-11.4-5.6-15.3
			C1535.9,602.8,1530.7,600.6,1525.2,600.8z"/>
		<path class="st1" d="M1623.7,595.6l-11.4,11.4c-4.6-4.6-8.8-6.9-12.6-6.9c-1.7-0.1-3.4,0.4-4.8,1.3c-1.1,0.7-1.8,2-1.8,3.3
			c0,1,0.4,2,1.1,2.7c0.7,0.8,2.6,2,5.5,3.4l6.7,3.4c7.1,3.5,12,7.1,14.6,10.7c6.3,9.1,5,21.6-3.2,29.1c-4.8,4.4-11.2,6.5-19.2,6.5
			c-10.7,0-19.2-4.2-25.6-12.5l11.3-12.3c2.1,2.5,4.7,4.6,7.6,6.1c2.3,1.4,5,2.2,7.7,2.3c2.1,0.1,4.2-0.5,5.9-1.8
			c1.3-0.9,2.2-2.4,2.2-4c0-2.8-2.7-5.6-8-8.3l-6.2-3.1c-11.9-6-17.8-13.5-17.8-22.4c0-5.7,2.4-11.1,6.7-14.9
			c4.5-4.1,10.2-6.2,17.2-6.2C1609.1,583.5,1618.1,588,1623.7,595.6L1623.7,595.6z"/>
		<path class="st1" d="M1649.6,639.5c2.8,0,5.5,1.1,7.5,3.1c4.1,4.1,4.1,10.8,0,15c-4.1,4.1-10.8,4.1-15,0c-4.1-4.1-4.1-10.8,0-14.9
			C1644,640.5,1646.8,639.4,1649.6,639.5z"/>
		<path class="st1" d="M1732.3,557.1h18.4v101.6h-18.4v-7.8c-3.1,3.1-6.8,5.6-10.8,7.4c-3.7,1.5-7.7,2.3-11.7,2.3
			c-9.5,0-17.7-3.7-24.6-11c-6.9-7.3-10.4-16.5-10.4-27.4c0-11.3,3.3-20.6,10-27.8c6.1-7,15-11,24.4-10.9c4.3,0,8.5,0.8,12.4,2.5
			c4,1.8,7.7,4.3,10.7,7.5L1732.3,557.1z M1712.9,600.5c-5.4-0.1-10.5,2-14.2,6c-3.8,4-5.6,9.2-5.6,15.5s1.9,11.5,5.7,15.6
			c3.6,4,8.8,6.2,14.1,6.1c5.4,0.1,10.7-2,14.4-6c3.8-4,5.7-9.3,5.7-15.8c0-6.4-1.9-11.5-5.7-15.5
			C1723.6,602.5,1718.4,600.3,1712.9,600.5z"/>
		<path class="st1" d="M1776.4,555.2c3.1,0,6.1,1.2,8.3,3.5c2.3,2.2,3.5,5.3,3.5,8.5c0.1,3.1-1.2,6.2-3.4,8.4
			c-2.1,2.2-5.1,3.5-8.2,3.5c-3.2,0-6.2-1.2-8.4-3.5c-2.3-2.3-3.5-5.4-3.5-8.6C1764.7,560.4,1770,555.2,1776.4,555.2z M1767.2,585.4
			h18.4v73.3h-18.4V585.4z"/>
		<path class="st1" d="M1847.2,595.6l-11.4,11.4c-4.6-4.6-8.8-6.9-12.6-6.9c-1.7-0.1-3.4,0.4-4.8,1.3c-1.1,0.7-1.8,2-1.8,3.3
			c0,1,0.4,2,1.1,2.7c0.7,0.8,2.6,2,5.5,3.4l6.7,3.4c7.1,3.5,12,7.1,14.6,10.7c6.3,9.1,5,21.6-3.2,29.1c-4.8,4.4-11.2,6.5-19.2,6.5
			c-10.7,0-19.2-4.2-25.6-12.5l11.3-12.3c2.1,2.5,4.7,4.6,7.6,6.1c2.3,1.4,5,2.2,7.7,2.3c2.1,0.1,4.2-0.5,5.9-1.8
			c1.3-0.9,2.2-2.4,2.2-4c0-2.8-2.7-5.6-8-8.3l-6.2-3.1c-11.9-6-17.8-13.5-17.8-22.4c0-5.7,2.4-11.1,6.7-14.9
			c4.5-4.1,10.2-6.2,17.2-6.2C1832.6,583.5,1841.6,588,1847.2,595.6L1847.2,595.6z"/>
		<path class="st1" d="M1934.8,600.2l-15.3,8.4c-2.4-2.6-5.3-4.8-8.5-6.3c-3.1-1.2-6.5-1.8-9.9-1.8c-6.9,0-12.4,2-16.7,6.2
			c-4.3,4.1-6.6,9.9-6.4,15.8c0,6.2,2,11.3,6.1,15.3s9.5,5.9,16.1,5.9c8.2,0,14.6-2.8,19.2-8.4l14.5,10c-7.9,10.2-19,15.3-33.3,15.3
			c-12.9,0-23-3.8-30.3-11.5c-14.8-14.9-14.7-39.1,0.2-53.9c2.7-2.6,5.7-4.9,9-6.6c6.6-3.5,13.9-5.2,21.3-5.1
			c6.8-0.1,13.5,1.4,19.6,4.4C1926.3,590.7,1931.2,594.9,1934.8,600.2z"/>
		<path class="st1" d="M1985.8,583.5c6.8,0,13.6,1.8,19.5,5.2c12,6.8,19.4,19.5,19.4,33.3c0,6.8-1.8,13.5-5.2,19.4
			c-3.3,5.9-8.1,10.8-14,14.1c-6,3.4-12.7,5.2-19.6,5.1c-10.1,0.2-19.9-3.9-26.9-11.2c-15-15.3-14.8-39.9,0.5-55
			c0.3-0.3,0.6-0.6,1-0.9C1967.3,587,1976.4,583.4,1985.8,583.5z M1986.1,600.8c-5.4-0.1-10.6,2.1-14.3,6c-3.8,4-5.7,9.1-5.7,15.3
			c0,6.4,1.9,11.5,5.6,15.5c3.7,3.9,8.9,6.1,14.3,5.9c5.4,0.1,10.7-2,14.4-6c3.8-4,5.7-9.1,5.7-15.4c0-6.3-1.9-11.4-5.6-15.3
			C1996.8,602.8,1991.6,600.6,1986.1,600.8z"/>
		<path class="st1" d="M2058,557.1v36.4c3.1-3.2,6.8-5.7,10.8-7.5c3.9-1.7,8.1-2.5,12.4-2.5c9.6,0,17.7,3.6,24.4,10.8
			c6.7,7.2,10,16.5,10,27.8c0,10.9-3.5,20-10.4,27.4c-6.9,7.3-15.1,11-24.6,11c-4,0-8-0.7-11.8-2.3c-4-1.8-7.7-4.3-10.8-7.4v7.8
			h-18.3V557.1H2058z M2077.3,600.5c-5.4-0.1-10.7,2-14.4,5.9c-3.8,3.9-5.7,9.1-5.7,15.5c0,6.5,1.9,11.8,5.7,15.8
			c3.7,4,9,6.2,14.4,6c5.4,0.1,10.6-2.1,14.2-6.1c3.8-4.1,5.8-9.3,5.8-15.6c0-6.3-1.9-11.5-5.7-15.5
			C2088,602.5,2082.7,600.3,2077.3,600.5L2077.3,600.5z"/>
		<path class="st1" d="M2184.9,585.4h18.4v73.3h-18.4v-7.8c-3.1,3.1-6.8,5.6-10.8,7.4c-3.7,1.5-7.7,2.3-11.7,2.3
			c-9.5,0-17.7-3.7-24.6-11c-6.9-7.3-10.4-16.5-10.4-27.4c0-11.3,3.3-20.6,10-27.8s14.8-10.8,24.4-10.9c4.3,0,8.5,0.8,12.4,2.5
			c4,1.8,7.7,4.3,10.7,7.5L2184.9,585.4z M2165.6,600.5c-5.4-0.1-10.5,2-14.2,6c-3.8,4-5.6,9.2-5.6,15.5s1.9,11.5,5.8,15.6
			c3.6,4,8.8,6.2,14.1,6.1c5.4,0.2,10.7-2,14.4-6c3.8-4,5.7-9.3,5.7-15.8c0-6.4-1.9-11.5-5.7-15.5
			C2176.3,602.4,2171,600.3,2165.6,600.5L2165.6,600.5z"/>
		<path class="st1" d="M2217.6,585.4h15.8v9.2c1.5-3.3,3.8-6.2,6.8-8.3c2.7-1.9,6-2.8,9.3-2.8c2.6,0.1,5.2,0.7,7.5,1.9l-5.7,15.8
			c-1.6-0.9-3.5-1.5-5.3-1.6c-2.8,0-5.2,1.8-7.2,5.2s-2.9,10.4-2.9,20.6l0.1,3.6v29.6h-18.3V585.4z"/>
		<path class="st1" d="M2747.1,296.4l46.2,99.1h-10.7l-15.6-32.6h-42.7l-15.4,32.6h-11.1l46.8-99.1L2747.1,296.4z M2745.8,317.4
			l-17,35.9h33.9L2745.8,317.4z"/>
		<path class="st1" d="M2800.1,322.2h10l24.6,53.5l24.3-53.5h10.1l-33.6,73.3h-1.8L2800.1,322.2z"/>
		<path class="st1" d="M2945.3,371.2l7.9,4.2c-2.2,4.6-5.3,8.8-9,12.4c-3.4,3.1-7.3,5.5-11.5,7.2c-4.6,1.7-9.6,2.5-14.5,2.5
			c-12,0-21.3-3.9-28.1-11.8c-6.6-7.3-10.2-16.8-10.1-26.6c-0.1-9,2.9-17.8,8.6-24.9c7.2-9.3,16.9-13.9,29.1-13.9
			c12.5,0,22.5,4.7,29.9,14.2c5.3,6.7,8,15,8.1,25.1h-66c0.2,8.5,2.9,15.5,8.2,20.9c5,5.4,12.1,8.3,19.5,8.2c3.7,0,7.4-0.7,10.9-2
			c3.3-1.2,6.3-2.9,9-5.2C2939.7,379.4,2942.4,375.9,2945.3,371.2z M2945.3,351.4c-1-4.4-2.8-8.5-5.5-12.1c-2.6-3.1-5.8-5.6-9.6-7.3
			c-3.9-1.8-8.2-2.8-12.5-2.8c-6.8-0.1-13.5,2.3-18.6,6.9c-3.8,3.4-6.6,8.4-8.6,15.2H2945.3z"/>
		<path class="st1" d="M2973.3,322.2h9.4v13.1c3.3-4.6,7.6-8.5,12.5-11.3c4.6-2.5,9.8-3.8,15-3.7c5.2-0.1,10.2,1.4,14.6,4.2
			c4.2,2.7,7.5,6.6,9.4,11.2c2,4.7,3,12.1,3,22v37.7h-9.4v-35c0-8.4-0.4-14.1-1.1-16.9c-1.1-4.9-3.2-8.5-6.3-11
			c-3.1-2.5-7.1-3.7-12.1-3.7c-5.6,0-11.1,2-15.3,5.7c-4.4,3.6-7.5,8.5-8.9,14c-0.9,3.6-1.4,10.3-1.4,19.9v26.9h-9.4V322.2z"/>
		<path class="st1" d="M3060.7,292c2.1,0,4.1,0.8,5.5,2.3c1.5,1.4,2.3,3.4,2.3,5.5c0,4.3-3.5,7.8-7.8,7.8s-7.8-3.5-7.8-7.8
			c0-2.1,0.8-4.1,2.3-5.5C3056.7,292.8,3058.6,292,3060.7,292z M3056,322.2h9.4v73.3h-9.4V322.2z"/>
		<path class="st1" d="M3158.2,293.9v101.6h-9.3v-12.6c-3.6,4.5-8.2,8.2-13.3,10.9c-14.4,6.9-31.6,3.8-42.7-7.6
			c-7.2-7.3-11.2-17.2-11-27.5c-0.2-10.2,3.9-20,11.1-27.1c7-7.3,16.6-11.4,26.7-11.3c5.7-0.1,11.3,1.2,16.3,3.8
			c5.1,2.8,9.5,6.7,12.8,11.5v-41.8H3158.2z M3120.5,329.4c-10.5-0.1-20.1,5.6-25.1,14.8c-5.3,9.2-5.3,20.4,0,29.6
			c2.5,4.6,6.2,8.4,10.7,11c4.3,2.6,9.3,4,14.4,3.9c5.1,0,10.2-1.3,14.7-3.9c4.5-2.4,8.2-6.1,10.7-10.5c2.5-4.6,3.8-9.8,3.7-15
			c0-8.5-2.8-15.6-8.4-21.3C3135.8,332.4,3128.3,329.2,3120.5,329.4z"/>
		<path class="st1" d="M3252.6,322.2v73.3h-9.3v-12.6c-3.6,4.5-8.2,8.2-13.3,10.9c-14.4,6.9-31.6,3.8-42.7-7.6
			c-7.2-7.3-11.2-17.2-11-27.5c-0.2-10.2,3.9-20,11.1-27.1c7-7.3,16.6-11.4,26.7-11.3c5.7-0.1,11.3,1.2,16.3,3.8
			c5.1,2.8,9.5,6.7,12.8,11.5v-13.5H3252.6z M3214.9,329.4c-10.5-0.1-20.1,5.6-25.1,14.8c-5.3,9.2-5.3,20.4,0,29.6
			c2.5,4.6,6.2,8.4,10.7,11c4.3,2.6,9.3,4,14.4,3.9c5.1,0,10.2-1.3,14.7-3.9c4.5-2.4,8.2-6.1,10.7-10.5c2.5-4.6,3.8-9.8,3.7-15
			c0-8.5-2.8-15.6-8.4-21.3C3230.2,332.4,3222.7,329.2,3214.9,329.4L3214.9,329.4z"/>
		<path class="st1" d="M3383.2,337.4l-7.5,4.6c-6.5-8.6-15.3-12.9-26.4-12.9c-8.9,0-16.4,2.9-22.2,8.6c-5.8,5.4-9,13-8.9,20.9
			c0,5.3,1.4,10.5,4.1,15.1c2.6,4.6,6.5,8.4,11.2,11c4.9,2.6,10.4,4,15.9,3.9c10.8,0,19.6-4.3,26.4-12.9l7.5,4.9
			c-3.5,5.3-8.4,9.5-14.1,12.3c-6.3,3-13.2,4.5-20.2,4.4c-11.6,0-21.2-3.7-28.8-11.1c-7.5-6.9-11.6-16.7-11.5-26.9
			c0-7,1.8-13.8,5.4-19.8c3.5-6,8.6-10.9,14.7-14.2c6.4-3.5,13.7-5.2,21-5.1c4.8,0,9.5,0.7,14,2.2c4.1,1.3,8,3.2,11.5,5.8
			C3378.4,330.8,3381.2,333.9,3383.2,337.4z"/>
		<path class="st1" d="M3474.4,322.2v73.3h-9.3v-12.6c-3.6,4.5-8.2,8.2-13.3,10.9c-14.4,6.9-31.6,3.8-42.7-7.6
			c-7.2-7.3-11.2-17.2-11-27.5c-0.2-10.2,3.9-20,11.1-27.1c7-7.3,16.6-11.4,26.7-11.3c5.7-0.1,11.3,1.2,16.3,3.8
			c5.1,2.8,9.5,6.7,12.8,11.5v-13.5H3474.4z M3436.7,329.4c-10.5-0.1-20.1,5.6-25.1,14.8c-5.3,9.2-5.3,20.4,0,29.6
			c2.5,4.6,6.2,8.4,10.7,11c4.3,2.6,9.3,4,14.4,3.9c5.1,0,10.2-1.3,14.7-3.9c4.5-2.4,8.2-6.1,10.8-10.5c2.5-4.6,3.8-9.8,3.7-15
			c0-8.5-2.8-15.6-8.4-21.3C3452,332.3,3444.5,329.2,3436.7,329.4L3436.7,329.4z"/>
		<path class="st1" d="M3494.2,293.9h9.4v101.6h-9.4V293.9z"/>
		<path class="st1" d="M3521.8,293.9h9.4v101.6h-9.4V293.9z"/>
		<path class="st1" d="M3612.6,371.2l8,4.2c-2.2,4.6-5.3,8.8-9,12.4c-3.4,3.1-7.3,5.5-11.5,7.2c-4.6,1.7-9.6,2.5-14.5,2.5
			c-12,0-21.3-3.9-28.1-11.8c-6.5-7.3-10.1-16.8-10.1-26.6c-0.1-9,2.9-17.8,8.6-24.9c7.2-9.3,16.8-13.9,29-13.9
			c12.5,0,22.5,4.7,29.9,14.2c5.3,6.7,8,15,8.1,25.1h-66c0.2,8.5,2.9,15.5,8.2,20.9c5,5.4,12.1,8.3,19.5,8.2c3.7,0,7.4-0.7,10.9-2
			c3.3-1.2,6.3-2.9,9-5.2C3607,379.4,3609.7,375.9,3612.6,371.2z M3612.6,351.4c-0.9-4.4-2.8-8.5-5.5-12.1c-2.6-3.1-5.8-5.6-9.6-7.3
			c-3.9-1.8-8.2-2.8-12.5-2.8c-6.8-0.1-13.5,2.3-18.6,6.9c-3.8,3.4-6.6,8.4-8.6,15.2H3612.6z"/>
		<path class="st1" d="M3676.9,296.4h65v9.9l-44.7,91.7l-15.9-7.7l37.2-76.2h-41.6V296.4z"/>
		<path class="st1" d="M3770,328.3h-18.4c0.5-10.7,3.8-19.1,10.1-25.2s14.2-9.2,24-9.2c5.5-0.1,11,1.2,15.9,3.8
			c4.6,2.6,8.4,6.4,11,11c2.7,4.4,4.1,9.4,4.1,14.6c0,5.9-1.7,12.2-5,19c-3.3,6.8-9.5,14.8-18.4,24.1l-11.1,11.7h35.3v17.4h-68.7v-9
			l30.7-31.3c7.4-7.5,12.3-13.5,14.8-18.1s3.7-8.7,3.7-12.4c0.1-3.6-1.3-7-3.8-9.5c-2.6-2.5-6.2-3.9-9.8-3.7
			c-3.9-0.1-7.6,1.6-10.1,4.5C3771.6,319.1,3770.2,323.1,3770,328.3z"/>
		<path class="st1" d="M3897.9,349.8v13.5h-15.5l-4.8,32.3h-13.5l4.8-32.3H3856l-4.7,32.3h-13.5l4.8-32.3h-15.2v-13.5h17.2l2-12.7
			h-15v-13.4h16.9l4.4-29.9h13.1l-4.1,29.9h12.8l4.4-29.9h13.5l-4.4,29.9h13.6v13.4h-15.5l-1.7,12.7H3897.9z M3872.8,337.1h-13
			l-1.8,12.7h13L3872.8,337.1z"/>
		<path class="st1" d="M3981.9,398l-16-8l17.3-33.7c-8.1,0.1-15.9-3.1-21.5-9c-5.9-6-8.8-13.5-8.8-22.4c0.1-17.2,14-31,31.2-31
			c8.3,0,16.3,3.4,22.1,9.3c6,6.2,8.9,13.4,8.9,21.4c0,3.1-0.5,6.2-1.4,9.2c-0.9,3.1-3,7.8-6.4,14.2L3981.9,398z M3984.3,338.4
			c3.4,0.1,6.6-1.3,8.8-3.8c4.8-5.5,4.8-13.7-0.2-19.1c-2.2-2.5-5.4-3.9-8.7-3.9c-3.4,0-6.7,1.4-9,3.9c-5,5.4-5,13.7-0.1,19.2
			C3977.5,337.1,3980.8,338.5,3984.3,338.4z"/>
		<path class="st1" d="M4059.2,398l-16-8l17.3-33.7c-8.1,0.1-15.9-3.1-21.5-9c-5.9-6-8.8-13.5-8.8-22.4c0.1-17.2,14-31,31.2-31
			c8.3,0,16.3,3.4,22.1,9.3c5.9,6.2,8.9,13.4,8.9,21.4c0,3.1-0.5,6.2-1.4,9.2c-0.9,3.1-3,7.8-6.4,14.2L4059.2,398z M4061.6,338.4
			c3.4,0.1,6.6-1.3,8.8-3.8c4.8-5.5,4.8-13.7-0.2-19.1c-2.2-2.5-5.4-3.9-8.7-3.9c-3.4,0-6.7,1.4-9,3.9c-5,5.4-5,13.7-0.1,19.2
			C4054.8,337.1,4058.1,338.5,4061.6,338.4z"/>
		<path class="st1" d="M4162.6,322.2h18.4v73.3h-18.4v-7.8c-3.1,3.1-6.8,5.6-10.8,7.4c-3.7,1.5-7.7,2.3-11.7,2.2
			c-9.5,0-17.7-3.7-24.6-11c-6.9-7.3-10.4-16.5-10.4-27.4c0-11.3,3.3-20.6,10-27.8c6.2-7,15.1-11,24.4-10.9c4.3,0,8.5,0.8,12.4,2.5
			c4,1.8,7.7,4.3,10.7,7.5V322.2z M4143.3,337.3c-5.4-0.1-10.5,2-14.2,6c-3.8,4-5.6,9.2-5.6,15.5c0,6.3,1.9,11.5,5.8,15.6
			c3.6,4,8.8,6.2,14.1,6.1c5.4,0.2,10.7-2,14.4-6c3.8-4,5.7-9.3,5.7-15.8c0-6.4-1.9-11.5-5.7-15.5
			C4154,339.3,4148.7,337.1,4143.3,337.3z"/>
		<path class="st1" d="M2973,516h34.2v17.1H2973V516z"/>
		<path class="st1" d="M3096,459.5c6.6-0.2,13.2,1.7,18.7,5.3c5.2,3.5,9.3,9,12.1,16.3s4.3,17.5,4.3,30.5c0,13.2-1.4,23.4-4.4,30.7
			c-2.9,7.3-6.8,12.7-11.7,16.1c-4.9,3.4-11.1,5.2-18.5,5.2c-7.5,0-13.7-1.7-18.8-5.2c-5.1-3.5-9.1-8.7-11.9-15.8
			c-2.9-7.1-4.3-17.1-4.3-30.1c0-18.2,2.8-31.4,8.4-39.5C3076.2,464,3084.9,459.5,3096,459.5z M3096.4,477.4c-3.1,0-6.1,1.1-8.5,3.1
			c-2.5,2-4.3,5.6-5.6,10.5c-1.3,5-2,12.3-2,21.9c0,12.5,1.5,21.2,4.5,26s6.8,7.2,11.6,7.2c4.6,0,8.2-2.3,10.9-6.8
			c3.3-5.5,4.9-14.6,4.9-27.5c0-13-1.5-22-4.4-27S3101.1,477.4,3096.4,477.4L3096.4,477.4z"/>
		<path class="st1" d="M3180.7,459.5h18.8v63.8h8.8v17.5h-8.8v20.4h-18.5v-20.3h-43.3v-17.5L3180.7,459.5z M3181.1,523.3v-33.2
			l-22.6,33.2L3181.1,523.3z"/>
		<path class="st1" d="M3253.1,471.7V462h54.3v9.7h-22.1v89.4h-10.1v-89.4H3253.1z"/>
		<path class="st1" d="M3381.9,536.8l7.9,4.2c-2.2,4.6-5.3,8.8-9,12.4c-3.3,3.1-7.3,5.5-11.5,7.2c-4.6,1.7-9.6,2.5-14.5,2.5
			c-12,0-21.3-3.9-28.1-11.8c-6.5-7.3-10.1-16.8-10.1-26.6c-0.1-9,2.9-17.8,8.6-24.9c7.2-9.2,16.9-13.9,29.1-13.9
			c12.5,0,22.5,4.7,29.9,14.2c5.3,6.7,8,15,8.1,25.1h-66c0.2,8.5,2.9,15.5,8.2,20.9c5,5.4,12.1,8.3,19.5,8.2c3.7,0,7.4-0.7,10.9-2
			c3.3-1.2,6.3-2.9,9-5.2C3376.3,545,3379,541.5,3381.9,536.8z M3381.9,517c-0.9-4.4-2.8-8.5-5.5-12.1c-2.6-3.1-5.8-5.6-9.6-7.3
			c-3.9-1.8-8.2-2.8-12.5-2.8c-6.8-0.1-13.5,2.3-18.6,6.9c-3.8,3.4-6.6,8.4-8.6,15.2H3381.9z"/>
		<path class="st1" d="M3406.3,487.8h9.6v10.7c2.4-3.7,5.5-6.9,9.1-9.5c2.9-2,6.4-3.1,10-3.1c3,0.1,5.8,1,8.4,2.5l-4.9,8
			c-1.6-0.8-3.3-1.2-5-1.3c-3.1,0-6.2,1.3-9.1,3.9s-5.1,6.6-6.7,12c-1.2,4.2-1.8,12.6-1.8,25.3v24.8h-9.6L3406.3,487.8z"/>
		<path class="st1" d="M3522.5,503l-7.5,4.6c-6.5-8.6-15.3-12.9-26.4-12.9c-8.9,0-16.3,2.9-22.2,8.6c-5.8,5.4-9,13-8.9,20.9
			c0,5.3,1.4,10.5,4.1,15.1c2.6,4.6,6.5,8.4,11.2,11c4.9,2.6,10.4,4,15.9,3.9c10.8,0,19.6-4.3,26.4-12.9l7.5,4.9
			c-3.5,5.3-8.4,9.5-14.1,12.3c-6.3,3-13.2,4.5-20.2,4.4c-11.6,0-21.2-3.7-28.8-11c-7.5-6.9-11.6-16.7-11.5-26.9
			c0-7,1.8-13.8,5.4-19.8c3.5-6.1,8.6-11,14.8-14.3c6.4-3.5,13.7-5.2,21-5.1c4.8,0,9.5,0.7,14.1,2.2c4.1,1.3,8,3.2,11.5,5.8
			C3517.8,496.4,3520.5,499.5,3522.5,503z"/>
		<path class="st1" d="M3602.3,536.8l7.9,4.2c-2.2,4.6-5.3,8.8-9,12.4c-3.4,3.1-7.3,5.5-11.5,7.2c-4.6,1.7-9.6,2.5-14.5,2.5
			c-12,0-21.3-3.9-28.1-11.8c-6.6-7.3-10.2-16.8-10.2-26.6c-0.1-9,2.9-17.8,8.6-24.9c7.2-9.2,16.9-13.9,29.1-13.9
			c12.5,0,22.5,4.7,29.9,14.2c5.3,6.7,8,15,8.1,25.1h-66c0.2,8.5,2.9,15.5,8.2,20.9c5,5.4,12.1,8.3,19.5,8.2c3.7,0,7.4-0.7,10.9-2
			c3.3-1.2,6.3-2.9,9-5.2C3596.7,545,3599.4,541.5,3602.3,536.8z M3602.3,517c-1-4.4-2.8-8.5-5.5-12.1c-2.6-3.1-5.8-5.6-9.6-7.3
			c-3.9-1.8-8.2-2.8-12.5-2.8c-6.8-0.1-13.5,2.3-18.6,6.9c-3.8,3.4-6.6,8.4-8.6,15.2H3602.3z"/>
		<path class="st1" d="M3668.6,487.8h9.4v13.5c3.3-4.8,7.7-8.7,12.9-11.5c5-2.6,10.6-3.9,16.2-3.8c10.1-0.1,19.8,3.9,26.7,11.2
			c7.3,7.1,11.3,16.9,11.1,27.1c0.2,10.3-3.8,20.2-11,27.5c-11.1,11.4-28.3,14.5-42.6,7.6c-5.1-2.6-9.7-6.3-13.3-10.8v39.4h-9.4
			L3668.6,487.8z M3706.4,495c-7.8-0.2-15.2,2.9-20.6,8.5c-5.6,5.7-8.4,12.8-8.4,21.3c-0.1,5.2,1.2,10.4,3.7,15
			c2.5,4.5,6.2,8.1,10.7,10.6c4.5,2.6,9.5,3.9,14.7,3.9c5,0,10-1.4,14.3-3.9c4.5-2.6,8.2-6.4,10.6-11c5.3-9.2,5.3-20.4,0-29.6
			C3726.4,500.6,3716.8,494.9,3706.4,495L3706.4,495z"/>
		<path class="st1" d="M3765.9,457.6c4.3,0,7.8,3.4,7.9,7.7s-3.4,7.8-7.7,7.9c-4.3,0-7.8-3.4-7.9-7.7c0-2.1,0.8-4.1,2.3-5.6
			C3761.9,458.4,3763.9,457.6,3765.9,457.6z M3761.2,487.8h9.4v73.3h-9.4V487.8z"/>
		<path class="st1" d="M3827.1,495.8l-6.1,6.3c-5-4.9-10-7.3-14.8-7.3c-2.9-0.1-5.7,1-7.9,3c-2.1,1.8-3.3,4.4-3.3,7.1
			c0.1,2.5,1,4.9,2.7,6.8c1.8,2.2,5.6,4.8,11.3,7.8c7,3.6,11.8,7.1,14.3,10.5c2.4,3.3,3.8,7.4,3.7,11.5c0.1,5.8-2.2,11.3-6.3,15.3
			c-4.2,4.2-9.9,6.4-15.9,6.3c-4.2,0-8.3-0.9-12.1-2.8c-3.7-1.8-7-4.4-9.6-7.6l5.9-6.7c4.8,5.4,9.9,8.1,15.3,8.2
			c3.6,0.1,7-1.2,9.7-3.6c2.5-2.1,4-5.3,4-8.5c0-2.6-0.9-5.2-2.6-7.2c-1.8-2.1-5.7-4.7-11.9-7.8c-6.6-3.4-11.1-6.8-13.5-10.1
			c-2.4-3.3-3.6-7.3-3.6-11.4c-0.1-5.2,1.9-10.3,5.7-13.9c3.9-3.7,9.1-5.7,14.4-5.5C3813.5,485.9,3820.3,489.2,3827.1,495.8z"/>
		<path class="st1" d="M3878.5,485.9c11.3,0,20.6,4.1,28.1,12.3c13.7,15.2,13.5,38.4-0.6,53.3c-7.1,7.6-16.3,11.5-27.5,11.5
			c-11.2,0-20.4-3.8-27.5-11.5c-14-14.9-14.3-38.1-0.6-53.3C3857.8,490,3867.2,485.9,3878.5,485.9z M3878.5,495.1
			c-7.7-0.1-15,3.1-20.2,8.7c-5.5,5.6-8.6,13.1-8.5,21c0,5.2,1.3,10.3,3.9,14.8c2.4,4.4,6,8.1,10.4,10.6c9,5,19.9,5,28.8,0
			c4.4-2.5,8-6.2,10.4-10.6c2.6-4.5,3.9-9.6,3.9-14.8c0.1-7.9-2.9-15.4-8.5-21C3893.5,498.2,3886.2,495.1,3878.5,495.1L3878.5,495.1
			z"/>
	</g>
</g>
</svg>
