<svg xmlns="http://www.w3.org/2000/svg" xmlns:xlink="http://www.w3.org/1999/xlink" viewBox="0 0 491.2 111.56"><defs><style>.cls-1{fill:url(#linear-gradient);}.cls-2{fill:#fdffff;}.cls-3{clip-path:url(#clip-path);}</style><linearGradient id="linear-gradient" y1="78.53" x2="491.2" y2="78.53" gradientUnits="userSpaceOnUse"><stop offset="0" stop-color="#7a5635"/><stop offset="0.15" stop-color="#fce167"/><stop offset="0.48" stop-color="#c4922f"/><stop offset="0.73" stop-color="#ffc966"/><stop offset="1" stop-color="#613a01"/></linearGradient><clipPath id="clip-path"><path class="cls-1" d="M.41,104.45a1.85,1.85,0,0,1-.3-1.79c.13-.34.35-1,.65-1.9a22.3,22.3,0,0,1,1-2.49A71.24,71.24,0,0,1,9.88,85.21a38.37,38.37,0,0,0,2.89-4.69q2.6-4.48,5-9.37a7,7,0,0,0,.6-.75,7.11,7.11,0,0,1,.69-.85,3.66,3.66,0,0,1,.9-.3,1.8,1.8,0,0,1,.8,0,1.79,1.79,0,0,1,.8,1.5,1.61,1.61,0,0,1-.2.7,3.09,3.09,0,0,1-.5.7,23.73,23.73,0,0,1-2,2.69.42.42,0,0,0,.1.2,1.26,1.26,0,0,1,.2.2A20.38,20.38,0,0,1,22,73a42.36,42.36,0,0,1,3.88-2.19,3.4,3.4,0,0,1,1.3-.2,2.6,2.6,0,0,1,1.94.75,2.49,2.49,0,0,1,.75,1.84,4.63,4.63,0,0,1-.2,1.1A8.58,8.58,0,0,1,29,75.93c-.29.6-.54,1.14-.74,1.6l-.9,1.4a11.08,11.08,0,0,0,5-1.6,6.32,6.32,0,0,1,1.4-.7H34a1.49,1.49,0,0,1,1.1.4,2.05,2.05,0,0,1,.1.65,1.34,1.34,0,0,1-.1.55,6.31,6.31,0,0,1-2,1.59,14.77,14.77,0,0,1-6,1.9,11.86,11.86,0,0,0-5.88,1.89,9,9,0,0,1-5.09,1.7,9.85,9.85,0,0,1-2.29-.3L13,86.7q-3,5.39-7.28,14.36c-1,1.53-1.69,2.56-2.09,3.09a2.52,2.52,0,0,1-1.8,1A1.81,1.81,0,0,1,.41,104.45ZM18.85,79.82l2.7-.2a11.34,11.34,0,0,0,1.29-.4,14.3,14.3,0,0,0,3.59-4.48l.3-1.4a16.42,16.42,0,0,0-3.34,2c-1,.76-1.89,1.53-2.79,2.29a18.28,18.28,0,0,0-1.94,1.79Zm11.27,2.4a3.83,3.83,0,0,1,.3-1.5,16.34,16.34,0,0,1,5.38-7.48,8.94,8.94,0,0,1,1.6-.89,4,4,0,0,1,1.69-.4,3.76,3.76,0,0,1,2.79,1.69,5.35,5.35,0,0,0,.8.7,4.31,4.31,0,0,0,1.4-.9,1.61,1.61,0,0,1,.7-.2,1.21,1.21,0,0,1,.89.4,1.13,1.13,0,0,1,.4.8,3.16,3.16,0,0,1-.2.9L44.58,77a14.45,14.45,0,0,0-2.4,4.39c.27-.13.53-.25.8-.35a3.3,3.3,0,0,0,.8-.45l2.59-2c2.06-1.53,3.66-2.8,4.79-3.79a2.81,2.81,0,0,1,.69-.6,1.25,1.25,0,0,1,.6-.1c.53,0,.85.15,1,.45a.87.87,0,0,1-.15.85,7.65,7.65,0,0,1-.9,1.29Q49.76,79,48.56,80a36.42,36.42,0,0,1-3.68,2.6,3.71,3.71,0,0,1-2.1.89,2.7,2.7,0,0,1-.8.1,1.88,1.88,0,0,1-1.44-.6A2.41,2.41,0,0,1,40,81.32a8.75,8.75,0,0,0,.2-1.6,13.48,13.48,0,0,0-1.5,1c-1.93,1.26-3.55,2.26-4.88,3a4.73,4.73,0,0,1-1.8.6,1.66,1.66,0,0,1-1.19-.5A2.21,2.21,0,0,1,30.12,82.22Zm7.33-3.49A17.06,17.06,0,0,0,40.59,76c-.47-.86-.93-1.29-1.4-1.29a1.8,1.8,0,0,0-1.19.5,9.32,9.32,0,0,0-2.5,2.39,28.28,28.28,0,0,0-2,3.29A16.84,16.84,0,0,0,37.45,78.73Zm10.42,4a10.73,10.73,0,0,1,.3-1.39l1.09-2.49,1.5-3.39a5.25,5.25,0,0,1,1-1.65,1.37,1.37,0,0,1,1-.45,4.13,4.13,0,0,1,2.2.9c.19-.13.44-.28.74-.45a6.38,6.38,0,0,1,1-.45,6.7,6.7,0,0,1,2-.6h.5A1.6,1.6,0,0,1,61,74v.4c0,.73-.54,1.26-1.6,1.59a13.9,13.9,0,0,0-7.64,7l-.2.4a2.19,2.19,0,0,1-2.5,1,1.74,1.74,0,0,1-1.19-1.69ZM58,82.22a3.83,3.83,0,0,1,.3-1.5,16.34,16.34,0,0,1,5.38-7.48,8.36,8.36,0,0,1,1.6-.89A4.08,4.08,0,0,1,67,72a3.76,3.76,0,0,1,2.79,1.69,5.35,5.35,0,0,0,.8.7,4.48,4.48,0,0,0,1.4-.9,1.53,1.53,0,0,1,.69-.2,1.24,1.24,0,0,1,.9.4,1.13,1.13,0,0,1,.4.8,3.16,3.16,0,0,1-.2.9L72.49,77a14.64,14.64,0,0,0-2.39,4.39c.27-.13.53-.25.8-.35a3.67,3.67,0,0,0,.8-.45l2.59-2c2.06-1.53,3.65-2.8,4.78-3.79a2.86,2.86,0,0,1,.7-.6,1.25,1.25,0,0,1,.6-.1c.53,0,.85.15,1,.45a.87.87,0,0,1-.15.85,7.65,7.65,0,0,1-.9,1.29Q77.66,79,76.48,80a35.46,35.46,0,0,1-3.69,2.6,3.65,3.65,0,0,1-2.09.89,2.7,2.7,0,0,1-.8.1,1.88,1.88,0,0,1-1.44-.6,2.41,2.41,0,0,1-.55-1.69,8.75,8.75,0,0,0,.2-1.6,13.48,13.48,0,0,0-1.5,1c-1.93,1.26-3.55,2.26-4.88,3a4.73,4.73,0,0,1-1.8.6,1.7,1.7,0,0,1-1.2-.5A2.19,2.19,0,0,1,58,82.22Zm7.32-3.49A16.93,16.93,0,0,0,68.51,76c-.47-.86-.94-1.29-1.4-1.29a1.88,1.88,0,0,0-1.2.5,9.28,9.28,0,0,0-2.49,2.39,28.28,28.28,0,0,0-2,3.29,16.77,16.77,0,0,0,3.94-2.16Zm26.18,31.5a3,3,0,0,1,.4-1.49q.39-.81.84-1.95c.3-.76.59-1.41.85-1.94a134.72,134.72,0,0,0,5.91-12.66c.4-.8.94-2,1.6-3.59q2.3-5.58,4.19-9.67a3.61,3.61,0,0,0,.2-1.3,3,3,0,0,0-.2-1.3,5.55,5.55,0,0,0-2.3-3.19,33.54,33.54,0,0,0-3.29-2c-.53-.27-1.18-.57-1.94-.9l-1.85-.8a13.39,13.39,0,0,1-2.19-1.29A3.37,3.37,0,0,1,92,65.47,3.16,3.16,0,0,1,93.43,63a13.9,13.9,0,0,1,4.09-2.39,56.83,56.83,0,0,1,6.68-1.7c2.19-.26,3.92-.43,5.18-.49l3.29-.3,1-2c.41-.82.78-1.61,1.25-2.54l4-6.88c.66-1.06,1.33-1.39,2-1a1,1,0,0,1,.5.9,3.59,3.59,0,0,1-.3,1.2q-1.4,3-4,9a4.16,4.16,0,0,0-.5,1.5l1.1.1,5.38.3a8.85,8.85,0,0,1,1.7.19,1,1,0,0,1,1,.8c0,.54-.34.87-1,1a5.36,5.36,0,0,1-1.2.1c-3.12,0-5.48,0-7.08-.1h-.3a1.43,1.43,0,0,0-1.19.9l-6.68,16a2.44,2.44,0,0,0-.3,1.1,22.24,22.24,0,0,1-2.49,8.57q-2.4,5-4.19,8.08a92.36,92.36,0,0,0-4.39,9q-.3.8-2.39,5.19a4.36,4.36,0,0,0-.35.64,3.83,3.83,0,0,1-.45.75,1.42,1.42,0,0,1-1.1.6c-.79,0-1.15-.42-1.15-1.29Zm5.28-43.07c1.6.8,2.56,1.26,2.89,1.4l2.3,1.09a12.5,12.5,0,0,1,4.68,4.19l.4.5,2.59-6.18a1.17,1.17,0,0,0,.1-.8,3.08,3.08,0,0,1-.1-.8,5.1,5.1,0,0,1,.2-1.29,6.78,6.78,0,0,1,.3-.9l1.2-3.59a2.58,2.58,0,0,0-1.2-.1c-2.06.2-4.78.56-8.17,1.1a13.72,13.72,0,0,0-5.59,2,5.53,5.53,0,0,0-1.49,1.1q-.8.6,0,1.29a17.41,17.41,0,0,0,1.92,1Zm13.36,15a9.44,9.44,0,0,1,.2-1.4,17,17,0,0,1,2.89-6.48,3.66,3.66,0,0,1,1-1,2,2,0,0,1,1.1-.4,1.37,1.37,0,0,1,.89.3,1.26,1.26,0,0,1,.61,1.69h0c-.26,1.19-.63,1.93-1.1,2.19a3.55,3.55,0,0,0-1.29,1.45,11.13,11.13,0,0,0-.65,1.69c-.17.57-.28,1-.35,1.35l.3.3c.2-.14.47-.3.8-.5s.7-.43,1.1-.7L120.55,77a15,15,0,0,1,2.59-1.59,2.32,2.32,0,0,1,1.1-.2,1.79,1.79,0,0,1,1.45.64,2.68,2.68,0,0,1,.54,1.75l-.1,1.89a2.37,2.37,0,0,0,.5,1.4,2,2,0,0,0,1.4.4,9.31,9.31,0,0,0,1.39-.2A44.56,44.56,0,0,0,138.7,78l3.49-1.6a2.75,2.75,0,0,1,1.29-.3,1.93,1.93,0,0,1,.85.2.89.89,0,0,1,.55.6l.1.3a1.29,1.29,0,0,1-.4.9c-.07.26-.33.46-.8.6-2.66,1.39-5,2.51-7.08,3.34a39.08,39.08,0,0,1-6.28,2,13,13,0,0,1-2.79.3c-2.67,0-4.16-1.3-4.49-3.89l-.2-1.39c-.46.33-.91.68-1.34,1a13.72,13.72,0,0,1-1.45,1c-2.79,1.93-4.42,3-4.88,3.29a3.82,3.82,0,0,1-2.2.8,2.81,2.81,0,0,1-1.69-.6,3,3,0,0,1-1.2-2.44Zm29.91,2.69a2.27,2.27,0,0,1-1.14-.75,1.82,1.82,0,0,1,0-2.34,10.17,10.17,0,0,1,1.79-1.8,11.35,11.35,0,0,1,1.75-1.09,22.44,22.44,0,0,0,1.94-1.2,8.66,8.66,0,0,0-1.79-.5,18,18,0,0,1-1.9-.7,1.61,1.61,0,0,1-1-1.49,1.33,1.33,0,0,1,.6-1.2A8.85,8.85,0,0,1,146,71.65a1.44,1.44,0,0,1,1,.4,1.15,1.15,0,0,1,.45.89c0,.67-.5,1.07-1.49,1.2l-1.2.2-.8.4a28.87,28.87,0,0,0,3.59,1.49l.3.1a2,2,0,0,0,.6-.1l.6-.2,3.79-1.09,4.48-1.2a5,5,0,0,1,1.8-.3c.13,0,.46.27,1,.8v.1a1.17,1.17,0,0,1-.5,1.1,4,4,0,0,1-1.79.59c-1.79.6-3.89,1.2-6.28,1.8l-2.09.7a3.32,3.32,0,0,1,.09.89,3.26,3.26,0,0,1-.59,2,7.4,7.4,0,0,1-1.8,1.59,11.79,11.79,0,0,1-4.88,1.9,18,18,0,0,1-2.2-.1Zm6.58-5.09a19.51,19.51,0,0,0-5,2.5,5.33,5.33,0,0,0,5-2.54Zm32.8,5a1.54,1.54,0,0,1-1.49-1.5,1.67,1.67,0,0,1,.4-1.09l2.29-2.4c.33-.4.82-.93,1.45-1.59a9.51,9.51,0,0,0,1.44-1.9l1.9-3.19q3.39-5.58,4.88-8.47,1.2-2.3,2.1-4.19c.59-1.26,1.16-2.42,1.69-3.49l2.1-4.49a.7.7,0,0,1,.05-.25.92.92,0,0,1,.24-.34,1,1,0,0,1,1-.7,1.3,1.3,0,0,1,1,.4,1.4,1.4,0,0,1,.35,1,3.42,3.42,0,0,1-.3,1.25l-.4,1a186.89,186.89,0,0,1-8.87,17.74l-1.1,1.9,1.39-.4,1.55-.45c.56-.16,1.18-.31,1.84-.45a7.12,7.12,0,0,1,1.3-.1c2.26,0,3.39,1.37,3.39,4.09L199,77c3.05-.73,5.11-1.2,6.18-1.39a2.74,2.74,0,0,1,.9-.1h.3a1.16,1.16,0,0,1,1.29,1v.2c0,.47-.36.83-1.1,1.1s-1.58.5-2.39.7L198.32,80a24.42,24.42,0,0,0-7.08,2.69,16.86,16.86,0,0,1-3.49,1.5,5.91,5.91,0,0,1-1.1.2,1.39,1.39,0,0,1-1.49-1,1.09,1.09,0,0,1-.1-.5c0-.66.5-1.19,1.49-1.59q1.9-.9,4.29-1.8a8.09,8.09,0,0,0,3.39-2.5,2.17,2.17,0,0,0,.4-.6q.17-.34.3-.69l-2.09.19a17.9,17.9,0,0,0-9.88,6,20.75,20.75,0,0,1-2.39,2.39,1.75,1.75,0,0,1-1.1.42Zm28.52-1a5.72,5.72,0,0,1-2.79-1.89,4.8,4.8,0,0,1-1-3,13.83,13.83,0,0,1,.2-1.7,9.75,9.75,0,0,1,4.29-5.78,4.79,4.79,0,0,1,2.59-.8A3.48,3.48,0,0,1,213,71a3.18,3.18,0,0,1,1.55,1.25,3.31,3.31,0,0,1,.55,1.84,5,5,0,0,1-1.7,3.49,5.4,5.4,0,0,1-3.49,1.79,6.85,6.85,0,0,1-1.49-.2l-1.3-.29A2.16,2.16,0,0,0,209,81a9.75,9.75,0,0,0,2.89.4,19.78,19.78,0,0,0,11.26-3.69,2.4,2.4,0,0,1,1.3-.6h.3c.6,0,.93.1,1,.3a1.15,1.15,0,0,1,.2.7,2.42,2.42,0,0,1-.1.7,3.39,3.39,0,0,1-1.1,1.19,24.56,24.56,0,0,1-13.26,4.29,10.6,10.6,0,0,1-3.49-.58Zm2.19-7.58c.67,0,1.23-.43,1.7-1.29a1.74,1.74,0,0,0,.25-.6.85.85,0,0,0,0-.5,1.43,1.43,0,0,0-1.3-.3,3.86,3.86,0,0,0-2.39,2.1,4.8,4.8,0,0,0,1.82.54Zm9.67,8.58a1.54,1.54,0,0,1-1.49-1.5,1.67,1.67,0,0,1,.4-1.09l2.29-2.4c.33-.4.82-.93,1.45-1.59a9.51,9.51,0,0,0,1.44-1.9l1.9-3.19q3.39-5.58,4.88-8.47,1.2-2.3,2.1-4.19c.59-1.26,1.16-2.42,1.69-3.49l2.09-4.49a1,1,0,0,1,0-.25,1.07,1.07,0,0,1,.25-.34,1,1,0,0,1,1-.7,1.3,1.3,0,0,1,1.05.4,1.4,1.4,0,0,1,.35,1,3.42,3.42,0,0,1-.3,1.25l-.4,1a183.47,183.47,0,0,1-8.88,17.74l-1.09,1.9L230,74l1.55-.45c.56-.16,1.18-.31,1.84-.45a7.12,7.12,0,0,1,1.3-.1c2.26,0,3.39,1.37,3.39,4.09l1.3-.1c3.05-.73,5.11-1.2,6.18-1.39a2.74,2.74,0,0,1,.9-.1h.29a1.15,1.15,0,0,1,1.3,1v.2c0,.47-.37.83-1.1,1.1s-1.58.5-2.39.7L238.7,80a24.42,24.42,0,0,0-7.08,2.69,16.86,16.86,0,0,1-3.49,1.5,5.91,5.91,0,0,1-1.1.2,1.39,1.39,0,0,1-1.49-1,1.09,1.09,0,0,1-.1-.5c0-.66.5-1.19,1.49-1.59q1.9-.9,4.29-1.8a8,8,0,0,0,3.39-2.5,2.17,2.17,0,0,0,.4-.6q.17-.34.3-.69l-2.1.19a17.87,17.87,0,0,0-9.87,6A20.75,20.75,0,0,1,221,84.29a1.75,1.75,0,0,1-1.1.42Zm25-1.4a2.55,2.55,0,0,1-.7-1.89,8.5,8.5,0,0,1,.5-2A27.49,27.49,0,0,1,246.37,76a36.88,36.88,0,0,1,2.4-3.29c.2-.2.43-.41.69-.64s.57-.49.9-.75a1.73,1.73,0,0,1,.9-.3,1.4,1.4,0,0,1,.9.3,1.52,1.52,0,0,1,.55.75,1.11,1.11,0,0,1,0,.84c-.34.6-.64,1.08-.9,1.45a11.54,11.54,0,0,0-.8,1.25.62.62,0,0,1-.4.39A4.12,4.12,0,0,0,249,77.25a10,10,0,0,0-1.1,2,18.4,18.4,0,0,1-.85,1.8l.4.4a10.57,10.57,0,0,0,2.09-.4,33,33,0,0,0,11-5.09c.27-.2.65-.46,1.15-.79a13.29,13.29,0,0,1,1.35-.8,1.51,1.51,0,0,1,1.09-.5,1.13,1.13,0,0,1,.8.4.82.82,0,0,1,.3.6c0,.33-.27.7-.8,1.09l-1.79,1.6a35.08,35.08,0,0,1-13.46,6.28,20.13,20.13,0,0,1-2.2.1,2.68,2.68,0,0,1-2.07-.63ZM251,68.51a1.67,1.67,0,0,0,.25-.4c.1-.2.35-.33.75-.4q1.78-.3,2.19,0l1.1.6.1.79.1.4c0,.4-.27.6-.8.6a9.94,9.94,0,0,1-2.49-.2l-.55-.15a.81.81,0,0,1-.45-.25l-.4-.4a1.14,1.14,0,0,1,.26-.64Zm25.22,15.65a4.13,4.13,0,0,1-3-1.25,5.87,5.87,0,0,1-1.54-3.44,12.69,12.69,0,0,1-.1-1.74v-1.6c-.87.74-1.4,1.17-1.6,1.3-.93.67-1.63,1.2-2.09,1.6l-3.19,2.29c-.2.13-.93.56-2.19,1.3a6.71,6.71,0,0,1-1.1.09,2.31,2.31,0,0,1-1.7-.59,1.84,1.84,0,0,1-.5-1.3,2.92,2.92,0,0,1,.3-1.3,2.5,2.5,0,0,0,.2-.64,1.48,1.48,0,0,1,.4-.75,20.21,20.21,0,0,1,5.49-5.68,8,8,0,0,1,4.08-1.4,4.74,4.74,0,0,1,2,.4h.3a1.17,1.17,0,0,0,1-.6,3,3,0,0,0,.65-.95,6.25,6.25,0,0,1,.45-.85l1.2-2.29c.33-.53.83-1.39,1.49-2.59a34.41,34.41,0,0,1,1.9-3.09,45.74,45.74,0,0,1,4.68-5.88,13.86,13.86,0,0,1,2.1-1.8,2.77,2.77,0,0,1,1.49-.5,1.49,1.49,0,0,1,1.1.4,1.43,1.43,0,0,1,.7,1.2,2.85,2.85,0,0,1-.5,1.49,12.23,12.23,0,0,0-.8,1.3,6.44,6.44,0,0,1-1.1,1.5q-5.77,7.58-9,11.26a10.25,10.25,0,0,0-2.19,3.49,16.41,16.41,0,0,0-.9,4.39v.8a2.76,2.76,0,0,0,1.1,2.49,2,2,0,0,0,1,.2,3.6,3.6,0,0,0,2.3-.9c1.46-1,3.59-2.57,6.38-4.69a4.51,4.51,0,0,1,1.69-.79,1.32,1.32,0,0,1,.8.3,1,1,0,0,1,.3.79,2.5,2.5,0,0,1-.9,1.7,33.51,33.51,0,0,1-8.17,5.68,6,6,0,0,1-2.47.6ZM269.8,74a6.91,6.91,0,0,0-3.64,1.55,10.67,10.67,0,0,0-3,3.44A43.65,43.65,0,0,0,269.8,74Zm12.47,8.18a3.83,3.83,0,0,1,.3-1.5A16.34,16.34,0,0,1,288,73.2a8.36,8.36,0,0,1,1.6-.89,4,4,0,0,1,1.69-.4A3.77,3.77,0,0,1,294,73.64a5.35,5.35,0,0,0,.8.7,4.48,4.48,0,0,0,1.4-.9,1.53,1.53,0,0,1,.69-.2,1.24,1.24,0,0,1,.9.4,1.13,1.13,0,0,1,.4.8,3.16,3.16,0,0,1-.2.9L296.72,77a14.64,14.64,0,0,0-2.39,4.39c.27-.13.53-.25.8-.35a3.67,3.67,0,0,0,.8-.45l2.59-2c2.06-1.53,3.65-2.8,4.78-3.79a2.86,2.86,0,0,1,.7-.6,1.25,1.25,0,0,1,.6-.1c.53,0,.85.15,1,.45a.87.87,0,0,1-.15.85,7.65,7.65,0,0,1-.9,1.29Q301.91,79,300.71,80A35.46,35.46,0,0,1,297,82.6a3.65,3.65,0,0,1-2.09.89,2.7,2.7,0,0,1-.8.1,1.88,1.88,0,0,1-1.44-.6,2.41,2.41,0,0,1-.55-1.69,8.75,8.75,0,0,0,.2-1.6,13.48,13.48,0,0,0-1.5,1q-2.89,1.89-4.88,3a4.73,4.73,0,0,1-1.8.6,1.7,1.7,0,0,1-1.2-.5,2.24,2.24,0,0,1-.69-1.58Zm7.33-3.49a17.23,17.23,0,0,0,3.14-2.7c-.47-.86-.94-1.29-1.4-1.29a1.88,1.88,0,0,0-1.2.5,9.28,9.28,0,0,0-2.49,2.39,28.28,28.28,0,0,0-2,3.29,16.8,16.8,0,0,0,4-2.15Zm12.51,6.08A2.23,2.23,0,0,1,301,84a1.82,1.82,0,0,1-.45-1.15,1.9,1.9,0,0,1,.4-1.19,11,11,0,0,1,1.8-1.8,12.07,12.07,0,0,1,1.74-1.09,20.38,20.38,0,0,0,1.95-1.2,8.58,8.58,0,0,0-1.8-.5,18.67,18.67,0,0,1-1.89-.7,1.61,1.61,0,0,1-1-1.49,1.33,1.33,0,0,1,.6-1.2,8.81,8.81,0,0,1,5.7-2,1.49,1.49,0,0,1,1,.4,1.15,1.15,0,0,1,.45.89q0,1-1.5,1.2l-1.2.2-.79.4a27.43,27.43,0,0,0,3.59,1.49l.29.1a2,2,0,0,0,.6-.1l.6-.2,3.79-1.09,4.49-1.2a5,5,0,0,1,1.79-.3c.13,0,.47.27,1,.8v.1a1.17,1.17,0,0,1-.5,1.1,4,4,0,0,1-1.79.59c-1.8.6-3.89,1.2-6.29,1.8l-2.09.7a3,3,0,0,1,.1.89,3.21,3.21,0,0,1-.6,2A7.58,7.58,0,0,1,309.19,83a11.88,11.88,0,0,1-4.89,1.9,16,16,0,0,1-2.19-.09Zm6.58-5.09a19.51,19.51,0,0,0-5,2.5,5.35,5.35,0,0,0,5-2.46ZM340,94.93a1.69,1.69,0,0,1-.59-1.25,5.19,5.19,0,0,1,.79-2.49l3.59-6.88.8-1.69a4.35,4.35,0,0,1-1.69-.5,2.44,2.44,0,0,1-1.1-1.4,2,2,0,0,1,.25-.9,1,1,0,0,1,.65-.6,8.63,8.63,0,0,1,3.3-1.09A3.36,3.36,0,0,0,347.8,77a3,3,0,0,0,.4-2,3.07,3.07,0,0,1-.1-.9,1,1,0,0,1,.35-.85,3.53,3.53,0,0,1,1.15-.45,1.42,1.42,0,0,0,1-.64l.45-.75,3.59-5.59q1.89-3.09,5.88-9.07,1.91-2.91,5.39-7.18a15.67,15.67,0,0,1,2.39-2.29,3.64,3.64,0,0,1,1.9-.7,2.32,2.32,0,0,1,1.09.3,2.41,2.41,0,0,1,1.1,2.89,18.79,18.79,0,0,1-1.6,4.29,79.13,79.13,0,0,1-12.06,17q-2.3,2.38-3.89,3.74a10.86,10.86,0,0,1-3.69,2,.56.56,0,0,1,.1.4,15.92,15.92,0,0,0,2.19-.2l15.06-1,3.09-.39h.4a1,1,0,0,1,1.18.78.78.78,0,0,1,0,.22v.3a.89.89,0,0,1-.35.7,1.91,1.91,0,0,1-.85.4c-3.59.66-5.82,1-6.68,1.09-2.26.2-5.65.44-10.17.7l-2,.2a7.16,7.16,0,0,0,1.09.5c.33.07.78.19,1.35.35a5.81,5.81,0,0,1,1.34.55,2,2,0,0,1,1.4,1.89,2.83,2.83,0,0,1-.5,1.5,12.51,12.51,0,0,1-1.89,1.89,99.88,99.88,0,0,1-12.37,8.18,7.82,7.82,0,0,1-2.19.6A2,2,0,0,1,340,94.93Zm9.43-6.83q4.57-3.1,5.41-4.49a30.2,30.2,0,0,0-6.28-.9,1,1,0,0,0-.6.2,3.81,3.81,0,0,0-.5.4q-2.79,5.39-4.29,8.08,1.6-.19,6.24-3.29Zm10.91-23a75.42,75.42,0,0,0,5.94-8.48q2.64-4.38,2.94-6.48a70,70,0,0,0-5.39,6.73q-2.49,3.54-5.68,8.73l-3,4.78a26,26,0,0,0,5.17-5.31Zm7.38,17.15a3.83,3.83,0,0,1,.3-1.5,16.34,16.34,0,0,1,5.38-7.48,8.94,8.94,0,0,1,1.6-.89,4,4,0,0,1,1.7-.4,3.76,3.76,0,0,1,2.79,1.69,5.27,5.27,0,0,0,.79.7,4.31,4.31,0,0,0,1.4-.9,1.61,1.61,0,0,1,.7-.2,1.24,1.24,0,0,1,.9.4,1.16,1.16,0,0,1,.39.8,3.15,3.15,0,0,1-.19.9L382.17,77a14.64,14.64,0,0,0-2.39,4.39c.26-.13.53-.25.79-.35a3,3,0,0,0,.8-.45l2.59-2c2.06-1.53,3.66-2.8,4.79-3.79.4-.4.63-.6.7-.6a1.25,1.25,0,0,1,.6-.1c.53,0,.84.15.94.45a.87.87,0,0,1-.15.85,8,8,0,0,1-.89,1.29c-1.73,1.53-3,2.63-3.79,3.29a35.46,35.46,0,0,1-3.69,2.6,3.71,3.71,0,0,1-2.1.89,2.6,2.6,0,0,1-.79.1,1.88,1.88,0,0,1-1.45-.6,2.41,2.41,0,0,1-.55-1.69,7.87,7.87,0,0,0,.2-1.6,14.36,14.36,0,0,0-1.49,1q-2.9,1.89-4.89,3a4.74,4.74,0,0,1-1.79.6,1.7,1.7,0,0,1-1.2-.5,2.26,2.26,0,0,1-.7-1.56ZM375,78.73a16.9,16.9,0,0,0,3.14-2.7c-.46-.86-.93-1.29-1.4-1.29a1.9,1.9,0,0,0-1.19.5,9.28,9.28,0,0,0-2.49,2.39,28.28,28.28,0,0,0-2,3.29A16.88,16.88,0,0,0,375,78.73ZM391.24,84a2.46,2.46,0,0,1-2-1,4.38,4.38,0,0,1-.75-2.74,18.84,18.84,0,0,1,.35-3.44c.23-1.29.38-2.24.45-2.84a2,2,0,0,1,.4-1.1,1.47,1.47,0,0,1,1.29-.79,1.66,1.66,0,0,1,1.15.39,1.27,1.27,0,0,1,.45,1,21.4,21.4,0,0,1-.2,2.39c-.07.34-.19,1-.35,1.9a8.37,8.37,0,0,0,0,2.69,5.48,5.48,0,0,1,1-.6,3.42,3.42,0,0,0,.94-.6c2.53-2.12,4.42-3.75,5.69-4.88l.84-.85.85-.85a1.17,1.17,0,0,1,1.6-.1,1.21,1.21,0,0,1,.4,1.6,8.53,8.53,0,0,1-.7,1.2,28.53,28.53,0,0,1-8.78,7.87l-.2.1A5.86,5.86,0,0,1,391.24,84Zm13.06-1.59a4,4,0,0,1-.9-3.1,9.19,9.19,0,0,1,1.45-3.63,9.87,9.87,0,0,1,3-3,5.33,5.33,0,0,1,2.24-.59c.9-.07,1.45-.1,1.65-.1h.2c.73,0,1.4.49,2,1.49a4.61,4.61,0,0,1,.8,2.39,4.37,4.37,0,0,1-.5,1.9A9.57,9.57,0,0,1,407,83.11a2.89,2.89,0,0,1-2.71-.69Zm7-5.19a4.22,4.22,0,0,0,.5-1.3,1.67,1.67,0,0,0-.4-1.09,11.56,11.56,0,0,1-1.2,1,3.08,3.08,0,0,1-.44.35,1.11,1.11,0,0,1-.55.25,2.12,2.12,0,0,0-1.9,1.2c-.06.13-.25.45-.55,1a2.18,2.18,0,0,0-.24,1.64,7.55,7.55,0,0,0,4.76-3Zm3.49,5.48a10.73,10.73,0,0,1,.3-1.39l1.1-2.49,1.49-3.39a5.25,5.25,0,0,1,1-1.65,1.41,1.41,0,0,1,1-.45,4.13,4.13,0,0,1,2.19.9l.75-.45a6.38,6.38,0,0,1,1-.45,6.7,6.7,0,0,1,2-.6h.5a1.59,1.59,0,0,1,1.79,1.2v.4q0,1.08-1.59,1.59A14,14,0,0,0,418.66,83l-.2.4a2.19,2.19,0,0,1-2.49,1,1.74,1.74,0,0,1-1.2-1.69Zm13.16.6a2.59,2.59,0,0,1-.7-1.89,8.5,8.5,0,0,1,.5-2,26.18,26.18,0,0,1,1.7-3.39,34.9,34.9,0,0,1,2.39-3.29c.2-.2.43-.41.7-.64s.56-.49.89-.75a1.82,1.82,0,0,1,.9-.3,1.4,1.4,0,0,1,.9.3,1.52,1.52,0,0,1,.55.75,1.07,1.07,0,0,1,0,.84,14.55,14.55,0,0,1-.9,1.45,11.54,11.54,0,0,0-.8,1.25.6.6,0,0,1-.4.39A4.08,4.08,0,0,0,432,77.28a10,10,0,0,0-1.1,2,14,14,0,0,1-.85,1.8l.4.4a10.67,10.67,0,0,0,2.1-.4,33,33,0,0,0,11-5.09c.26-.2.64-.46,1.14-.79a13.29,13.29,0,0,1,1.35-.8,1.53,1.53,0,0,1,1.09-.5,1.09,1.09,0,0,1,.8.4.82.82,0,0,1,.3.6c0,.33-.26.7-.8,1.09l-1.79,1.6a35,35,0,0,1-13.46,6.28A20.06,20.06,0,0,1,430,84a2.7,2.7,0,0,1-2.07-.66Zm6.18-14.85a1.67,1.67,0,0,0,.25-.4c.1-.2.35-.33.75-.4q1.8-.3,2.19,0l1.1.6.1.79.1.4c0,.4-.27.6-.8.6a9.94,9.94,0,0,1-2.49-.2l-.55-.15a.81.81,0,0,1-.45-.25l-.4-.4a1.17,1.17,0,0,1,.18-.58ZM431,110.23a3,3,0,0,1,.4-1.49c.27-.53.55-1.18.85-1.95s.58-1.41.84-1.94A134.72,134.72,0,0,0,439,92.19c.4-.8.93-2,1.59-3.59q2.29-5.58,4.19-9.67a3.61,3.61,0,0,0,.2-1.3,3,3,0,0,0-.2-1.3,5.58,5.58,0,0,0-2.29-3.19,33.54,33.54,0,0,0-3.29-2q-.79-.42-1.95-.9l-1.84-.8a13.48,13.48,0,0,1-2.2-1.29,3.37,3.37,0,0,1-1.69-2.69,3.15,3.15,0,0,1,1.4-2.5A14,14,0,0,1,437,60.58a56.83,56.83,0,0,1,6.68-1.7c2.2-.26,3.92-.43,5.19-.49l3.29-.3c.26-.53.58-1.18,1-2s.78-1.61,1.24-2.54l4-6.88c.66-1.06,1.33-1.39,2-1a1,1,0,0,1,.5.9,3.59,3.59,0,0,1-.3,1.2q-1.39,3-4,9a3.81,3.81,0,0,0-.5,1.5l1.09.1,5.39.3a8.66,8.66,0,0,1,1.69.19,1,1,0,0,1,1,.8c0,.54-.33.87-1,1a5.27,5.27,0,0,1-1.19.1c-3.13,0-5.49,0-7.08-.1h-.3a1.4,1.4,0,0,0-1.2.9l-6.68,16a2.44,2.44,0,0,0-.3,1.1A22.22,22.22,0,0,1,445,87.3q-2.4,5-4.19,8.08a87.93,87.93,0,0,0-4.38,9q-.3.8-2.4,5.19a4.36,4.36,0,0,0-.35.64,3.83,3.83,0,0,1-.45.75,1.43,1.43,0,0,1-1.09.6C431.39,111.53,431,111.1,431,110.23Zm5.28-43.07c1.6.8,2.56,1.26,2.9,1.4l2.29,1.09a12.61,12.61,0,0,1,4.69,4.19l.39.5,2.6-6.18a1.3,1.3,0,0,0,.1-.8,2.41,2.41,0,0,1-.1-.8,4.29,4.29,0,0,1,.2-1.29,6.78,6.78,0,0,1,.3-.9l1.19-3.59a2.52,2.52,0,0,0-1.19-.1c-2.07.2-4.79.57-8.18,1.1a13.68,13.68,0,0,0-5.58,2,5.74,5.74,0,0,0-1.5,1.1q-.79.6,0,1.29a17.13,17.13,0,0,0,1.9,1Zm13.37,15.06a3.83,3.83,0,0,1,.3-1.5,16.34,16.34,0,0,1,5.38-7.48,8.86,8.86,0,0,1,1.59-.89,4,4,0,0,1,1.7-.4,3.76,3.76,0,0,1,2.79,1.69,4.84,4.84,0,0,0,.8.7,4.27,4.27,0,0,0,1.39-.9,1.61,1.61,0,0,1,.7-.2,1.24,1.24,0,0,1,.9.4,1.17,1.17,0,0,1,.4.8,3.16,3.16,0,0,1-.2.9L464.12,77a14.64,14.64,0,0,0-2.39,4.39,8.08,8.08,0,0,1,.8-.35,3.67,3.67,0,0,0,.8-.45l2.59-2c2.06-1.53,3.65-2.8,4.78-3.79.4-.4.63-.6.7-.6a1.25,1.25,0,0,1,.6-.1c.53,0,.85.15.95.45a.87.87,0,0,1-.15.85,7.65,7.65,0,0,1-.9,1.29Q469.31,79,468.11,80a35.46,35.46,0,0,1-3.69,2.6,3.65,3.65,0,0,1-2.09.89,2.7,2.7,0,0,1-.8.1,1.88,1.88,0,0,1-1.44-.6,2.41,2.41,0,0,1-.55-1.69,8.75,8.75,0,0,0,.2-1.6,13.48,13.48,0,0,0-1.5,1q-2.89,1.89-4.89,3a4.74,4.74,0,0,1-1.79.6,1.7,1.7,0,0,1-1.2-.5,2.24,2.24,0,0,1-.69-1.58ZM457,78.73a16.53,16.53,0,0,0,3.14-2.7c-.46-.86-.93-1.29-1.39-1.29a1.88,1.88,0,0,0-1.2.5A9.51,9.51,0,0,0,455,77.63a26.7,26.7,0,0,0-2,3.29A16.91,16.91,0,0,0,457,78.73Zm12.52,6.08a2.23,2.23,0,0,1-1.15-.75,1.82,1.82,0,0,1-.45-1.15,1.9,1.9,0,0,1,.4-1.19,11.29,11.29,0,0,1,1.79-1.8,12.75,12.75,0,0,1,1.75-1.09,18.4,18.4,0,0,0,1.94-1.2,8.66,8.66,0,0,0-1.79-.5,18,18,0,0,1-1.9-.7,1.61,1.61,0,0,1-1-1.49,1.33,1.33,0,0,1,.6-1.2,8.77,8.77,0,0,1,5.68-2.09,1.46,1.46,0,0,1,1.05.4,1.11,1.11,0,0,1,.44.89c0,.67-.49,1.07-1.49,1.2l-1.2.2-.79.4a27.56,27.56,0,0,0,3.6,1.49l.3.1a2,2,0,0,0,.6-.1l.6-.2,3.79-1.09,4.49-1.2a5,5,0,0,1,1.79-.3c.13,0,.46.27,1,.8v.1a1.17,1.17,0,0,1-.5,1.1,4.08,4.08,0,0,1-1.8.59c-1.79.6-3.89,1.2-6.28,1.8l-2.09.7a3.73,3.73,0,0,1-.5,2.89A7.45,7.45,0,0,1,476.59,83a11.88,11.88,0,0,1-4.89,1.9,16,16,0,0,1-2.19-.09Zm6.58-5.09a19.51,19.51,0,0,0-5,2.5,5.36,5.36,0,0,0,5-2.5Zm13,5.09a1.83,1.83,0,0,1-1.35-.6,2.64,2.64,0,0,1-.65-1.5,1.7,1.7,0,0,1,.55-1.29,1.83,1.83,0,0,1,1.25-.5h.2a2,2,0,0,1,1.44.6,1.81,1.81,0,0,1,.65,1.39,1.89,1.89,0,0,1-.55,1.3,1.72,1.72,0,0,1-1.34.6Z"/></clipPath></defs><g id="Capa_2" data-name="Capa 2"><g id="Capa_1-2" data-name="Capa 1"><path class="cls-2" d="M32.84,1.14H47.57V3.65H35.4v8.06H47.46v2.51H35.4v10.1H47.46v2.52H32.84Z"/><path class="cls-2" d="M51.23.49h2.45V26.84H51.23Z"/><path class="cls-2" d="M87.61,7.83v19H85.2V23.57a10.31,10.31,0,0,1-3.45,2.81,9.62,9.62,0,0,1-11.08-2,9.78,9.78,0,0,1-2.85-7.12,9.59,9.59,0,0,1,2.88-7,9.34,9.34,0,0,1,6.93-2.92,9.06,9.06,0,0,1,4.24,1,9.59,9.59,0,0,1,3.33,3V7.83ZM77.84,9.7a7.36,7.36,0,0,0-6.54,3.82,7.69,7.69,0,0,0,0,7.68,7.34,7.34,0,0,0,2.76,2.85,7.17,7.17,0,0,0,3.73,1,7.58,7.58,0,0,0,3.8-1,7.15,7.15,0,0,0,2.77-2.74,8,8,0,0,0,1-3.89,7.62,7.62,0,0,0-2.17-5.52A7.27,7.27,0,0,0,77.84,9.7Z"/><path class="cls-2" d="M93.1,7.83h2.44v3.28a9.35,9.35,0,0,1,2.63-2.65,7.37,7.37,0,0,1,3.9-1.12,6.57,6.57,0,0,1,2.62.54,5.81,5.81,0,0,1,2,1.44,7.92,7.92,0,0,1,1.37,2.58,8.93,8.93,0,0,1,3-3.4A7.23,7.23,0,0,1,115,7.34a6.21,6.21,0,0,1,3.47,1,6,6,0,0,1,2.24,2.78,14.94,14.94,0,0,1,.74,5.35V26.84H119V16.46a13.85,13.85,0,0,0-.44-4.2A3.82,3.82,0,0,0,117,10.41a4.48,4.48,0,0,0-2.51-.7,5.44,5.44,0,0,0-3.25,1,6,6,0,0,0-2.15,2.8,17.66,17.66,0,0,0-.68,5.83v7.45h-2.37V17.11a16.75,16.75,0,0,0-.43-4.68,3.93,3.93,0,0,0-1.49-2,4.32,4.32,0,0,0-2.53-.75,5.5,5.5,0,0,0-3.17,1,6,6,0,0,0-2.14,2.81,14.62,14.62,0,0,0-.71,5.29v8.06H93.1Z"/><path class="cls-2" d="M126.84,26.84V.49h2.46v10.6a10.57,10.57,0,0,1,3.44-2.82,9.38,9.38,0,0,1,4.17-.93,9.27,9.27,0,0,1,6.89,2.93,9.82,9.82,0,0,1,2.85,7.1,9.67,9.67,0,0,1-2.88,7,9.45,9.45,0,0,1-6.93,2.92,8.73,8.73,0,0,1-4.2-1,9.63,9.63,0,0,1-3.34-3v3.5ZM136.62,25a7.38,7.38,0,0,0,6.51-3.83,7.8,7.8,0,0,0,1-3.84,7.9,7.9,0,0,0-1-3.86,7.53,7.53,0,0,0-2.77-2.86,7.19,7.19,0,0,0-3.7-1,7.59,7.59,0,0,0-3.81,1,7,7,0,0,0-2.77,2.75,7.74,7.74,0,0,0-1,3.9,7.52,7.52,0,0,0,2.22,5.49A7.18,7.18,0,0,0,136.62,25Z"/><path class="cls-2" d="M151.94,0a2,2,0,0,1,1.42.59A2,2,0,0,1,154,2a2,2,0,0,1-.6,1.41,1.92,1.92,0,0,1-1.42.6,1.87,1.87,0,0,1-1.41-.6A1.87,1.87,0,0,1,149.94,2a2,2,0,0,1,.59-1.44A1.94,1.94,0,0,1,151.94,0Zm-1.22,7.83h2.45v19h-2.45Z"/><path class="cls-2" d="M174.3,20.53l2,1.08A11.62,11.62,0,0,1,174,24.83a9.73,9.73,0,0,1-3,1.86,10.51,10.51,0,0,1-3.76.64,9.08,9.08,0,0,1-7.28-3,10.22,10.22,0,0,1-2.62-6.9A10.12,10.12,0,0,1,159.52,11a9.11,9.11,0,0,1,7.54-3.6A9.38,9.38,0,0,1,174.85,11a10.29,10.29,0,0,1,2.1,6.5H159.84A7.8,7.8,0,0,0,162,23,6.75,6.75,0,0,0,167,25.11a8,8,0,0,0,2.82-.5,7.69,7.69,0,0,0,2.34-1.34A12,12,0,0,0,174.3,20.53Zm0-5.12a8.26,8.26,0,0,0-1.43-3.13,6.7,6.7,0,0,0-2.47-1.88,7.58,7.58,0,0,0-3.24-.72,7,7,0,0,0-4.81,1.8,8.06,8.06,0,0,0-2.22,3.93Z"/><path class="cls-2" d="M181.51,7.83H184v3.41a10,10,0,0,1,3.25-2.93,7.91,7.91,0,0,1,3.87-1,6.79,6.79,0,0,1,3.79,1.08,6.44,6.44,0,0,1,2.43,2.95,15.37,15.37,0,0,1,.79,5.71v9.79h-2.45V17.77a23,23,0,0,0-.27-4.39,4.89,4.89,0,0,0-1.63-2.84,5,5,0,0,0-3.14-.95,6,6,0,0,0-4,1.47,6.8,6.8,0,0,0-2.3,3.63,24.32,24.32,0,0,0-.35,5.18v7H181.5Z"/><path class="cls-2" d="M205.46.77h2.45V7.83h3.88V9.94h-3.88v16.9h-2.45V9.94h-3.33V7.83h3.33Z"/><path class="cls-2" d="M231.46,20.53l2.07,1.08a11.65,11.65,0,0,1-2.35,3.22,9.55,9.55,0,0,1-3,1.86,10.51,10.51,0,0,1-3.76.64,9.06,9.06,0,0,1-7.27-3,10.26,10.26,0,0,1-2.63-6.9A10.12,10.12,0,0,1,216.74,11a9.07,9.07,0,0,1,7.56-3.65A9.41,9.41,0,0,1,232.06,11a10.36,10.36,0,0,1,2.09,6.5h-17.1a7.7,7.7,0,0,0,2.12,5.5,6.73,6.73,0,0,0,5,2.11,8.08,8.08,0,0,0,2.83-.5,7.53,7.53,0,0,0,2.33-1.34A11.6,11.6,0,0,0,231.46,20.53Zm0-5.12A8.24,8.24,0,0,0,230,12.28a6.73,6.73,0,0,0-2.48-1.88,7.52,7.52,0,0,0-3.26-.72,7,7,0,0,0-4.81,1.8,8.05,8.05,0,0,0-2.19,3.93Z"/><path class="cls-2" d="M267.54,7.83v26h-2.41V23.57a10.31,10.31,0,0,1-3.45,2.81,9.62,9.62,0,0,1-11.08-2,9.78,9.78,0,0,1-2.85-7.12,9.59,9.59,0,0,1,2.88-7,9.37,9.37,0,0,1,6.94-2.92,9,9,0,0,1,4.23,1,9.59,9.59,0,0,1,3.33,3V7.83ZM257.77,9.7a7.36,7.36,0,0,0-6.47,3.82,7.69,7.69,0,0,0,0,7.68,7.41,7.41,0,0,0,2.76,2.85,7.17,7.17,0,0,0,3.73,1,7.61,7.61,0,0,0,3.81-1,7.08,7.08,0,0,0,2.7-2.73,7.91,7.91,0,0,0,1-3.89,7.62,7.62,0,0,0-2.17-5.52A7.26,7.26,0,0,0,257.77,9.7Z"/><path class="cls-2" d="M272.72,7.83h2.44V16.7a18.7,18.7,0,0,0,.35,4.48,5,5,0,0,0,2,2.76,6.62,6.62,0,0,0,7,0,5.05,5.05,0,0,0,2-2.59,18.28,18.28,0,0,0,.37-4.67V7.83h2.5v9.33a14.91,14.91,0,0,1-.92,5.92,7.08,7.08,0,0,1-2.76,3.12,10.05,10.05,0,0,1-9.26,0,6.91,6.91,0,0,1-2.78-3.15,15.31,15.31,0,0,1-.91-6.07Z"/><path class="cls-2" d="M310.79,20.53l2.06,1.08a11.62,11.62,0,0,1-2.34,3.22,9.73,9.73,0,0,1-3,1.86,10.51,10.51,0,0,1-3.76.64,9.08,9.08,0,0,1-7.28-3,10.22,10.22,0,0,1-2.62-6.9A10.12,10.12,0,0,1,296.07,11a9.11,9.11,0,0,1,7.54-3.6A9.37,9.37,0,0,1,311.38,11a10.29,10.29,0,0,1,2.1,6.5H296.37a7.8,7.8,0,0,0,2.12,5.5,6.75,6.75,0,0,0,5.06,2.11,8,8,0,0,0,2.82-.5,7.49,7.49,0,0,0,2.34-1.34A11.87,11.87,0,0,0,310.79,20.53Zm0-5.12a8.26,8.26,0,0,0-1.43-3.13,6.7,6.7,0,0,0-2.47-1.88,7.58,7.58,0,0,0-3.24-.72,7,7,0,0,0-4.81,1.8,8.06,8.06,0,0,0-2.22,3.93Z"/><path class="cls-2" d="M328.1,26.84V.49h2.45v10.6A10.32,10.32,0,0,1,334,8.27a9.38,9.38,0,0,1,4.17-.93,9.28,9.28,0,0,1,6.89,2.93,9.82,9.82,0,0,1,2.85,7.1,9.67,9.67,0,0,1-2.88,7,9.45,9.45,0,0,1-6.93,2.92,8.77,8.77,0,0,1-4.21-1,9.79,9.79,0,0,1-3.33-3v3.5ZM337.89,25a7.42,7.42,0,0,0,6.51-3.83,7.78,7.78,0,0,0,0-7.7,7.58,7.58,0,0,0-2.76-2.86,7.25,7.25,0,0,0-3.71-1,7.69,7.69,0,0,0-3.81,1,7.16,7.16,0,0,0-2.82,2.72,7.84,7.84,0,0,0-1,3.9,7.54,7.54,0,0,0,2.17,5.52A7.15,7.15,0,0,0,337.89,25Z"/><path class="cls-2" d="M352,7.83h2.45V16.7a18.2,18.2,0,0,0,.35,4.48,5,5,0,0,0,2,2.76,6,6,0,0,0,3.53,1,5.89,5.89,0,0,0,3.47-1,5.05,5.05,0,0,0,2-2.59,18.74,18.74,0,0,0,.37-4.67V7.83h2.49v9.33a14.91,14.91,0,0,1-.91,5.92A7.08,7.08,0,0,1,365,26.2a10,10,0,0,1-9.26,0A6.91,6.91,0,0,1,353,23.05a15.11,15.11,0,0,1-.92-6.07Z"/><path class="cls-2" d="M383.67,9.91l-1.58,1.62a5.63,5.63,0,0,0-3.79-1.9,2.84,2.84,0,0,0-2,.78,2.41,2.41,0,0,0-.85,1.84,2.67,2.67,0,0,0,.7,1.76,9.58,9.58,0,0,0,2.94,2,11.1,11.1,0,0,1,3.71,2.73,5.08,5.08,0,0,1,1,3,5.36,5.36,0,0,1-1.64,4,5.64,5.64,0,0,1-4.11,1.63,7.09,7.09,0,0,1-3.14-.72,6.72,6.72,0,0,1-2.48-2L374,22.9A5.32,5.32,0,0,0,378,25a3.6,3.6,0,0,0,2.51-.94,2.94,2.94,0,0,0,1-2.22A2.91,2.91,0,0,0,380.8,20a11.33,11.33,0,0,0-3.08-2,9.56,9.56,0,0,1-3.51-2.62,4.89,4.89,0,0,1-.92-3,4.79,4.79,0,0,1,1.47-3.6,5.18,5.18,0,0,1,3.74-1.43A7.77,7.77,0,0,1,383.67,9.91Z"/><path class="cls-2" d="M406.45,11.78,404.51,13a8.15,8.15,0,0,0-6.86-3.34,8,8,0,0,0-5.77,2.24,7.25,7.25,0,0,0-2.29,5.43,7.56,7.56,0,0,0,1.06,3.91,7.31,7.31,0,0,0,2.89,2.84,8.78,8.78,0,0,0,11-2.32L406.45,23a9.32,9.32,0,0,1-3.66,3.19,11.85,11.85,0,0,1-5.23,1.13,10.33,10.33,0,0,1-7.48-2.87,9.27,9.27,0,0,1-3-7,9.85,9.85,0,0,1,5.22-8.78,11,11,0,0,1,5.43-1.33,11.6,11.6,0,0,1,3.64.58,10.05,10.05,0,0,1,3,1.5A8.25,8.25,0,0,1,406.45,11.78Z"/><path class="cls-2" d="M430.09,7.83v19h-2.41V23.57a10.66,10.66,0,0,1-3.45,2.81,9.62,9.62,0,0,1-11.08-2,9.76,9.76,0,0,1-2.85-7.1,9.59,9.59,0,0,1,2.88-7,9.34,9.34,0,0,1,6.93-2.92,9.06,9.06,0,0,1,4.24,1,9.68,9.68,0,0,1,3.33,3V7.83ZM420.3,9.7a7.38,7.38,0,0,0-6.52,3.82,7.69,7.69,0,0,0,0,7.68,7.34,7.34,0,0,0,2.76,2.85,7.17,7.17,0,0,0,3.73,1,7.58,7.58,0,0,0,3.8-1,7.15,7.15,0,0,0,2.77-2.74,8,8,0,0,0,1-3.89,7.63,7.63,0,0,0-2.18-5.52A7.21,7.21,0,0,0,420.3,9.7Z"/><path class="cls-2" d="M445.15,9.91l-1.57,1.62a5.7,5.7,0,0,0-3.84-1.9,2.94,2.94,0,0,0-2,.78,2.41,2.41,0,0,0-.85,1.84,2.67,2.67,0,0,0,.7,1.76,9.74,9.74,0,0,0,3,2,11.1,11.1,0,0,1,3.71,2.73,5.08,5.08,0,0,1,1,3,5.41,5.41,0,0,1-1.64,4,5.6,5.6,0,0,1-4.12,1.63,7.09,7.09,0,0,1-3.14-.72,6.77,6.77,0,0,1-2.47-2l1.42-1.76a5.35,5.35,0,0,0,4,2.11,3.56,3.56,0,0,0,2.5-.94,2.94,2.94,0,0,0,1-2.22,2.9,2.9,0,0,0-.69-1.87A11.18,11.18,0,0,0,439,18a9.72,9.72,0,0,1-3.5-2.62,4.88,4.88,0,0,1-.93-3,4.8,4.8,0,0,1,1.48-3.6,5.18,5.18,0,0,1,3.74-1.43A7.71,7.71,0,0,1,445.15,9.91Z"/><path class="cls-2" d="M53.5,45l-4,2.18a7.2,7.2,0,0,0-2.2-1.68,6.62,6.62,0,0,0-2.56-.45,6,6,0,0,0-4.33,1.6,5.39,5.39,0,0,0-1.65,4.09,5.23,5.23,0,0,0,1.59,4,5.75,5.75,0,0,0,4.18,1.53,6.09,6.09,0,0,0,5-2.18l3.77,2.53a10.24,10.24,0,0,1-8.63,4,10.32,10.32,0,0,1-7.86-3,9.86,9.86,0,0,1,2.4-15.69,11.55,11.55,0,0,1,5.53-1.33,11.22,11.22,0,0,1,5.08,1.13A9.82,9.82,0,0,1,53.5,45Z"/><path class="cls-2" d="M66.72,40.61A10.13,10.13,0,0,1,71.78,42a9.75,9.75,0,0,1,3.7,3.65,10,10,0,0,1,0,10,9.69,9.69,0,0,1-3.64,3.66,10.1,10.1,0,0,1-5.09,1.32,9.45,9.45,0,0,1-7-2.91,10.07,10.07,0,0,1,.11-14.24l.27-.25A9.51,9.51,0,0,1,66.72,40.61Zm.08,4.49a4.91,4.91,0,0,0-3.7,1.55,5.44,5.44,0,0,0-1.48,4,5.58,5.58,0,0,0,1.46,4,5.25,5.25,0,0,0,7.42,0h0a6.13,6.13,0,0,0,0-8A5,5,0,0,0,66.8,45.1Z"/><path class="cls-2" d="M80.7,41.1h4.77v1.95a11.23,11.23,0,0,1,2.94-1.9,7.11,7.11,0,0,1,2.7-.54,6.59,6.59,0,0,1,4.8,2,6.86,6.86,0,0,1,1.65,5v12.5H92.85V51.79a22.08,22.08,0,0,0-.31-4.52,3.12,3.12,0,0,0-1.06-1.7A3,3,0,0,0,89.6,45a3.48,3.48,0,0,0-2.48,1,5.15,5.15,0,0,0-1.44,2.68,20.78,20.78,0,0,0-.21,3.86v7.62H80.7Z"/><path class="cls-2" d="M111.66,33.76h4.77V60.11h-4.77Z"/><path class="cls-2" d="M129.7,40.61a10,10,0,0,1,5,1.35,9.75,9.75,0,0,1,3.7,3.65,10,10,0,0,1,0,10,9.62,9.62,0,0,1-3.64,3.66,10.1,10.1,0,0,1-5.09,1.32,9.45,9.45,0,0,1-7-2.91,10.07,10.07,0,0,1,.11-14.24l.27-.25A9.5,9.5,0,0,1,129.7,40.61Zm.07,4.49a4.91,4.91,0,0,0-3.7,1.55,5.48,5.48,0,0,0-1.48,4,5.58,5.58,0,0,0,1.46,4,5.25,5.25,0,0,0,7.42,0h0a6.13,6.13,0,0,0,0-8A5,5,0,0,0,129.77,45.1Z"/><path class="cls-2" d="M155.3,43.76l-3,3A5,5,0,0,0,149.08,45a2,2,0,0,0-1.26.34,1,1,0,0,0-.16,1.55,5.23,5.23,0,0,0,1.42.89l1.75.87a10.53,10.53,0,0,1,3.79,2.78,5.81,5.81,0,0,1-.83,7.55,7.13,7.13,0,0,1-5,1.69,7.92,7.92,0,0,1-6.64-3.25l2.94-3.2a6.73,6.73,0,0,0,2,1.59,4.25,4.25,0,0,0,2,.6,2.32,2.32,0,0,0,1.52-.46,1.32,1.32,0,0,0,.58-1c0-.74-.69-1.45-2.08-2.15L147.5,52q-4.6-2.32-4.61-5.82a5,5,0,0,1,1.74-3.85,6.32,6.32,0,0,1,4.45-1.6A7.79,7.79,0,0,1,155.3,43.76Z"/><path class="cls-2" d="M169.39,41.1h4.77v2.19a8,8,0,0,1,2.72-2,7.9,7.9,0,0,1,3.26-.67,6,6,0,0,1,3.22.88,6.32,6.32,0,0,1,2.31,2.5,7.68,7.68,0,0,1,2.79-2.55,7.56,7.56,0,0,1,3.61-.88,6.7,6.7,0,0,1,3.56,1A5.5,5.5,0,0,1,197.85,44a13.37,13.37,0,0,1,.67,4.94V60.11h-4.8V50.47q0-3.24-.81-4.38A2.77,2.77,0,0,0,190.5,45a3.63,3.63,0,0,0-2.19.69,4,4,0,0,0-1.44,1.94,11.54,11.54,0,0,0-.48,4v8.58h-4.8V50.9a13.13,13.13,0,0,0-.38-3.69,3.49,3.49,0,0,0-1.13-1.71,3,3,0,0,0-1.78-.5,3.55,3.55,0,0,0-2.16.7,4.35,4.35,0,0,0-1.46,2,12,12,0,0,0-.48,4v8.45h-4.77Z"/><path class="cls-2" d="M222.11,52H206.78a5.11,5.11,0,0,0,1.78,3.22,5.49,5.49,0,0,0,3.68,1.2,6.33,6.33,0,0,0,4.59-1.87l4,1.89a9.43,9.43,0,0,1-3.6,3.15,11.33,11.33,0,0,1-5,1,9.83,9.83,0,0,1-7.29-2.82,9.6,9.6,0,0,1-2.81-7.07,9.87,9.87,0,0,1,2.81-7.22,9.39,9.39,0,0,1,7-2.88,9.79,9.79,0,0,1,7.3,2.88,10.35,10.35,0,0,1,2.82,7.59Zm-4.81-3.77a4.94,4.94,0,0,0-1.87-2.59,5.44,5.44,0,0,0-3.23-1,5.71,5.71,0,0,0-3.5,1.12A6.14,6.14,0,0,0,207,48.22Z"/><path class="cls-2" d="M225.83,41.1h4.77V60.74a11.83,11.83,0,0,1-.53,4.05,4.24,4.24,0,0,1-1.69,2,5.14,5.14,0,0,1-2.78.72,11.4,11.4,0,0,1-3.56-.72V63.08a4.63,4.63,0,0,0,2,.54,1.71,1.71,0,0,0,1.37-.54,3.26,3.26,0,0,0,.45-2Zm2.38-7.83a3,3,0,0,1,2.17.91,3.12,3.12,0,0,1,0,4.37,2.87,2.87,0,0,1-2.13.91,3,3,0,0,1-2.18-.92,3,3,0,0,1-.9-2.23,3,3,0,0,1,.89-2.15A2.9,2.9,0,0,1,228.21,33.27Z"/><path class="cls-2" d="M244.19,40.61A10.11,10.11,0,0,1,249.3,42a9.75,9.75,0,0,1,3.7,3.65,10,10,0,0,1,0,10,9.74,9.74,0,0,1-3.69,3.63,10.1,10.1,0,0,1-5.09,1.32,9.45,9.45,0,0,1-7-2.91,10.07,10.07,0,0,1,.11-14.24l.27-.25A9.5,9.5,0,0,1,244.19,40.61Zm.11,4.49a4.91,4.91,0,0,0-3.7,1.55,5.44,5.44,0,0,0-1.48,4,5.58,5.58,0,0,0,1.46,4,5.25,5.25,0,0,0,7.42,0h0a6.13,6.13,0,0,0,0-8A5.05,5.05,0,0,0,244.3,45.1Z"/><path class="cls-2" d="M257.05,41.1h4.09v2.4a4.94,4.94,0,0,1,1.77-2.15,4.23,4.23,0,0,1,2.41-.74,4.72,4.72,0,0,1,1.94.49l-1.49,4.11a3.41,3.41,0,0,0-1.38-.42,2.18,2.18,0,0,0-1.86,1.36c-.51.91-.76,2.7-.76,5.35v8.61H257Z"/><path class="cls-2" d="M288.66,52H273.3a5.1,5.1,0,0,0,1.77,3.22,5.55,5.55,0,0,0,3.68,1.2,6.33,6.33,0,0,0,4.59-1.87l4,1.89a9.43,9.43,0,0,1-3.6,3.15,11.19,11.19,0,0,1-5,1,9.77,9.77,0,0,1-7.28-2.82,9.55,9.55,0,0,1-2.82-7.07,9.87,9.87,0,0,1,2.81-7.22,9.39,9.39,0,0,1,7-2.88,9.8,9.8,0,0,1,7.31,2.88,10.44,10.44,0,0,1,2.81,7.59Zm-4.77-3.76A4.87,4.87,0,0,0,282,45.65a5.44,5.44,0,0,0-3.23-1,5.71,5.71,0,0,0-3.5,1.12,6,6,0,0,0-1.75,2.46Z"/><path class="cls-2" d="M304.16,43.76l-3,3A5,5,0,0,0,297.94,45a2,2,0,0,0-1.26.34,1,1,0,0,0-.16,1.55,5.23,5.23,0,0,0,1.42.89l1.75.87a10.53,10.53,0,0,1,3.79,2.78,5.79,5.79,0,0,1-.83,7.55,7.13,7.13,0,0,1-5,1.69A7.92,7.92,0,0,1,291,57.4L294,54.2a6.6,6.6,0,0,0,2,1.59,4.25,4.25,0,0,0,2,.6,2.32,2.32,0,0,0,1.52-.46,1.32,1.32,0,0,0,.58-1c0-.74-.69-1.45-2.08-2.15l-1.67-.9c-3.08-1.55-4.61-3.49-4.61-5.82a5,5,0,0,1,1.74-3.85,6.28,6.28,0,0,1,4.44-1.6,7.78,7.78,0,0,1,6.26,3.15Z"/><path class="cls-2" d="M323,41.1v2.1a8.91,8.91,0,0,1,2.8-1.94,7.84,7.84,0,0,1,3.21-.65,8.29,8.29,0,0,1,6.33,2.82,10.23,10.23,0,0,1,2.6,7.21,10,10,0,0,1-2.65,7.11,8.51,8.51,0,0,1-6.38,2.85,7.92,7.92,0,0,1-3.05-.58,9.1,9.1,0,0,1-2.82-1.92v9H318.3v-26ZM328,45a5,5,0,0,0-3.71,1.53,5.53,5.53,0,0,0-1.49,4,5.68,5.68,0,0,0,1.49,4.1A4.92,4.92,0,0,0,328,56.21a4.81,4.81,0,0,0,3.67-1.59,6.21,6.21,0,0,0,0-8.06A4.89,4.89,0,0,0,328,45Z"/><path class="cls-2" d="M340.78,41.1h4.09v2.4a4.94,4.94,0,0,1,1.77-2.15,4.23,4.23,0,0,1,2.41-.74,4.72,4.72,0,0,1,1.94.49l-1.49,4.11a3.41,3.41,0,0,0-1.38-.42,2.17,2.17,0,0,0-1.82,1.36c-.51.91-.76,2.7-.76,5.35v8.61H340.8Z"/><path class="cls-2" d="M372.39,52H357.07a5.1,5.1,0,0,0,1.77,3.22,5.55,5.55,0,0,0,3.68,1.2,6.33,6.33,0,0,0,4.59-1.87l4,1.89a9.43,9.43,0,0,1-3.6,3.15,11.33,11.33,0,0,1-5,1,9.82,9.82,0,0,1-7.21-2.81,9.55,9.55,0,0,1-2.82-7.07,9.86,9.86,0,0,1,2.82-7.22,9.39,9.39,0,0,1,7-2.88,9.79,9.79,0,0,1,7.3,2.88,10.35,10.35,0,0,1,2.82,7.59Zm-4.77-3.76a4.92,4.92,0,0,0-1.86-2.59,5.44,5.44,0,0,0-3.23-1,5.71,5.71,0,0,0-3.5,1.12,6,6,0,0,0-1.73,2.46Z"/><path class="cls-2" d="M394.86,45l-4,2.18a7.21,7.21,0,0,0-2.21-1.63,6.67,6.67,0,0,0-2.57-.45,6,6,0,0,0-4.33,1.6,5.39,5.39,0,0,0-1.65,4.09,5.23,5.23,0,0,0,1.59,4,5.75,5.75,0,0,0,4.18,1.53,6.06,6.06,0,0,0,5-2.18l3.76,2.57a11.53,11.53,0,0,1-16.49,1,9.89,9.89,0,0,1,.08-14,9.77,9.77,0,0,1,2.32-1.7,11.55,11.55,0,0,1,5.53-1.33,11.22,11.22,0,0,1,5.08,1.13A9.66,9.66,0,0,1,394.86,45Z"/><path class="cls-2" d="M401,33.27a2.92,2.92,0,0,1,2.15.91,3.13,3.13,0,0,1,0,4.38,2.88,2.88,0,0,1-2.13.9,3,3,0,0,1-2.17-.92A3.07,3.07,0,0,1,401,33.31Zm-2.39,7.83h4.77v19h-4.77Z"/><path class="cls-2" d="M416.67,40.61A10.09,10.09,0,0,1,421.72,42a9.75,9.75,0,0,1,3.7,3.65,10,10,0,0,1,0,10,9.62,9.62,0,0,1-3.64,3.66,10.1,10.1,0,0,1-5.09,1.32,9.45,9.45,0,0,1-7-2.91,10.07,10.07,0,0,1,.11-14.24l.27-.25A9.55,9.55,0,0,1,416.67,40.61Zm.07,4.49a4.91,4.91,0,0,0-3.7,1.55,5.48,5.48,0,0,0-1.48,4,5.57,5.57,0,0,0,1.47,4,5.24,5.24,0,0,0,7.41,0h0a6.13,6.13,0,0,0,0-8A5,5,0,0,0,416.74,45.1Z"/><path class="cls-2" d="M442.3,43.76l-3,3A5,5,0,0,0,436,45a2,2,0,0,0-1.26.34,1,1,0,0,0-.16,1.55,5.23,5.23,0,0,0,1.42.89l1.75.87a10.53,10.53,0,0,1,3.79,2.78,5.79,5.79,0,0,1-.83,7.55,7.13,7.13,0,0,1-5,1.69,7.92,7.92,0,0,1-6.64-3.25L432,54.2a6.73,6.73,0,0,0,2,1.59,4.25,4.25,0,0,0,2,.6,2.32,2.32,0,0,0,1.52-.46,1.32,1.32,0,0,0,.58-1c0-.74-.69-1.45-2.08-2.15L434.45,52c-3.08-1.55-4.61-3.49-4.61-5.82a5,5,0,0,1,1.74-3.85A6.32,6.32,0,0,1,436,40.7,7.79,7.79,0,0,1,442.3,43.76Z"/><path class="cls-1" d="M.41,104.45a1.85,1.85,0,0,1-.3-1.79c.13-.34.35-1,.65-1.9a22.3,22.3,0,0,1,1-2.49A71.24,71.24,0,0,1,9.88,85.21a38.37,38.37,0,0,0,2.89-4.69q2.6-4.48,5-9.37a7,7,0,0,0,.6-.75,7.11,7.11,0,0,1,.69-.85,3.66,3.66,0,0,1,.9-.3,1.8,1.8,0,0,1,.8,0,1.79,1.79,0,0,1,.8,1.5,1.61,1.61,0,0,1-.2.7,3.09,3.09,0,0,1-.5.7,23.73,23.73,0,0,1-2,2.69.42.42,0,0,0,.1.2,1.26,1.26,0,0,1,.2.2A20.38,20.38,0,0,1,22,73a42.36,42.36,0,0,1,3.88-2.19,3.4,3.4,0,0,1,1.3-.2,2.6,2.6,0,0,1,1.94.75,2.49,2.49,0,0,1,.75,1.84,4.63,4.63,0,0,1-.2,1.1A8.58,8.58,0,0,1,29,75.93c-.29.6-.54,1.14-.74,1.6l-.9,1.4a11.08,11.08,0,0,0,5-1.6,6.32,6.32,0,0,1,1.4-.7H34a1.49,1.49,0,0,1,1.1.4,2.05,2.05,0,0,1,.1.65,1.34,1.34,0,0,1-.1.55,6.31,6.31,0,0,1-2,1.59,14.77,14.77,0,0,1-6,1.9,11.86,11.86,0,0,0-5.88,1.89,9,9,0,0,1-5.09,1.7,9.85,9.85,0,0,1-2.29-.3L13,86.7q-3,5.39-7.28,14.36c-1,1.53-1.69,2.56-2.09,3.09a2.52,2.52,0,0,1-1.8,1A1.81,1.81,0,0,1,.41,104.45ZM18.85,79.82l2.7-.2a11.34,11.34,0,0,0,1.29-.4,14.3,14.3,0,0,0,3.59-4.48l.3-1.4a16.42,16.42,0,0,0-3.34,2c-1,.76-1.89,1.53-2.79,2.29a18.28,18.28,0,0,0-1.94,1.79Zm11.27,2.4a3.83,3.83,0,0,1,.3-1.5,16.34,16.34,0,0,1,5.38-7.48,8.94,8.94,0,0,1,1.6-.89,4,4,0,0,1,1.69-.4,3.76,3.76,0,0,1,2.79,1.69,5.35,5.35,0,0,0,.8.7,4.31,4.31,0,0,0,1.4-.9,1.61,1.61,0,0,1,.7-.2,1.21,1.21,0,0,1,.89.4,1.13,1.13,0,0,1,.4.8,3.16,3.16,0,0,1-.2.9L44.58,77a14.45,14.45,0,0,0-2.4,4.39c.27-.13.53-.25.8-.35a3.3,3.3,0,0,0,.8-.45l2.59-2c2.06-1.53,3.66-2.8,4.79-3.79a2.81,2.81,0,0,1,.69-.6,1.25,1.25,0,0,1,.6-.1c.53,0,.85.15,1,.45a.87.87,0,0,1-.15.85,7.65,7.65,0,0,1-.9,1.29Q49.76,79,48.56,80a36.42,36.42,0,0,1-3.68,2.6,3.71,3.71,0,0,1-2.1.89,2.7,2.7,0,0,1-.8.1,1.88,1.88,0,0,1-1.44-.6A2.41,2.41,0,0,1,40,81.32a8.75,8.75,0,0,0,.2-1.6,13.48,13.48,0,0,0-1.5,1c-1.93,1.26-3.55,2.26-4.88,3a4.73,4.73,0,0,1-1.8.6,1.66,1.66,0,0,1-1.19-.5A2.21,2.21,0,0,1,30.12,82.22Zm7.33-3.49A17.06,17.06,0,0,0,40.59,76c-.47-.86-.93-1.29-1.4-1.29a1.8,1.8,0,0,0-1.19.5,9.32,9.32,0,0,0-2.5,2.39,28.28,28.28,0,0,0-2,3.29A16.84,16.84,0,0,0,37.45,78.73Zm10.42,4a10.73,10.73,0,0,1,.3-1.39l1.09-2.49,1.5-3.39a5.25,5.25,0,0,1,1-1.65,1.37,1.37,0,0,1,1-.45,4.13,4.13,0,0,1,2.2.9c.19-.13.44-.28.74-.45a6.38,6.38,0,0,1,1-.45,6.7,6.7,0,0,1,2-.6h.5A1.6,1.6,0,0,1,61,74v.4c0,.73-.54,1.26-1.6,1.59a13.9,13.9,0,0,0-7.64,7l-.2.4a2.19,2.19,0,0,1-2.5,1,1.74,1.74,0,0,1-1.19-1.69ZM58,82.22a3.83,3.83,0,0,1,.3-1.5,16.34,16.34,0,0,1,5.38-7.48,8.36,8.36,0,0,1,1.6-.89A4.08,4.08,0,0,1,67,72a3.76,3.76,0,0,1,2.79,1.69,5.35,5.35,0,0,0,.8.7,4.48,4.48,0,0,0,1.4-.9,1.53,1.53,0,0,1,.69-.2,1.24,1.24,0,0,1,.9.4,1.13,1.13,0,0,1,.4.8,3.16,3.16,0,0,1-.2.9L72.49,77a14.64,14.64,0,0,0-2.39,4.39c.27-.13.53-.25.8-.35a3.67,3.67,0,0,0,.8-.45l2.59-2c2.06-1.53,3.65-2.8,4.78-3.79a2.86,2.86,0,0,1,.7-.6,1.25,1.25,0,0,1,.6-.1c.53,0,.85.15,1,.45a.87.87,0,0,1-.15.85,7.65,7.65,0,0,1-.9,1.29Q77.66,79,76.48,80a35.46,35.46,0,0,1-3.69,2.6,3.65,3.65,0,0,1-2.09.89,2.7,2.7,0,0,1-.8.1,1.88,1.88,0,0,1-1.44-.6,2.41,2.41,0,0,1-.55-1.69,8.75,8.75,0,0,0,.2-1.6,13.48,13.48,0,0,0-1.5,1c-1.93,1.26-3.55,2.26-4.88,3a4.73,4.73,0,0,1-1.8.6,1.7,1.7,0,0,1-1.2-.5A2.19,2.19,0,0,1,58,82.22Zm7.32-3.49A16.93,16.93,0,0,0,68.51,76c-.47-.86-.94-1.29-1.4-1.29a1.88,1.88,0,0,0-1.2.5,9.28,9.28,0,0,0-2.49,2.39,28.28,28.28,0,0,0-2,3.29,16.77,16.77,0,0,0,3.94-2.16Zm26.18,31.5a3,3,0,0,1,.4-1.49q.39-.81.84-1.95c.3-.76.59-1.41.85-1.94a134.72,134.72,0,0,0,5.91-12.66c.4-.8.94-2,1.6-3.59q2.3-5.58,4.19-9.67a3.61,3.61,0,0,0,.2-1.3,3,3,0,0,0-.2-1.3,5.55,5.55,0,0,0-2.3-3.19,33.54,33.54,0,0,0-3.29-2c-.53-.27-1.18-.57-1.94-.9l-1.85-.8a13.39,13.39,0,0,1-2.19-1.29A3.37,3.37,0,0,1,92,65.47,3.16,3.16,0,0,1,93.43,63a13.9,13.9,0,0,1,4.09-2.39,56.83,56.83,0,0,1,6.68-1.7c2.19-.26,3.92-.43,5.18-.49l3.29-.3,1-2c.41-.82.78-1.61,1.25-2.54l4-6.88c.66-1.06,1.33-1.39,2-1a1,1,0,0,1,.5.9,3.59,3.59,0,0,1-.3,1.2q-1.4,3-4,9a4.16,4.16,0,0,0-.5,1.5l1.1.1,5.38.3a8.85,8.85,0,0,1,1.7.19,1,1,0,0,1,1,.8c0,.54-.34.87-1,1a5.36,5.36,0,0,1-1.2.1c-3.12,0-5.48,0-7.08-.1h-.3a1.43,1.43,0,0,0-1.19.9l-6.68,16a2.44,2.44,0,0,0-.3,1.1,22.24,22.24,0,0,1-2.49,8.57q-2.4,5-4.19,8.08a92.36,92.36,0,0,0-4.39,9q-.3.8-2.39,5.19a4.36,4.36,0,0,0-.35.64,3.83,3.83,0,0,1-.45.75,1.42,1.42,0,0,1-1.1.6c-.79,0-1.15-.42-1.15-1.29Zm5.28-43.07c1.6.8,2.56,1.26,2.89,1.4l2.3,1.09a12.5,12.5,0,0,1,4.68,4.19l.4.5,2.59-6.18a1.17,1.17,0,0,0,.1-.8,3.08,3.08,0,0,1-.1-.8,5.1,5.1,0,0,1,.2-1.29,6.78,6.78,0,0,1,.3-.9l1.2-3.59a2.58,2.58,0,0,0-1.2-.1c-2.06.2-4.78.56-8.17,1.1a13.72,13.72,0,0,0-5.59,2,5.53,5.53,0,0,0-1.49,1.1q-.8.6,0,1.29a17.41,17.41,0,0,0,1.92,1Zm13.36,15a9.44,9.44,0,0,1,.2-1.4,17,17,0,0,1,2.89-6.48,3.66,3.66,0,0,1,1-1,2,2,0,0,1,1.1-.4,1.37,1.37,0,0,1,.89.3,1.26,1.26,0,0,1,.61,1.69h0c-.26,1.19-.63,1.93-1.1,2.19a3.55,3.55,0,0,0-1.29,1.45,11.13,11.13,0,0,0-.65,1.69c-.17.57-.28,1-.35,1.35l.3.3c.2-.14.47-.3.8-.5s.7-.43,1.1-.7L120.55,77a15,15,0,0,1,2.59-1.59,2.32,2.32,0,0,1,1.1-.2,1.79,1.79,0,0,1,1.45.64,2.68,2.68,0,0,1,.54,1.75l-.1,1.89a2.37,2.37,0,0,0,.5,1.4,2,2,0,0,0,1.4.4,9.31,9.31,0,0,0,1.39-.2A44.56,44.56,0,0,0,138.7,78l3.49-1.6a2.75,2.75,0,0,1,1.29-.3,1.93,1.93,0,0,1,.85.2.89.89,0,0,1,.55.6l.1.3a1.29,1.29,0,0,1-.4.9c-.07.26-.33.46-.8.6-2.66,1.39-5,2.51-7.08,3.34a39.08,39.08,0,0,1-6.28,2,13,13,0,0,1-2.79.3c-2.67,0-4.16-1.3-4.49-3.89l-.2-1.39c-.46.33-.91.68-1.34,1a13.72,13.72,0,0,1-1.45,1c-2.79,1.93-4.42,3-4.88,3.29a3.82,3.82,0,0,1-2.2.8,2.81,2.81,0,0,1-1.69-.6,3,3,0,0,1-1.2-2.44Zm29.91,2.69a2.27,2.27,0,0,1-1.14-.75,1.82,1.82,0,0,1,0-2.34,10.17,10.17,0,0,1,1.79-1.8,11.35,11.35,0,0,1,1.75-1.09,22.44,22.44,0,0,0,1.94-1.2,8.66,8.66,0,0,0-1.79-.5,18,18,0,0,1-1.9-.7,1.61,1.61,0,0,1-1-1.49,1.33,1.33,0,0,1,.6-1.2A8.85,8.85,0,0,1,146,71.65a1.44,1.44,0,0,1,1,.4,1.15,1.15,0,0,1,.45.89c0,.67-.5,1.07-1.49,1.2l-1.2.2-.8.4a28.87,28.87,0,0,0,3.59,1.49l.3.1a2,2,0,0,0,.6-.1l.6-.2,3.79-1.09,4.48-1.2a5,5,0,0,1,1.8-.3c.13,0,.46.27,1,.8v.1a1.17,1.17,0,0,1-.5,1.1,4,4,0,0,1-1.79.59c-1.79.6-3.89,1.2-6.28,1.8l-2.09.7a3.32,3.32,0,0,1,.09.89,3.26,3.26,0,0,1-.59,2,7.4,7.4,0,0,1-1.8,1.59,11.79,11.79,0,0,1-4.88,1.9,18,18,0,0,1-2.2-.1Zm6.58-5.09a19.51,19.51,0,0,0-5,2.5,5.33,5.33,0,0,0,5-2.54Zm32.8,5a1.54,1.54,0,0,1-1.49-1.5,1.67,1.67,0,0,1,.4-1.09l2.29-2.4c.33-.4.82-.93,1.45-1.59a9.51,9.51,0,0,0,1.44-1.9l1.9-3.19q3.39-5.58,4.88-8.47,1.2-2.3,2.1-4.19c.59-1.26,1.16-2.42,1.69-3.49l2.1-4.49a.7.7,0,0,1,.05-.25.92.92,0,0,1,.24-.34,1,1,0,0,1,1-.7,1.3,1.3,0,0,1,1,.4,1.4,1.4,0,0,1,.35,1,3.42,3.42,0,0,1-.3,1.25l-.4,1a186.89,186.89,0,0,1-8.87,17.74l-1.1,1.9,1.39-.4,1.55-.45c.56-.16,1.18-.31,1.84-.45a7.12,7.12,0,0,1,1.3-.1c2.26,0,3.39,1.37,3.39,4.09L199,77c3.05-.73,5.11-1.2,6.18-1.39a2.74,2.74,0,0,1,.9-.1h.3a1.16,1.16,0,0,1,1.29,1v.2c0,.47-.36.83-1.1,1.1s-1.58.5-2.39.7L198.32,80a24.42,24.42,0,0,0-7.08,2.69,16.86,16.86,0,0,1-3.49,1.5,5.91,5.91,0,0,1-1.1.2,1.39,1.39,0,0,1-1.49-1,1.09,1.09,0,0,1-.1-.5c0-.66.5-1.19,1.49-1.59q1.9-.9,4.29-1.8a8.09,8.09,0,0,0,3.39-2.5,2.17,2.17,0,0,0,.4-.6q.17-.34.3-.69l-2.09.19a17.9,17.9,0,0,0-9.88,6,20.75,20.75,0,0,1-2.39,2.39,1.75,1.75,0,0,1-1.1.42Zm28.52-1a5.72,5.72,0,0,1-2.79-1.89,4.8,4.8,0,0,1-1-3,13.83,13.83,0,0,1,.2-1.7,9.75,9.75,0,0,1,4.29-5.78,4.79,4.79,0,0,1,2.59-.8A3.48,3.48,0,0,1,213,71a3.18,3.18,0,0,1,1.55,1.25,3.31,3.31,0,0,1,.55,1.84,5,5,0,0,1-1.7,3.49,5.4,5.4,0,0,1-3.49,1.79,6.85,6.85,0,0,1-1.49-.2l-1.3-.29A2.16,2.16,0,0,0,209,81a9.75,9.75,0,0,0,2.89.4,19.78,19.78,0,0,0,11.26-3.69,2.4,2.4,0,0,1,1.3-.6h.3c.6,0,.93.1,1,.3a1.15,1.15,0,0,1,.2.7,2.42,2.42,0,0,1-.1.7,3.39,3.39,0,0,1-1.1,1.19,24.56,24.56,0,0,1-13.26,4.29,10.6,10.6,0,0,1-3.49-.58Zm2.19-7.58c.67,0,1.23-.43,1.7-1.29a1.74,1.74,0,0,0,.25-.6.85.85,0,0,0,0-.5,1.43,1.43,0,0,0-1.3-.3,3.86,3.86,0,0,0-2.39,2.1,4.8,4.8,0,0,0,1.82.54Zm9.67,8.58a1.54,1.54,0,0,1-1.49-1.5,1.67,1.67,0,0,1,.4-1.09l2.29-2.4c.33-.4.82-.93,1.45-1.59a9.51,9.51,0,0,0,1.44-1.9l1.9-3.19q3.39-5.58,4.88-8.47,1.2-2.3,2.1-4.19c.59-1.26,1.16-2.42,1.69-3.49l2.09-4.49a1,1,0,0,1,0-.25,1.07,1.07,0,0,1,.25-.34,1,1,0,0,1,1-.7,1.3,1.3,0,0,1,1.05.4,1.4,1.4,0,0,1,.35,1,3.42,3.42,0,0,1-.3,1.25l-.4,1a183.47,183.47,0,0,1-8.88,17.74l-1.09,1.9L230,74l1.55-.45c.56-.16,1.18-.31,1.84-.45a7.12,7.12,0,0,1,1.3-.1c2.26,0,3.39,1.37,3.39,4.09l1.3-.1c3.05-.73,5.11-1.2,6.18-1.39a2.74,2.74,0,0,1,.9-.1h.29a1.15,1.15,0,0,1,1.3,1v.2c0,.47-.37.83-1.1,1.1s-1.58.5-2.39.7L238.7,80a24.42,24.42,0,0,0-7.08,2.69,16.86,16.86,0,0,1-3.49,1.5,5.91,5.91,0,0,1-1.1.2,1.39,1.39,0,0,1-1.49-1,1.09,1.09,0,0,1-.1-.5c0-.66.5-1.19,1.49-1.59q1.9-.9,4.29-1.8a8,8,0,0,0,3.39-2.5,2.17,2.17,0,0,0,.4-.6q.17-.34.3-.69l-2.1.19a17.87,17.87,0,0,0-9.87,6A20.75,20.75,0,0,1,221,84.29a1.75,1.75,0,0,1-1.1.42Zm25-1.4a2.55,2.55,0,0,1-.7-1.89,8.5,8.5,0,0,1,.5-2A27.49,27.49,0,0,1,246.37,76a36.88,36.88,0,0,1,2.4-3.29c.2-.2.43-.41.69-.64s.57-.49.9-.75a1.73,1.73,0,0,1,.9-.3,1.4,1.4,0,0,1,.9.3,1.52,1.52,0,0,1,.55.75,1.11,1.11,0,0,1,0,.84c-.34.6-.64,1.08-.9,1.45a11.54,11.54,0,0,0-.8,1.25.62.62,0,0,1-.4.39A4.12,4.12,0,0,0,249,77.25a10,10,0,0,0-1.1,2,18.4,18.4,0,0,1-.85,1.8l.4.4a10.57,10.57,0,0,0,2.09-.4,33,33,0,0,0,11-5.09c.27-.2.65-.46,1.15-.79a13.29,13.29,0,0,1,1.35-.8,1.51,1.51,0,0,1,1.09-.5,1.13,1.13,0,0,1,.8.4.82.82,0,0,1,.3.6c0,.33-.27.7-.8,1.09l-1.79,1.6a35.08,35.08,0,0,1-13.46,6.28,20.13,20.13,0,0,1-2.2.1,2.68,2.68,0,0,1-2.07-.63ZM251,68.51a1.67,1.67,0,0,0,.25-.4c.1-.2.35-.33.75-.4q1.78-.3,2.19,0l1.1.6.1.79.1.4c0,.4-.27.6-.8.6a9.94,9.94,0,0,1-2.49-.2l-.55-.15a.81.81,0,0,1-.45-.25l-.4-.4a1.14,1.14,0,0,1,.26-.64Zm25.22,15.65a4.13,4.13,0,0,1-3-1.25,5.87,5.87,0,0,1-1.54-3.44,12.69,12.69,0,0,1-.1-1.74v-1.6c-.87.74-1.4,1.17-1.6,1.3-.93.67-1.63,1.2-2.09,1.6l-3.19,2.29c-.2.13-.93.56-2.19,1.3a6.71,6.71,0,0,1-1.1.09,2.31,2.31,0,0,1-1.7-.59,1.84,1.84,0,0,1-.5-1.3,2.92,2.92,0,0,1,.3-1.3,2.5,2.5,0,0,0,.2-.64,1.48,1.48,0,0,1,.4-.75,20.21,20.21,0,0,1,5.49-5.68,8,8,0,0,1,4.08-1.4,4.74,4.74,0,0,1,2,.4h.3a1.17,1.17,0,0,0,1-.6,3,3,0,0,0,.65-.95,6.25,6.25,0,0,1,.45-.85l1.2-2.29c.33-.53.83-1.39,1.49-2.59a34.41,34.41,0,0,1,1.9-3.09,45.74,45.74,0,0,1,4.68-5.88,13.86,13.86,0,0,1,2.1-1.8,2.77,2.77,0,0,1,1.49-.5,1.49,1.49,0,0,1,1.1.4,1.43,1.43,0,0,1,.7,1.2,2.85,2.85,0,0,1-.5,1.49,12.23,12.23,0,0,0-.8,1.3,6.44,6.44,0,0,1-1.1,1.5q-5.77,7.58-9,11.26a10.25,10.25,0,0,0-2.19,3.49,16.41,16.41,0,0,0-.9,4.39v.8a2.76,2.76,0,0,0,1.1,2.49,2,2,0,0,0,1,.2,3.6,3.6,0,0,0,2.3-.9c1.46-1,3.59-2.57,6.38-4.69a4.51,4.51,0,0,1,1.69-.79,1.32,1.32,0,0,1,.8.3,1,1,0,0,1,.3.79,2.5,2.5,0,0,1-.9,1.7,33.51,33.51,0,0,1-8.17,5.68,6,6,0,0,1-2.47.6ZM269.8,74a6.91,6.91,0,0,0-3.64,1.55,10.67,10.67,0,0,0-3,3.44A43.65,43.65,0,0,0,269.8,74Zm12.47,8.18a3.83,3.83,0,0,1,.3-1.5A16.34,16.34,0,0,1,288,73.2a8.36,8.36,0,0,1,1.6-.89,4,4,0,0,1,1.69-.4A3.77,3.77,0,0,1,294,73.64a5.35,5.35,0,0,0,.8.7,4.48,4.48,0,0,0,1.4-.9,1.53,1.53,0,0,1,.69-.2,1.24,1.24,0,0,1,.9.4,1.13,1.13,0,0,1,.4.8,3.16,3.16,0,0,1-.2.9L296.72,77a14.64,14.64,0,0,0-2.39,4.39c.27-.13.53-.25.8-.35a3.67,3.67,0,0,0,.8-.45l2.59-2c2.06-1.53,3.65-2.8,4.78-3.79a2.86,2.86,0,0,1,.7-.6,1.25,1.25,0,0,1,.6-.1c.53,0,.85.15,1,.45a.87.87,0,0,1-.15.85,7.65,7.65,0,0,1-.9,1.29Q301.91,79,300.71,80A35.46,35.46,0,0,1,297,82.6a3.65,3.65,0,0,1-2.09.89,2.7,2.7,0,0,1-.8.1,1.88,1.88,0,0,1-1.44-.6,2.41,2.41,0,0,1-.55-1.69,8.75,8.75,0,0,0,.2-1.6,13.48,13.48,0,0,0-1.5,1q-2.89,1.89-4.88,3a4.73,4.73,0,0,1-1.8.6,1.7,1.7,0,0,1-1.2-.5,2.24,2.24,0,0,1-.69-1.58Zm7.33-3.49a17.23,17.23,0,0,0,3.14-2.7c-.47-.86-.94-1.29-1.4-1.29a1.88,1.88,0,0,0-1.2.5,9.28,9.28,0,0,0-2.49,2.39,28.28,28.28,0,0,0-2,3.29,16.8,16.8,0,0,0,4-2.15Zm12.51,6.08A2.23,2.23,0,0,1,301,84a1.82,1.82,0,0,1-.45-1.15,1.9,1.9,0,0,1,.4-1.19,11,11,0,0,1,1.8-1.8,12.07,12.07,0,0,1,1.74-1.09,20.38,20.38,0,0,0,1.95-1.2,8.58,8.58,0,0,0-1.8-.5,18.67,18.67,0,0,1-1.89-.7,1.61,1.61,0,0,1-1-1.49,1.33,1.33,0,0,1,.6-1.2,8.81,8.81,0,0,1,5.7-2,1.49,1.49,0,0,1,1,.4,1.15,1.15,0,0,1,.45.89q0,1-1.5,1.2l-1.2.2-.79.4a27.43,27.43,0,0,0,3.59,1.49l.29.1a2,2,0,0,0,.6-.1l.6-.2,3.79-1.09,4.49-1.2a5,5,0,0,1,1.79-.3c.13,0,.47.27,1,.8v.1a1.17,1.17,0,0,1-.5,1.1,4,4,0,0,1-1.79.59c-1.8.6-3.89,1.2-6.29,1.8l-2.09.7a3,3,0,0,1,.1.89,3.21,3.21,0,0,1-.6,2A7.58,7.58,0,0,1,309.19,83a11.88,11.88,0,0,1-4.89,1.9,16,16,0,0,1-2.19-.09Zm6.58-5.09a19.51,19.51,0,0,0-5,2.5,5.35,5.35,0,0,0,5-2.46ZM340,94.93a1.69,1.69,0,0,1-.59-1.25,5.19,5.19,0,0,1,.79-2.49l3.59-6.88.8-1.69a4.35,4.35,0,0,1-1.69-.5,2.44,2.44,0,0,1-1.1-1.4,2,2,0,0,1,.25-.9,1,1,0,0,1,.65-.6,8.63,8.63,0,0,1,3.3-1.09A3.36,3.36,0,0,0,347.8,77a3,3,0,0,0,.4-2,3.07,3.07,0,0,1-.1-.9,1,1,0,0,1,.35-.85,3.53,3.53,0,0,1,1.15-.45,1.42,1.42,0,0,0,1-.64l.45-.75,3.59-5.59q1.89-3.09,5.88-9.07,1.91-2.91,5.39-7.18a15.67,15.67,0,0,1,2.39-2.29,3.64,3.64,0,0,1,1.9-.7,2.32,2.32,0,0,1,1.09.3,2.41,2.41,0,0,1,1.1,2.89,18.79,18.79,0,0,1-1.6,4.29,79.13,79.13,0,0,1-12.06,17q-2.3,2.38-3.89,3.74a10.86,10.86,0,0,1-3.69,2,.56.56,0,0,1,.1.4,15.92,15.92,0,0,0,2.19-.2l15.06-1,3.09-.39h.4a1,1,0,0,1,1.18.78.78.78,0,0,1,0,.22v.3a.89.89,0,0,1-.35.7,1.91,1.91,0,0,1-.85.4c-3.59.66-5.82,1-6.68,1.09-2.26.2-5.65.44-10.17.7l-2,.2a7.16,7.16,0,0,0,1.09.5c.33.07.78.19,1.35.35a5.81,5.81,0,0,1,1.34.55,2,2,0,0,1,1.4,1.89,2.83,2.83,0,0,1-.5,1.5,12.51,12.51,0,0,1-1.89,1.89,99.88,99.88,0,0,1-12.37,8.18,7.82,7.82,0,0,1-2.19.6A2,2,0,0,1,340,94.93Zm9.43-6.83q4.57-3.1,5.41-4.49a30.2,30.2,0,0,0-6.28-.9,1,1,0,0,0-.6.2,3.81,3.81,0,0,0-.5.4q-2.79,5.39-4.29,8.08,1.6-.19,6.24-3.29Zm10.91-23a75.42,75.42,0,0,0,5.94-8.48q2.64-4.38,2.94-6.48a70,70,0,0,0-5.39,6.73q-2.49,3.54-5.68,8.73l-3,4.78a26,26,0,0,0,5.17-5.31Zm7.38,17.15a3.83,3.83,0,0,1,.3-1.5,16.34,16.34,0,0,1,5.38-7.48,8.94,8.94,0,0,1,1.6-.89,4,4,0,0,1,1.7-.4,3.76,3.76,0,0,1,2.79,1.69,5.27,5.27,0,0,0,.79.7,4.31,4.31,0,0,0,1.4-.9,1.61,1.61,0,0,1,.7-.2,1.24,1.24,0,0,1,.9.4,1.16,1.16,0,0,1,.39.8,3.15,3.15,0,0,1-.19.9L382.17,77a14.64,14.64,0,0,0-2.39,4.39c.26-.13.53-.25.79-.35a3,3,0,0,0,.8-.45l2.59-2c2.06-1.53,3.66-2.8,4.79-3.79.4-.4.63-.6.7-.6a1.25,1.25,0,0,1,.6-.1c.53,0,.84.15.94.45a.87.87,0,0,1-.15.85,8,8,0,0,1-.89,1.29c-1.73,1.53-3,2.63-3.79,3.29a35.46,35.46,0,0,1-3.69,2.6,3.71,3.71,0,0,1-2.1.89,2.6,2.6,0,0,1-.79.1,1.88,1.88,0,0,1-1.45-.6,2.41,2.41,0,0,1-.55-1.69,7.87,7.87,0,0,0,.2-1.6,14.36,14.36,0,0,0-1.49,1q-2.9,1.89-4.89,3a4.74,4.74,0,0,1-1.79.6,1.7,1.7,0,0,1-1.2-.5,2.26,2.26,0,0,1-.7-1.56ZM375,78.73a16.9,16.9,0,0,0,3.14-2.7c-.46-.86-.93-1.29-1.4-1.29a1.9,1.9,0,0,0-1.19.5,9.28,9.28,0,0,0-2.49,2.39,28.28,28.28,0,0,0-2,3.29A16.88,16.88,0,0,0,375,78.73ZM391.24,84a2.46,2.46,0,0,1-2-1,4.38,4.38,0,0,1-.75-2.74,18.84,18.84,0,0,1,.35-3.44c.23-1.29.38-2.24.45-2.84a2,2,0,0,1,.4-1.1,1.47,1.47,0,0,1,1.29-.79,1.66,1.66,0,0,1,1.15.39,1.27,1.27,0,0,1,.45,1,21.4,21.4,0,0,1-.2,2.39c-.07.34-.19,1-.35,1.9a8.37,8.37,0,0,0,0,2.69,5.48,5.48,0,0,1,1-.6,3.42,3.42,0,0,0,.94-.6c2.53-2.12,4.42-3.75,5.69-4.88l.84-.85.85-.85a1.17,1.17,0,0,1,1.6-.1,1.21,1.21,0,0,1,.4,1.6,8.53,8.53,0,0,1-.7,1.2,28.53,28.53,0,0,1-8.78,7.87l-.2.1A5.86,5.86,0,0,1,391.24,84Zm13.06-1.59a4,4,0,0,1-.9-3.1,9.19,9.19,0,0,1,1.45-3.63,9.87,9.87,0,0,1,3-3,5.33,5.33,0,0,1,2.24-.59c.9-.07,1.45-.1,1.65-.1h.2c.73,0,1.4.49,2,1.49a4.61,4.61,0,0,1,.8,2.39,4.37,4.37,0,0,1-.5,1.9A9.57,9.57,0,0,1,407,83.11a2.89,2.89,0,0,1-2.71-.69Zm7-5.19a4.22,4.22,0,0,0,.5-1.3,1.67,1.67,0,0,0-.4-1.09,11.56,11.56,0,0,1-1.2,1,3.08,3.08,0,0,1-.44.35,1.11,1.11,0,0,1-.55.25,2.12,2.12,0,0,0-1.9,1.2c-.06.13-.25.45-.55,1a2.18,2.18,0,0,0-.24,1.64,7.55,7.55,0,0,0,4.76-3Zm3.49,5.48a10.73,10.73,0,0,1,.3-1.39l1.1-2.49,1.49-3.39a5.25,5.25,0,0,1,1-1.65,1.41,1.41,0,0,1,1-.45,4.13,4.13,0,0,1,2.19.9l.75-.45a6.38,6.38,0,0,1,1-.45,6.7,6.7,0,0,1,2-.6h.5a1.59,1.59,0,0,1,1.79,1.2v.4q0,1.08-1.59,1.59A14,14,0,0,0,418.66,83l-.2.4a2.19,2.19,0,0,1-2.49,1,1.74,1.74,0,0,1-1.2-1.69Zm13.16.6a2.59,2.59,0,0,1-.7-1.89,8.5,8.5,0,0,1,.5-2,26.18,26.18,0,0,1,1.7-3.39,34.9,34.9,0,0,1,2.39-3.29c.2-.2.43-.41.7-.64s.56-.49.89-.75a1.82,1.82,0,0,1,.9-.3,1.4,1.4,0,0,1,.9.3,1.52,1.52,0,0,1,.55.75,1.07,1.07,0,0,1,0,.84,14.55,14.55,0,0,1-.9,1.45,11.54,11.54,0,0,0-.8,1.25.6.6,0,0,1-.4.39A4.08,4.08,0,0,0,432,77.28a10,10,0,0,0-1.1,2,14,14,0,0,1-.85,1.8l.4.4a10.67,10.67,0,0,0,2.1-.4,33,33,0,0,0,11-5.09c.26-.2.64-.46,1.14-.79a13.29,13.29,0,0,1,1.35-.8,1.53,1.53,0,0,1,1.09-.5,1.09,1.09,0,0,1,.8.4.82.82,0,0,1,.3.6c0,.33-.26.7-.8,1.09l-1.79,1.6a35,35,0,0,1-13.46,6.28A20.06,20.06,0,0,1,430,84a2.7,2.7,0,0,1-2.07-.66Zm6.18-14.85a1.67,1.67,0,0,0,.25-.4c.1-.2.35-.33.75-.4q1.8-.3,2.19,0l1.1.6.1.79.1.4c0,.4-.27.6-.8.6a9.94,9.94,0,0,1-2.49-.2l-.55-.15a.81.81,0,0,1-.45-.25l-.4-.4a1.17,1.17,0,0,1,.18-.58ZM431,110.23a3,3,0,0,1,.4-1.49c.27-.53.55-1.18.85-1.95s.58-1.41.84-1.94A134.72,134.72,0,0,0,439,92.19c.4-.8.93-2,1.59-3.59q2.29-5.58,4.19-9.67a3.61,3.61,0,0,0,.2-1.3,3,3,0,0,0-.2-1.3,5.58,5.58,0,0,0-2.29-3.19,33.54,33.54,0,0,0-3.29-2q-.79-.42-1.95-.9l-1.84-.8a13.48,13.48,0,0,1-2.2-1.29,3.37,3.37,0,0,1-1.69-2.69,3.15,3.15,0,0,1,1.4-2.5A14,14,0,0,1,437,60.58a56.83,56.83,0,0,1,6.68-1.7c2.2-.26,3.92-.43,5.19-.49l3.29-.3c.26-.53.58-1.18,1-2s.78-1.61,1.24-2.54l4-6.88c.66-1.06,1.33-1.39,2-1a1,1,0,0,1,.5.9,3.59,3.59,0,0,1-.3,1.2q-1.39,3-4,9a3.81,3.81,0,0,0-.5,1.5l1.09.1,5.39.3a8.66,8.66,0,0,1,1.69.19,1,1,0,0,1,1,.8c0,.54-.33.87-1,1a5.27,5.27,0,0,1-1.19.1c-3.13,0-5.49,0-7.08-.1h-.3a1.4,1.4,0,0,0-1.2.9l-6.68,16a2.44,2.44,0,0,0-.3,1.1A22.22,22.22,0,0,1,445,87.3q-2.4,5-4.19,8.08a87.93,87.93,0,0,0-4.38,9q-.3.8-2.4,5.19a4.36,4.36,0,0,0-.35.64,3.83,3.83,0,0,1-.45.75,1.43,1.43,0,0,1-1.09.6C431.39,111.53,431,111.1,431,110.23Zm5.28-43.07c1.6.8,2.56,1.26,2.9,1.4l2.29,1.09a12.61,12.61,0,0,1,4.69,4.19l.39.5,2.6-6.18a1.3,1.3,0,0,0,.1-.8,2.41,2.41,0,0,1-.1-.8,4.29,4.29,0,0,1,.2-1.29,6.78,6.78,0,0,1,.3-.9l1.19-3.59a2.52,2.52,0,0,0-1.19-.1c-2.07.2-4.79.57-8.18,1.1a13.68,13.68,0,0,0-5.58,2,5.74,5.74,0,0,0-1.5,1.1q-.79.6,0,1.29a17.13,17.13,0,0,0,1.9,1Zm13.37,15.06a3.83,3.83,0,0,1,.3-1.5,16.34,16.34,0,0,1,5.38-7.48,8.86,8.86,0,0,1,1.59-.89,4,4,0,0,1,1.7-.4,3.76,3.76,0,0,1,2.79,1.69,4.84,4.84,0,0,0,.8.7,4.27,4.27,0,0,0,1.39-.9,1.61,1.61,0,0,1,.7-.2,1.24,1.24,0,0,1,.9.4,1.17,1.17,0,0,1,.4.8,3.16,3.16,0,0,1-.2.9L464.12,77a14.64,14.64,0,0,0-2.39,4.39,8.08,8.08,0,0,1,.8-.35,3.67,3.67,0,0,0,.8-.45l2.59-2c2.06-1.53,3.65-2.8,4.78-3.79.4-.4.63-.6.7-.6a1.25,1.25,0,0,1,.6-.1c.53,0,.85.15.95.45a.87.87,0,0,1-.15.85,7.65,7.65,0,0,1-.9,1.29Q469.31,79,468.11,80a35.46,35.46,0,0,1-3.69,2.6,3.65,3.65,0,0,1-2.09.89,2.7,2.7,0,0,1-.8.1,1.88,1.88,0,0,1-1.44-.6,2.41,2.41,0,0,1-.55-1.69,8.75,8.75,0,0,0,.2-1.6,13.48,13.48,0,0,0-1.5,1q-2.89,1.89-4.89,3a4.74,4.74,0,0,1-1.79.6,1.7,1.7,0,0,1-1.2-.5,2.24,2.24,0,0,1-.69-1.58ZM457,78.73a16.53,16.53,0,0,0,3.14-2.7c-.46-.86-.93-1.29-1.39-1.29a1.88,1.88,0,0,0-1.2.5A9.51,9.51,0,0,0,455,77.63a26.7,26.7,0,0,0-2,3.29A16.91,16.91,0,0,0,457,78.73Zm12.52,6.08a2.23,2.23,0,0,1-1.15-.75,1.82,1.82,0,0,1-.45-1.15,1.9,1.9,0,0,1,.4-1.19,11.29,11.29,0,0,1,1.79-1.8,12.75,12.75,0,0,1,1.75-1.09,18.4,18.4,0,0,0,1.94-1.2,8.66,8.66,0,0,0-1.79-.5,18,18,0,0,1-1.9-.7,1.61,1.61,0,0,1-1-1.49,1.33,1.33,0,0,1,.6-1.2,8.77,8.77,0,0,1,5.68-2.09,1.46,1.46,0,0,1,1.05.4,1.11,1.11,0,0,1,.44.89c0,.67-.49,1.07-1.49,1.2l-1.2.2-.79.4a27.56,27.56,0,0,0,3.6,1.49l.3.1a2,2,0,0,0,.6-.1l.6-.2,3.79-1.09,4.49-1.2a5,5,0,0,1,1.79-.3c.13,0,.46.27,1,.8v.1a1.17,1.17,0,0,1-.5,1.1,4.08,4.08,0,0,1-1.8.59c-1.79.6-3.89,1.2-6.28,1.8l-2.09.7a3.73,3.73,0,0,1-.5,2.89A7.45,7.45,0,0,1,476.59,83a11.88,11.88,0,0,1-4.89,1.9,16,16,0,0,1-2.19-.09Zm6.58-5.09a19.51,19.51,0,0,0-5,2.5,5.36,5.36,0,0,0,5-2.5Zm13,5.09a1.83,1.83,0,0,1-1.35-.6,2.64,2.64,0,0,1-.65-1.5,1.7,1.7,0,0,1,.55-1.29,1.83,1.83,0,0,1,1.25-.5h.2a2,2,0,0,1,1.44.6,1.81,1.81,0,0,1,.65,1.39,1.89,1.89,0,0,1-.55,1.3,1.72,1.72,0,0,1-1.34.6Z"/></g></g></svg>