<svg xmlns="http://www.w3.org/2000/svg" viewBox="0 0 625.39 268.82"><defs><style>.cls-1,.cls-4,.cls-5{fill:#fff;}.cls-2{fill:#e8213c;}.cls-3{fill:#a8121b;}.cls-4{font-size:23.13px;font-family:Poppins-Italic, Poppins;letter-spacing:0.33em;}.cls-4,.cls-5{font-style:italic;}.cls-5{font-size:46.6px;font-family:Poppins-ExtraBoldItalic, Poppins;font-weight:800;}</style></defs><g id="Capa_2" data-name="Capa 2"><g id="Capa_1-2" data-name="Capa 1"><path class="cls-1" d="M278.29,238.9S108.7,297.67,45.8,250.48l-2.43-1.92-.2-.17a55,55,0,0,1-11-12.36,45.07,45.07,0,0,1-4.88-11.66,58.3,58.3,0,0,1-1.19-22,83.75,83.75,0,0,1,5.13-20.06c.49-1.17,1-2.35,1.52-3.54l0-.08.05-.09c.72-1.66,1.46-3.32,2.23-5,14.22-31.18,35.39-66,56.94-88.86,5.76.76,10.92,3.95,12.28,5.61a254.53,254.53,0,0,0-36.08,56.86c46.84,7,70.19-34.57,44-55.34-30.48-24.11-74.44,9.25-99.61,25.32C5.33,114.81-.43,107.38,0,96.16,33.68,80.7,84.93,57.81,128.28,79.64c44,21.68,8.65,89.6-65.34,79.89v0A110,110,0,0,0,50.64,189.7c-2,8.48-2.79,17.84-.81,26.83,2.69,12.23,10.57,23.75,27.79,31.39h0l0,0h0c1.29.65,22.72,11,62.58,11.45h.54C173.58,259.85,218.06,254.24,278.29,238.9Z"/><path class="cls-1" d="M137.05,139.86c9.88-12.1,23.09-14,32.34-11.23,14.94,4.81,18.52,22.83-7.16,30.86-3.82,1-9.38,2.59-15.06,3.95,1.73,5.31,9,7.41,20.13,3.83s26.54-15.07,31.35-26.42l8.52,5.31C205.32,153,189,169.61,172.6,176.65,144.46,189,113.1,169.24,137.05,139.86Zm20,10.74c11.85-5.19,13.33-10.74,8.39-11.6-2.84-.38-6.05,1-11.11,6.66a34.62,34.62,0,0,0-5.8,8.15C151.74,152.7,154.58,151.59,157.05,150.6Z"/><path class="cls-1" d="M200.88,182.21c-5.93-.75-10.13-3.71-12.6-7.91,6.42-5.55,10.5-29.26,9.26-41.48,4.69-1.73,10.87-1.36,16.17,4.57.74,3.21.87,8.64,0,14.81,6.42-5.92,13.46-12.71,19.63-19.38l.5-.61.62-.62c.24.25.49.62.86,1,4,1.11,13.33,5.8,14.07,9.87-6.66,14.69-9.5,18.77-6,22.1s16.18-3.33,25.31-22.84l8.4,5.56c-4.2,11.23-17.78,32.47-36.42,32.1-12-.5-17.66-11.61-16.42-24.45a173.88,173.88,0,0,0-18.27,22.35,28.89,28.89,0,0,1-2.6,3.7l-1.35,2.1Z"/><path class="cls-1" d="M332.1,140.85a21.06,21.06,0,0,1-1,2,44.78,44.78,0,0,1-9.33,11.53c-6.48,6-14.51,10.81-21,12.84-11.11,3.59-18.4,1.49-20.12-3.82,5.67-1.36,11.23-3,15.06-3.95,25.68-8,22.1-26.05,7.16-30.87-9.26-2.71-22.47-.86-32.35,11.24-.55.68-1.08,1.36-1.58,2s-.78,1.07-1.13,1.6a38.15,38.15,0,0,0-3.53,6.29c-3.1,7.05-2.84,13.25-.3,18.2,6,11.65,24.66,16.32,42.1,8.67a77.61,77.61,0,0,0,16.61-10.12c2.34-1.83,4.55-3.73,6.55-5.62,6.14-5.75,10.5-11.44,11.41-14.75Zm-44.32,4.81c5.07-5.68,8.28-7,11.12-6.66,4.94.86,3.45,6.42-8.39,11.6-2.47,1-5.31,2.1-8.53,3.21A35,35,0,0,1,287.78,145.66Z"/><path class="cls-1" d="M376.6,141.74l-.05,0c-9.26,19.51-23.09,27.29-30.24,23.95-8.77-4.32-1-27.28,32.71-65.43-.24-4.07-11.48-13-17.78-12.47-13.08,14.87-25.38,36.56-30.12,55.13a54.08,54.08,0,0,0-1.9,18c.93,10,6.15,17,17.58,18.45,10.25,1.22,19.39-5.15,26.28-13A69.28,69.28,0,0,0,385,147.27Z"/><path class="cls-1" d="M437.91,141.83a8.44,8.44,0,0,1-1.1,1.91c-2.89,3.81-8.43,4.27-13.6,3.4.13-4.94-.24-9.88-2-12.83-4.45-8.64-11.11-8.9-15.68-4.94-1.36-2.47-3.09-4.2-5.8-4.2-7.31,0-14.05,4.28-19.07,10.44a39.4,39.4,0,0,0-4.09,6.13c-4.29,7.89-6,17.2-3.52,24.63A18,18,0,0,0,377,173c3.05,3.24,7.58,5.55,13.86,6.33,15.8,2,24.69-11.35,29.87-22.09a40.7,40.7,0,0,0,11.24,0c6.74-1,12.47-4.08,14.32-10ZM390.5,165.66c-2.37-1.16-3.42-3.51-3.35-6.31.08-3.68,2.09-8.14,5.55-11.7a21.19,21.19,0,0,1,7.43-5,18,18,0,0,0,1.11,6.05,21.94,21.94,0,0,0,6.54,5.55C403.22,162.94,395.31,168.13,390.5,165.66Z"/><path class="cls-1" d="M405.56,211.34c3.95-.62,36.67-71.6,33.46-80.37,4.44-1.6,10.61-1.23,16.17,4.69a3.88,3.88,0,0,1,.25,1.36c8.76-5.8,18-7.9,25.43-2.35,8.52,6.55,7.28,21.12-.25,31.86,8.15-4.08,18.64-12.72,24.08-24.69l8.51,5.43C509.76,157.39,487.41,183,462.6,179a25.47,25.47,0,0,1-3.09.5c-6.42.62-12.47-.74-17-4.07-8,19.13-17.9,38.76-22.84,44C413,219.12,408,215.78,405.56,211.34Zm47.65-50.25c-.86-.12-2.34,7.53,2.23,7.9,8.64.75,18.64-17.77,12.1-23.82-3.34-3.09-9.14-.13-16.05,7.28l-1.73,4.94A8.24,8.24,0,0,1,453.21,161.09Z"/><path class="cls-1" d="M568.27,140.84h0c-2.94,6.93-9.82,13.94-17.27,19.13a53.58,53.58,0,0,1-14.08,7.28c-11.12,3.58-18.4,1.49-20.13-3.82,5.68-1.37,11.23-3,15.06-4,25.68-8,22.1-26,7.16-30.85-9.26-2.73-22.47-.87-32.34,11.23-.6.73-1.16,1.46-1.68,2.17s-.89,1.22-1.28,1.83l0,0a38.17,38.17,0,0,0-2.47,4.2s0,0,0,0a0,0,0,0,0,0,0c-3.35,6.66-3.74,12.61-2,17.54h0c4.61,13.28,24.54,19.07,43.08,11a59,59,0,0,0,5.8-2.88l.12-.06a88.23,88.23,0,0,0,14.79-10.59,61.39,61.39,0,0,0,12.45-16.27c.21-.4.42-.79.61-1.18ZM524,145.66c5.06-5.68,8.28-7,11.11-6.67,4.94.87,3.46,6.42-8.39,11.6-2.48,1-5.31,2.1-8.52,3.21A34.59,34.59,0,0,1,524,145.66Z"/><path class="cls-1" d="M576,145.67c-.19.39-.4.78-.61,1.18l-7.12-6h0c.23-.41,5.53-10.42,6.08-25.16a66.67,66.67,0,0,0-.45-10.59c2.53-1.4,5.07-2.84,7.59-4.38.08.32.16.64.23,1,.4,1.78.74,3.6,1,5.46C583.49,115.17,583.58,130.51,576,145.67Z"/><path class="cls-1" d="M576,145.67c-.19.39-.4.78-.61,1.18l-7.12-6h0c.23-.41,5.53-10.42,6.08-25.16a66.67,66.67,0,0,0-.45-10.59c2.53-1.4,5.07-2.84,7.59-4.38.08.32.16.64.23,1,.4,1.78.74,3.6,1,5.46C583.49,115.17,583.58,130.51,576,145.67Z"/><path class="cls-1" d="M514.15,27.48a22.84,22.84,0,0,0-3.41,2.75l-.13.13-.26.26c-.4.39-1.1,1.12-1.91,2.07l-.23.23v0a34.47,34.47,0,0,0-2.6,3.51.41.41,0,0,0-.05.09,57.82,57.82,0,0,0-5,8.8c-.31-1.22-.66-2.42-1-3.63v0c-.11-.35-.22-.71-.36-1.06A106.73,106.73,0,0,0,490,20.05c-3.59-6.24-8.33-7.4-15.52-5a116.75,116.75,0,0,0-16,6.5c-8.65,4.34-16.79,4.06-25.29-.31A154.46,154.46,0,0,0,415.84,14a10.55,10.55,0,0,0-12.44,3.32,50.87,50.87,0,0,0-6.64,10c-4.93,10.11-7.73,20.78-10,31.59Q386,62.47,385.28,66c-.54,2.7,1,3.7,3.15,4.72,1.38.66,2.78,1.29,4.17,1.9A128.73,128.73,0,0,0,445,83.45a130.79,130.79,0,0,0,48.44-8.21,19,19,0,0,0,1.18,10.56,18.55,18.55,0,0,0,2.58,4.42,155.43,155.43,0,0,1-48.33,6.45A154.62,154.62,0,0,1,382.07,81.6c-1.78-.85-3.55-1.72-5.32-2.64-2.73-1.42-4.71-2.8-4-6.5.59-3.24,1.19-6.49,1.83-9.72,2.89-14.84,6.4-29.5,12.65-43.38a70.08,70.08,0,0,1,8.43-13.75c4-5.2,9.63-7,15.84-4.5a191,191,0,0,1,22.12,10c10.83,6,21.21,6.45,32.22.52a144.76,144.76,0,0,1,20.4-8.87c9.16-3.24,15.21-1.63,19.82,7A157.35,157.35,0,0,1,514.15,27.48Z"/><path class="cls-1" d="M508.44,32.69c-.07.08-.15.16-.22.25v0Z"/><path class="cls-2" d="M538.82,32.69A34.15,34.15,0,0,0,531.93,35l-1.84-.79,5-2.9A37.66,37.66,0,0,1,538.82,32.69Z"/><path class="cls-2" d="M544.72,40.51,543.59,40a10.47,10.47,0,0,1,1.77.73c.27.14.53.29.79.45-.28-.15-.57-.3-.87-.43Z"/><path class="cls-2" d="M552.89,52.91a10.44,10.44,0,0,1-.34-1.61c-.06-.44-.11-.83-.17-1.19,2.7,1.78,4.33,4.35,3.18,5.94a7,7,0,0,1-.77.89,14.53,14.53,0,0,1-.79-1.3h-.34l-.33-1.42A13.44,13.44,0,0,1,552.89,52.91Z"/><path class="cls-2" d="M556.82,88.24h0c-.18.14-.37.29-.55.45h0l-2.18.42-4.66.9-12.19,2.36h0l-3.07.6,1.56-1.36,3.61-3.16a15.55,15.55,0,0,0,3.33.24,66.26,66.26,0,0,0,8.16-.79c1.59-.22,3.17-.45,4.76-.65l.49-.06Z"/><path class="cls-2" d="M579,79.7a37.27,37.27,0,0,1-4.92,3.48,35,35,0,0,1-6.85,3.11l-.39.12c.46-.32.94-.64,1.42-.94a39.15,39.15,0,0,1,4-2.19l1.73-.85C575.72,81.56,577.38,80.63,579,79.7Z"/><path class="cls-2" d="M581.63,61.86a17.26,17.26,0,0,1-2.5,5.9,27.52,27.52,0,0,1-9.08,8.53,26.93,26.93,0,0,1-5.27,2.4,24.09,24.09,0,0,1-3.08.81A29.26,29.26,0,0,0,564,77.31a23.11,23.11,0,0,0,2-2.4,18.49,18.49,0,0,0,1.4-2.27A19.14,19.14,0,0,0,569.53,63c-.09-3.5-.92-6.14-4.75-7.63a6.38,6.38,0,0,1-1.88-1.23,7.75,7.75,0,0,1-2.32-3.45,2.83,2.83,0,0,1-.1-.47c-.11-.89-.25-1.76-.43-2.59h0c-.14-.62-.3-1.22-.47-1.81-.11-.35-.22-.7-.35-1a18.57,18.57,0,0,0-3.7-6.36l-.49-.51a15.79,15.79,0,0,0-1.53-1.4,23.35,23.35,0,0,0-5.61-3.35,19.73,19.73,0,0,1,4.81-2,16.49,16.49,0,0,1,4.5-.57,17.93,17.93,0,0,1,4.07.51c2.86.7,4.91,2,6.07,4a2.71,2.71,0,0,1,.33.63,9.9,9.9,0,0,1,.86,4.55c-.09,6,1.56,10,7.94,11.71C580.85,53.09,582.54,57.27,581.63,61.86Z"/><path class="cls-2" d="M581.63,61.86a17.26,17.26,0,0,1-2.5,5.9,27.52,27.52,0,0,1-9.08,8.53,26.93,26.93,0,0,1-5.27,2.4,24.09,24.09,0,0,1-3.08.81A29.26,29.26,0,0,0,564,77.31a23.11,23.11,0,0,0,2-2.4,18.49,18.49,0,0,0,1.4-2.27A19.14,19.14,0,0,0,569.53,63c-.09-3.5-.92-6.14-4.75-7.63a6.38,6.38,0,0,1-1.88-1.23,7.75,7.75,0,0,1-2.32-3.45,2.83,2.83,0,0,1-.1-.47c-.11-.89-.25-1.76-.43-2.59h0c-.14-.62-.3-1.22-.47-1.81-.11-.35-.22-.7-.35-1a18.57,18.57,0,0,0-3.7-6.36l-.49-.51a15.79,15.79,0,0,0-1.53-1.4,23.35,23.35,0,0,0-5.61-3.35,19.73,19.73,0,0,1,4.81-2,16.49,16.49,0,0,1,4.5-.57,17.93,17.93,0,0,1,4.07.51c2.86.7,4.91,2,6.07,4a2.71,2.71,0,0,1,.33.63,9.9,9.9,0,0,1,.86,4.55c-.09,6,1.56,10,7.94,11.71C580.85,53.09,582.54,57.27,581.63,61.86Z"/><path class="cls-2" d="M559.66,66.81a9.24,9.24,0,0,1-2.36,5.69,35.64,35.64,0,0,1-8.42,6.3c-7.32,3.82-10.4,2.41-13.12-4.22-.82-2-3-3.69-5-4.87l-.47-.3c-4.65-3.06-6.11-8.42-2.93-14.78l2.1,2.75.72.95c6.15,8.31,14,9.78,22.85,4.45,1.32-.8,3.85-1.68,4.48-1.1A7.42,7.42,0,0,1,559.66,66.81Z"/><path class="cls-2" d="M545.36,40.75l-.08,0-4.39,1c-4.73,1.07-8.4,2.37-10.19,7a8.06,8.06,0,0,1,2.93-6.54,10.23,10.23,0,0,1,10-2.17h0A10.47,10.47,0,0,1,545.36,40.75Z"/><path class="cls-2" d="M538.82,32.69A34.15,34.15,0,0,0,531.93,35C523.24,39,519.74,46.56,520.2,59.15c0,.43,0,.89.07,1.34s.06,1,.11,1.59c-4.32-1.22-7.82-6.48-9-13.45a22.74,22.74,0,0,1-.24-6.39,12,12,0,0,1,3.53-7.34,13.3,13.3,0,0,1,2.2-1.69c5.78-3.65,11.82-3.95,18.21-1.93A37.66,37.66,0,0,1,538.82,32.69Z"/><path class="cls-2" d="M556.82,88.24h0c-.18.14-.37.29-.55.45h0c-1.47,1.22-2.86,2.62-4.37,3.72a11,11,0,0,1-2.37,1.36,17.07,17.07,0,0,1-2.54.81,18.79,18.79,0,0,1-4.18.46,23.34,23.34,0,0,1-7.37-1.23,27.74,27.74,0,0,1-11.36-7.19,21.07,21.07,0,0,1-4.89-8,14.92,14.92,0,0,1-.61-2.52c-.24-1.49.3-3.11.64-4.69q.1-.47.18-.9c.64.13,1.31.2,2,.27l1,.14a4.43,4.43,0,0,1,2.42.93c.53.51,1.08,1.05,1.62,1.59a22.4,22.4,0,0,1,5,6.88c1.93,4.68,3.92,7.32,7.93,8.11a15.55,15.55,0,0,0,3.33.24,66.26,66.26,0,0,0,8.16-.79c1.59-.22,3.17-.45,4.76-.65l.49-.06Z"/><path class="cls-2" d="M517.24,86.63c-3.28,0-5.9.29-8.29,0a8.54,8.54,0,0,1-1-.17A10.63,10.63,0,0,1,504.45,85c-4.62-2.9-6.27-9-2.85-14.32,2.71-4.23,3.4-7.74,1.89-12.48a6.81,6.81,0,0,1-.11-3.16c.25-1.71.81-3.58,1.07-5.45,2.67,5.32,5,9.72,7.09,14.21.62,1.34,1.37,3.23.9,4.38,0,.06-.05.14-.08.2-1.88,4.77-1.19,8.88,1.11,13a31,31,0,0,0,3,4.34Q516.84,86.15,517.24,86.63Z"/><path class="cls-2" d="M545.35,104.39c-.19.1-.39.2-.61.29l-.57-.85Z"/><path class="cls-2" d="M556.82,88.24c-.18.15-.37.29-.55.46h0c-1.47,1.22-2.86,2.62-4.37,3.72a11,11,0,0,1-2.37,1.36,17.07,17.07,0,0,1-2.54.81A39.85,39.85,0,0,1,549.42,90c.44-.72.9-1.43,1.39-2.11,1.59-.22,3.17-.45,4.76-.65l.49-.06Z"/><path class="cls-2" d="M556.26,88.7c-1.47,1.22-2.86,2.62-4.37,3.72a33.7,33.7,0,0,1,2.19-3.3c.47-.64,1-1.26,1.49-1.86l.49-.06.76,1h0c-.18.14-.37.29-.55.45Z"/><path class="cls-2" d="M579.23,89.9l-1.1.71c-2.11,1.35-4.27,2.62-6.45,3.86-4.62,2.61-9.35,5-14,7.59L556,103c-.27-.4-.52-.8-.78-1.19.09-.26.18-.52.28-.77a30.3,30.3,0,0,1,11.38-14.62c.46-.32.94-.64,1.42-.94a39.15,39.15,0,0,1,4-2.19l1.73-.85c1.7-.87,3.36-1.8,5-2.73h0c1.66-.94,3.3-1.89,5-2.79C585.57,81.8,584.61,86.4,579.23,89.9Z"/><path class="cls-2" d="M579.23,89.9l-1.1.71c-2.11,1.35-4.27,2.62-6.45,3.86-4.62,2.61-9.35,5-14,7.59L556,103c-.27-.4-.52-.8-.78-1.19.09-.26.18-.52.28-.77a30.3,30.3,0,0,1,11.38-14.62c.46-.32.94-.64,1.42-.94a39.15,39.15,0,0,1,4-2.19l1.73-.85c1.7-.87,3.36-1.8,5-2.73h0c1.66-.94,3.3-1.89,5-2.79C585.57,81.8,584.61,86.4,579.23,89.9Z"/><path class="cls-2" d="M535.43,93.82a27.77,27.77,0,0,1-11.37-7.19,40.8,40.8,0,0,1,9.68,3.93c2.92,1.62,6,3.08,9.06,4.49A23.34,23.34,0,0,1,535.43,93.82Z"/><path class="cls-2" d="M544.17,103.83l1.18.56c-.19.1-.39.2-.61.29-8.69,4-30.47,1.56-34.51-10.8,7.14-1.92,13.6-.38,19.94,3.13C534.84,99.6,539.78,101.75,544.17,103.83Z"/><path class="cls-2" d="M557.68,102.06,556,103c-.27-.4-.52-.8-.78-1.19.09-.26.18-.52.28-.77Z"/><path class="cls-2" d="M545.35,104.39c-.19.1-.39.2-.61.29-8.69,4-30.47,1.56-34.51-10.8,7.14-1.92,13.6-.38,19.94,3.13,4.67,2.59,9.61,4.74,14,6.82Z"/><path class="cls-2" d="M555.56,56.05a7,7,0,0,1-.77.89c-2.55,2.43-5.57.54-8.38-.67l-1.32-.57c-.45.48-.87,1.34-1.42,1.43-1.9.32-3.84.37-5.76.51-.14-2-1-4.32-.26-5.78,1.89-3.48,5.56-4.08,9.3-3.79a10,10,0,0,1,2.07.45,12.22,12.22,0,0,1,3.36,1.59C555.08,51.89,556.71,54.46,555.56,56.05Z"/><path class="cls-2" d="M548.7,43.48c-7.7-.14-13.9,1.84-15.09,10.85a8.51,8.51,0,0,1-2.91-5.6,8.06,8.06,0,0,1,2.93-6.54,10.23,10.23,0,0,1,10-2.17h0a10.47,10.47,0,0,1,1.77.73c.27.14.53.29.79.45A10.33,10.33,0,0,1,548.7,43.48Z"/><path class="cls-1" d="M576,145.67c-.19.39-.4.78-.61,1.18a61.39,61.39,0,0,1-12.45,16.27,71.44,71.44,0,0,1-14.79,10.59l-.12.06c-1.83,1-3.76,2-5.8,2.88L551,160c7.45-5.19,14.33-12.2,17.27-19.13h0c.23-.41,5.53-10.42,6.08-25.16l7.37-14,.15-.29a50.16,50.16,0,0,1,.84,5.75C583.49,115.17,583.58,130.51,576,145.67Z"/><path class="cls-1" d="M46.78,241.14c-.82-.62-1.63-1.25-2.42-1.92Z"/><path class="cls-3" d="M46.78,241.14c-.82-.62-1.63-1.25-2.42-1.92Z"/><text class="cls-4" transform="translate(82.76 212.07)">Restaurante Bar</text><text class="cls-5" transform="translate(564.88 204.84)">®</text><path class="cls-1" d="M322.71,99.57c5.89-1.4,8.7,5.33,6.73,11.69-5.7,6-16.18,9.82-23.75,11.41-2.43-.46-2.25-4.67-.94-7C310.92,111.92,318.41,106.21,322.71,99.57Z"/><path class="cls-1" d="M520.67,111.31S445.9,134.74,385.48,104l0,0s0,0,0,0a4,4,0,0,0,.74-1.4,0,0,0,0,0,0,0c.1-.25.17-.45.2-.54l0,0h0a2.88,2.88,0,0,0,0-.72,16.64,16.64,0,0,0-.26-2.38s0,0,0,0a1.52,1.52,0,0,0-.06-.32c0-.11,0-.2-.06-.29s-.08-.35-.12-.49-.14-.48-.14-.53c31.89,14.28,75.71,17.48,120.64,5.16a28.48,28.48,0,0,0,12.87,8.85Z"/><path class="cls-2" d="M581.63,61.86a17.26,17.26,0,0,1-2.5,5.9,27.52,27.52,0,0,1-9.08,8.53,26.93,26.93,0,0,1-5.27,2.4,24.09,24.09,0,0,1-3.08.81A29.26,29.26,0,0,0,564,77.31a23.11,23.11,0,0,0,2-2.4,18.49,18.49,0,0,0,1.4-2.27A19.14,19.14,0,0,0,569.53,63c-.09-3.5-.92-6.14-4.75-7.63a6.38,6.38,0,0,1-1.88-1.23,7.75,7.75,0,0,1-2.32-3.45,2.83,2.83,0,0,1-.1-.47c-.11-.89-.25-1.76-.43-2.59h0c-.14-.62-.3-1.22-.47-1.81-.11-.35-.22-.7-.35-1a18.57,18.57,0,0,0-3.7-6.36l-.49-.51a15.79,15.79,0,0,0-1.53-1.4,23.35,23.35,0,0,0-5.61-3.35,19.73,19.73,0,0,1,4.81-2,16.49,16.49,0,0,1,4.5-.57,17.93,17.93,0,0,1,4.07.51c2.86.7,4.91,2,6.07,4a2.71,2.71,0,0,1,.33.63,9.9,9.9,0,0,1,.86,4.55c-.09,6,1.56,10,7.94,11.71C580.85,53.09,582.54,57.27,581.63,61.86Z"/><path class="cls-1" d="M619.06,98.62l-.11.14c-.38.48-.77,1-1.17,1.43q-.36.42-.81.9l-.47.51a.27.27,0,0,0-.07.08,34.64,34.64,0,0,1-11.74,8.15,2.86,2.86,0,0,1-.41.15,21.89,21.89,0,0,1-3.29.89l-.08.1a20.74,20.74,0,0,1-9.33-.1,121,121,0,0,0-1.52-15.57.08.08,0,0,1,0,0c8.1-13.35,31.34-14.28,34.84-11.35C626.5,85.26,624.13,92.12,619.06,98.62Z"/><path class="cls-1" d="M604.69,109.83a34.64,34.64,0,0,0,11.74-8.15A32,32,0,0,1,604.69,109.83Z"/><path class="cls-1" d="M583.06,112.52l0,0-9.29,10a1.16,1.16,0,0,1,0-.13c.1-1.58,1-16.72-.65-20.71q1-.56,2-1.14c2.36-1.34,4.32-2.5,6.07-3.61C582,101.15,583.18,107.89,583.06,112.52Z"/></g></g></svg>